<?xml version="1.0" encoding="UTF-8"?>
<svg id="Layer_2" data-name="Layer 2" xmlns="http://www.w3.org/2000/svg" viewBox="0 0 191 52.43">
  <defs>
    <style>
      .cls-1 {
        fill: #292929;
        stroke-width: 0px;
      }
    </style>
  </defs>
  <g id="Layer_1-2" data-name="Layer 1">
    <g>
      <path class="cls-1" d="M7.42,4.67H0V0h90.91v4.67H12.3l-.12,36.35h-4.76V4.67Z"/>
      <path class="cls-1" d="M183.58,47.76h7.42v4.67h-97.54v-4.67h85.24l.12-36.35h4.76v36.35Z"/>
      <path class="cls-1" d="M19.72,11.88h9.35c5.52,0,9.38,3.08,9.38,8.31,0,4.2-2.52,6.6-5.66,7.46,3.6,1.76,6.17,6.78,7.03,13.38h-5.06c-1.16-6.81-4.24-11.53-7.93-11.53h-2.23v11.53h-4.88V11.88ZM29.02,16.54h-4.42v8.28h4.42c2.52,0,4.37-1.45,4.37-4.12s-1.85-4.16-4.37-4.16Z"/>
      <path class="cls-1" d="M60.52,33.83h-11.1l-2.62,7.21h-5.44l10.88-29.16h5.44l10.88,29.16h-5.44l-2.62-7.21h.01ZM51.01,29.16h7.93l-3.94-10.89-3.99,10.89Z"/>
      <path class="cls-1" d="M72.26,11.88h9.26c5.52,0,9.38,3.35,9.38,9s-3.86,8.96-9.38,8.96h-4.37v11.18h-4.88V11.88h-.01ZM81.43,16.54h-4.29v8.62h4.29c2.52,0,4.42-1.37,4.42-4.29s-1.88-4.34-4.42-4.34Z"/>
      <path class="cls-1" d="M113.31,28.68h-14.96v12.35h-4.88V11.88h4.88v12.14h14.96v-12.14h4.88v29.16h-4.88v-12.35Z"/>
      <path class="cls-1" d="M137.14,11.4c8.53,0,15,6.52,15,15.04s-6.48,15.04-15,15.04-15-6.52-15-15.04,6.46-15.04,15-15.04ZM137.14,36.61c5.62,0,9.94-4.5,9.94-10.16s-4.33-10.16-9.94-10.16-9.99,4.5-9.99,10.16,4.29,10.16,9.99,10.16Z"/>
      <path class="cls-1" d="M156.07,41.03V11.88h4.88v24.48h11.23v4.67h-16.12.01Z"/>
    </g>
  </g>
</svg>