<?xml version="1.0" encoding="UTF-8"?>
<svg id="Layer_2" data-name="Layer 2" xmlns="http://www.w3.org/2000/svg" viewBox="0 0 365.16 283.19">
  <defs>
    <style>
      .cls-1 {
        fill: #d53683;
        stroke-width: 0px;
      }
    </style>
  </defs>
  <g id="graphics">
    <g>
      <path class="cls-1" d="M336.66,103.28c.25-.6.45-1.21.59-1.84.38-1.64.41-3.34.67-5,.46-3.04,1.65-2.98,3.67-5.13,3.12-3.3,5.41-6.89,2.7-11.98-3.26-6.13-9.9-6.59-10.08-8.52-.05-.57.18-1.12.38-1.65,4.09-10.91-2.8-24.29-15.03-25.15-3.13-.22-6.29.64-9.03,2.18-1.35.76-2.52,1.76-3.74,2.71-1.15.9-2.02,2.11-3.19,2.98-.27.2-.6.37-.94.34-.52-.03-.91-.46-1.25-.86-1.13-1.34-3.81-5.31-8.45-5.93-2.91-.39-5.62.66-7.92,2.59-2.1,1.77-2.76,4.15-4.12,6.4-.79,1.3-1.91,1.46-3.3,1.48-1.51.02-2.91.23-4.31.84-3.74,1.62-6.29,5.28-6.61,9.34-.31,3.81.98,6.78,3.67,9.43,3.29,3.23,7.65,6.18,12.46,5.98,1.12-.05,3.3-.97,4.15.18.52.71.07,1.68-.07,2.44-.88,4.76,2.27,12.58,9.73,16.71,7.46,4.13,12.19,1.15,15.95-.12,1.49-.5,2.06.88,2.54,2,.54,1.25,1.19,2.35,2.11,3.36,3.01,3.33,7.96,5.14,12.36,3.82,3.22-.97,5.78-3.51,7.06-6.59Z"/>
      <path class="cls-1" d="M170.76,132.32c-1.79-2.94-4.09-8.07-4.05-12.15.04-4.08,1.87-8.05-.99-10.5s-6.32-.08-9.87-.04-6.79-2.42-9.35-4.64c-3.12-2.7-4.33-6.62-8.35-6.62s-6.24,1.78-8.19,4.18c-1.94,2.39-3.2,3.07-6.05,4.28s-5.79,1.22-8.75.83c-4.59-.61-6.37-.92-8.94,2.78-1.61,2.31.18,4.77-.15,8.62-.2,2.31-1.98,5.49-3.9,9.25-1.47,3.99-7.43,3.71-7.92,9.61-.52,7,7.24,5.05,8.89,9.78.74,2.13,1.49,4.26,2.23,6.39,1.55,4.44-5.14,7.56.11,12.77,3.06,3.04,6.29.98,9.68.46,2.63-.41,5.56,1.54,7.84,2.9,2.55,1.52,4.08,3.69,5.58,6.16,1.21,2,3.27,2.93,5.94,2.96,3.79.05,4.8-.77,6.3-3.67,1.83-3.52,7.85-5.88,11.66-6.36,3.06-.39,7.14,2.97,10.35.41s2.51-4.19,2.4-9.88c-.06-3.07,1.23-6.65,2.51-9.04,3.64-6.83,8.97-5.16,9.36-9.79.76-4.75-4.56-5.75-6.35-8.69ZM112.83,149c-6.78-15.1,1.46-31.07,16.72-34.85,12.75-3.16,26.68,2.21,30.38,15.49,2.55,9.14,1.09,26.25-14.04,31.99-11.84,4.5-26.94,1.02-33.06-12.64Z"/>
      <path class="cls-1" d="M228.89,11.93C222.29,4.15,212.76.03,201.3.01c-.15-.02-.29-.01-.43,0h-.29s-.1,0-.1,0c-.79-.04-1.59,0-2.53.09-12.03.63-22.09,4.82-29.09,12.1-6.73,7.01-10.44,16.63-10.44,27.11,0,20.07,13.9,41.43,39.63,41.51h.16c14.46,0,26.8-7.3,33.82-19.97.1-.13.18-.26.25-.38,1.17-2.16,2.19-4.52,3.04-7.03.17-.49.32-.98.47-1.46.1-.31.19-.63.28-.96l.07-.25c.09-.31.17-.62.25-.93.18-.72.35-1.45.5-2.19l.09-.5c.14-.7.25-1.4.36-2.11l.06-.39c.31-2.19.46-4.37.46-6.48,0-10.09-3.19-19.41-8.97-26.23ZM231,43.58s0,.04,0,.06l-.08.57c-.07.49-.16.97-.24,1.45l-.14.74c-.12.58-.25,1.15-.39,1.71-.11.43-.23.86-.37,1.34l-.13.45c-.58,1.94-1.31,3.84-2.18,5.65-1.55-.1-3.12-.2-4.69-.28.94-3.76,1.56-7.74,1.85-11.85l6.38.18ZM231.35,37.1l-6.55-.18c-.07-3.95-.47-7.8-1.2-11.46,1.7-.42,3.41-.89,5.08-1.39,1.61,3.93,2.53,8.39,2.66,12.95v.08ZM223.68,61.81c-1.7,2.27-3.63,4.25-5.75,5.93,1.05-1.86,2.01-3.89,2.84-6.09.96.04,1.93.1,2.91.15ZM203.46,28.23c4.45-.08,9.09-.55,13.8-1.4.62,3.15.97,6.48,1.04,9.9l-15.17-.43.33-8.07ZM221.98,19.16c-.8-2.45-1.75-4.7-2.83-6.68-.23-.42-.47-.84-.71-1.25,2.04,1.35,3.89,2.99,5.51,4.9.55.65,1.09,1.35,1.59,2.08-1.19.34-2.38.66-3.55.95ZM203.73,21.73l.6-14.57c3.66,1.19,6.72,4.02,9.12,8.43.8,1.47,1.52,3.13,2.15,4.94-4.07.71-8.05,1.12-11.87,1.2ZM218.11,43.22c-.32,4.1-1.01,8.05-2.06,11.76-2.7-.08-5.34-.12-7.88-.12-1.96,0-3.91.02-5.8.07l.5-12.14,15.25.43ZM213.74,61.42c-2.24,4.96-6.08,10.82-12.14,12.45l.51-12.44c3.78-.1,7.59-.1,11.63-.01ZM182.3,18.54c.42-.84.86-1.64,1.31-2.38,3.45-5.59,8.36-8.87,14.23-9.53l-.61,14.93c-5.28-.38-10.3-1.4-14.93-3.02ZM176.45,64.02c.63,1.4,1.32,2.73,2.05,3.97-1.41-1.07-2.73-2.26-3.96-3.57.63-.14,1.27-.27,1.91-.4ZM174.99,15.31c.94-.85,1.94-1.64,2.99-2.38-.58.96-1.14,1.99-1.66,3.07-.44-.22-.89-.46-1.33-.69ZM196.37,42.61l-.51,12.58c-5.44.3-10.58.81-15.27,1.52-1.44-4.51-2.32-9.55-2.55-14.62l18.34.52ZM196.64,36.12l-18.53-.52c.25-3.9.88-7.59,1.87-10.99,5.29,1.87,10.99,3.03,16.98,3.45l-.33,8.06ZM165.25,35.23c.63-5.54,2.49-10.67,5.41-14.91,1.07.62,2.18,1.21,3.31,1.76-1.27,4.12-2.06,8.6-2.34,13.33l-6.37-.18ZM174.15,57.86c-1.33.28-2.62.57-3.84.88-3.07-5.08-4.87-10.94-5.24-17.02l6.46.18c.21,5.57,1.09,10.93,2.62,15.95ZM195.59,61.71l-.5,12.26c-5.9-1.39-9.73-6.61-12-11.06,3.89-.54,8.09-.94,12.5-1.2ZM198.19,80.32h0s0,0,0,0Z"/>
      <g>
        <path class="cls-1" d="M86.33,84.49c2.91,2.74,6.98,2.11,10.01-.01,3.36-2.35,5.42-6,7.02-9.59,1.81-4.04,3.19-8.26,4.14-12.57,1.07-4.83,2.16-10.47-.76-14.97-1.47-2.26-4.22-4.23-7.12-3.58-2.89.65-4.91,3.46-6.54,6.15-2.44,4.04-4.59,8.25-6.43,12.58-1.29,3.04-2.47,6.16-3.02,9.41-.68,4.02-.6,9.44,2.66,12.55.01.01.02.02.03.03Z"/>
        <path class="cls-1" d="M85.69,30.1c.22-3.29,1.01-6.14,1.61-8.67,1.39-5.8,2.4-9.99-2.76-12.87-3.36-1.88-9.13-.46-13.29,3.57-2.26,2.19-4.13,4.79-5.34,7.71-.58,1.4-1.03,2.96-1.3,4.49-.15.84-.11,1.87-.66,2.57-.83,1.06-2.18.62-3.25.22-.93-.35-1.85-.66-2.8-.93-2.06-.59-4.17-1.03-6.31-1.22-3.24-.29-5.66.38-7.19,1.98-2.93,3.06-2.68,6.06-1.95,8.04.33.9,1.03,1.6.81,2.59-.27,1.21-2.27,1.52-3.08,2.28-1.24,1.15-1.96,2.72-2.35,4.35-.52,2.14.21,3.79.87,5.76.15.45.18.98-.1,1.37-.43.6-1.34.57-1.96.9-.76.41-1.42,1.03-1.92,1.74-2.44,3.43-1.21,8.19,1.4,11.12,2.15,2.42,5.1,4.1,8.01,5.44,5.92,2.73,12.4,4.28,18.81,5.34,3.18.53,6.58,1.68,9.86,1.1,3.81-.68,5.1-4.86,5.96-8.1,1.82-6.89,4.97-13.33,8.63-19.41,1.22-2.03,3.25-3.99,2.85-6.5-.36-2.28-1.98-4.18-3.15-6.09-1.24-2.02-1.55-4.44-1.4-6.77Z"/>
      </g>
      <g>
        <path class="cls-1" d="M40.73,154.34c-.27-.05-.56,0-.75.2-.3.31-.27.9-.34,1.3-.49,2.85-1.09,5.68-1.53,8.54-.08.53-.45,1.46.09,1.85.76.54,2.32-.33,2.95-.76.86-.59,1.6-1.36,2.2-2.2,1.87-2.61,1.13-8.31-2.63-8.94Z"/>
        <path class="cls-1" d="M38.3,135.03c-1.52-.03-3.34.73-4.61,1.52-1.82.77-3.34,3.1-2.28,4.97.81,1.42,2.34,2.2,3.85,2.69,1.29.42,2.82,1.13,3.05-.66.32-2.52.39-3.63,1.27-7.39.18-.78-.53-1.12-1.27-1.14Z"/>
        <path class="cls-1" d="M74.34,151.4c.17-13.84-7.91-27-20.17-33.35-14.24-7.38-32.65-4.27-43.79,7.27-9.26,9.59-12.74,24.37-8.73,37.08,4.27,13.54,16.3,23.32,29.98,25.48,22.02,3.47,42.45-14.34,42.71-36.48ZM45,170.99c-1.43,1.06-3.02,1.89-4.7,2.49-1.16.42-2.47.48-3.54,1.11-.84.5-1.19,1.64-2.02,2.02-.27.12-.58.12-.88.1-.68-.06-1.46-.26-1.94-.79-.49-.53-.54-1.31-1.16-1.78-.84-.63-2.14-.53-3.11-.92-1-.4-1.9-1-2.69-1.73-1.89-1.73-3-4.09-3.43-6.59-.5-2.96,3.25-4.03,4.75-1.65.93,1.47,2.77,3.65,4.68,3.68,2.16.03,2.5-3.28,2.88-4.79.7-2.75,1.42-5.5,2.03-8.28.11-.51.46-1.51.16-2.01-.47-.8-1.54-.93-2.34-1.25-1.07-.43-2.14-.92-3.17-1.45-1.86-.96-3.64-2.18-4.88-3.9-3.48-4.79-1.05-10.69,4.13-13.3,2.65-1.25,5.49-2,8.43-1.99.6,0,1.23.13,1.74-.23.42-.3.7-.78.9-1.24.31-.71.66-2.35,1.58-2.45,2.31-.26.69,3.46,1.91,4.45.24.19.55.27.85.35,2.01.52,3.92,1.41,5.61,2.62,1.17.84.61,2.96-.95,2.77-1.26-.15-2.51-.38-3.76-.59-.94-.16-1.52-.51-2.34.22-1.03.9-1.76,7.3-1.94,8.87-.11.96-.34,1.83.38,2.6.53.57,1.29.88,1.91,1.35,1.04.79,2,1.67,2.85,2.66,1.8,2.12,2.94,4.68,3.37,7.43,0,.06.02.12.03.18.17,1.15.19,2.32.03,3.47-.48,3.49-2.57,6.49-5.36,8.56Z"/>
      </g>
      <g>
        <path class="cls-1" d="M99.18,200.12c-1.85,1.12-4.14,2.93-4.55,5.19-1.14,6.21,18.7,49.46,22.26,55.56,2.5,4.29,8.36,4.63,12.27,2.26h0c3-1.82,4.56-4.9,4.39-8.65-.47-10.29-13.92-47.6-18.27-55.27-2.32-4.08-10.93-2.22-16.09.91Z"/>
        <path class="cls-1" d="M80.43,225.81c-1.69,1.01-3.8,2.59-4.27,4.41-1.26,4.95,14.6,37.38,17.5,41.9,2.07,3.23,7.3,3.11,10.88.98h0c2.75-1.64,4.26-4.17,4.26-7.13-.01-8-10.45-36.22-13.99-41.91-1.92-3.08-9.67-1.06-14.38,1.75Z"/>
        <path class="cls-1" d="M67.65,247.34c-2.49,1.01-4.81,2.49-5.85,5.06-1.15,3.11,7.75,24,10.27,27.57,2.32,3.29,5.8,3.98,9.72,2.43s5.98-4.54,4.87-9.27c-.38-1.62-3.19-10.18-4.85-14.07-1.41-3.31-2.73-6.65-4.34-9.86-.47-.93-1.19-2.15-2.19-2.57-1.2-.52-3.05-1.14-7.62.72Z"/>
      </g>
      <path class="cls-1" d="M230.78,119.25c-19.43,4.33-31.83,17.67-28.22,33.86,1.47,6.6,4,12.8,9.65,16.84.95.68,1.97,1.29,2.78,2.14,3.09,3.25.34,7.02-1.95,9.67-.48.55-.8,1.36-.48,2.02.36.73,1.3.93,2.11.97,3.61.17,7.08-1.08,10.13-2.94,4.47-2.73,5.73-6.17,12.24-9.67,6.51-3.5,16.35-2.91,25.55-9.2,7.19-4.92,11.91-13.02,9.16-25.36-3.48-15.6-21.54-22.66-40.97-18.33ZM226.04,154.28c-1.4,2.05-4.24,2.97-6.58,2.13s-3.95-3.35-3.74-5.82c.33-3.87,4.72-6.37,8.16-4.54,1.51.8,2.54,2.24,2.92,3.82.35,1.47.14,3.08-.77,4.41ZM241.45,151.03c-1.61,1.55-4.17,2.01-6.22,1.11-2.04-.9-3.44-3.1-3.38-5.34.07-2.53,1.96-4.82,4.43-5.37,3.3-.74,5.99,1.54,6.68,4.31.44,1.78.06,3.76-1.51,5.28ZM259.17,145.97c-1.38,3.38-5.94,4.62-8.76,2.27-2.47-2.05-2.82-5.98-.58-8.32,1.8-1.89,4.98-2.26,7.17-.84,1.23.8,2.07,2.11,2.4,3.53.26,1.11.2,2.29-.23,3.35Z"/>
      <g>
        <path class="cls-1" d="M231.15,216.22c-11.42-8.44-31.06-10.62-44.96-2.25-6.56,3.95-20.23,16.54-16.2,41.8,1.15,7.17,10.33,28.6,38.66,27.36,24.5-1.07,33.09-18.78,35.07-26.69,3.16-12.64.38-30.65-12.57-40.22ZM232.89,255.2c-4.87,12.64-18.85,20.17-32.09,16.94-21.37-5.21-21.32-22.35-19.98-30.93,1.07-6.9,5.85-13.85,12.01-17.58,9.45-5.73,24.12-5.25,32.49,1.87,8.36,7.12,11.25,20.19,7.59,29.7Z"/>
        <path class="cls-1" d="M214.05,230.89c-4.66-1.7-10.06-1.59-14.33.62-7.27,3.76-10.91,12.83-8.09,20.73,3,8.39,12.35,11.7,20.45,9.88,5.29-1.19,10.04-4.63,11.74-9.93,2.76-8.57-1.11-18.15-9.78-21.31ZM214.46,250.87c-1.29,1.81-3.37,3.07-5.97,3.17-4.32.16-8.31-2.83-8.71-7.27-.25-2.77,1.07-5.64,3.36-7.24s5.43-1.87,7.95-.69c1.55.73,2.85,1.96,3.71,3.44,1.68,2.89,1.35,6.22-.33,8.59Z"/>
      </g>
      <path class="cls-1" d="M347.51,172.68c-2-2.53-4.44-5.46-7.79-6.13-3.06-.61-6.09.93-8.72,2.31-4.2,2.19-8.43,4.32-12.55,6.65-.69.39-1.38.78-2.06,1.18-9.03,5.22-17.71,11.06-25.96,17.45-3.52,2.73-6.94,5.39-9.74,8.87-.87,1.08-1.6,2.33-1.88,3.7-.32,1.55.26,2.85.9,4.25,3.53,7.63,8.54,14.62,13.3,21.52,1.59,2.3,3.18,4.6,4.96,6.76,1.67,2.03,3.39,4.06,6.09,4.6.14.03.29.05.44.07,2.06.27,4.14-.32,6.04-1.16,9.54-4.23,18.15-10.1,26.57-16.21,6.26-4.54,12.39-9.26,18.38-14.16,2.49-2.04,4.96-4.11,7.25-6.37.89-.88,1.78-1.83,2.18-3.02.93-2.77-1.01-5.73-2.3-8.06-1.82-3.29-3.93-6.41-5.98-9.56-2.84-4.37-5.89-8.61-9.13-12.7ZM338.23,175.74c.35,1.67.03,3.38-.28,5.04-.05.29-.11.57-.16.85-.39,2.25-.89,4.54-1.51,7.02-.19.75-.37,1.48-.54,2.2-.89,3.68-1.66,6.87-3.36,10.5-.74,1.59-2.75,5.49-5.47,7.51-.08.06-.15.11-.23.17-2.2,1.55-5.28,2.5-8.92,2.76-8.01.57-18.48-.29-22.67-1.11-.64-.13-1.33-.21-2.05-.31-1.58-.21-3.21-.42-4.56-1.04-.93-.42-1.51-1.11-1.56-1.84-.04-.65.34-1.25,1.08-1.71,1.64-1.01,3.62-1.1,5.51-1.04.23,0,.45,0,.68,0,.28,0,.57,0,.85.01l15.86.69c4.39.19,10.39.45,14.03-3.74,1.93-2.23,2.96-5.74,3.79-8.55l.1-.36c.5-1.69.89-3.25,1.27-4.77.37-1.47.75-3,1.23-4.64.17-.6.34-1.2.5-1.8.35-1.3.72-2.65,1.2-3.94.05-.13.1-.3.17-.49.53-1.55,1.51-4.45,3.25-4.1.43.08.72.43.9.68.42.58.72,1.25.87,2.01Z"/>
    </g>
  </g>
</svg>