<?xml version="1.0" encoding="UTF-8"?>
<svg id="Layer_2" data-name="Layer 2" xmlns="http://www.w3.org/2000/svg" viewBox="0 0 95.5 101.09">
  <defs>
    <style>
      .cls-1 {
        fill: #d63684;
        stroke-width: 0px;
      }
    </style>
  </defs>
  <g id="ADIKO">
    <g>
      <path class="cls-1" d="M5.38,25.62c1.94.08,4.34-3.9,5.65-5.12,2.46-2.28,5.25-4.21,8.25-5.71.53-.27,1.08-.53,1.48-.96,1.72-1.83-1.19-5.51-2.61-6.66-1.92-1.55-4.36-2.33-6.79-2.79-3.13-.58-6.75-.53-9.04,1.68C.54,7.79-.01,10.43,0,12.9c.01,2.58.56,5.16,1.58,7.53.56,1.31,2.1,5.12,3.81,5.19Z"/>
      <path class="cls-1" d="M89.26,8.75c-2.67-1.02-5.69-.74-8.39.19-2.55.88-8.19,3.06-5.4,6.58,1.45,1.83,3.38,3.13,4.96,4.83,1.65,1.77,2.96,3.88,3.8,6.15.21.56.39,1.13.74,1.61.29.39.65.62,1.05.75,1.79.56,4.43-1.12,5.55-2.14,1.84-1.68,3.26-4.04,3.74-6.5.89-4.61-1.68-9.79-6.06-11.46Z"/>
      <path class="cls-1" d="M50.39,10.46l.03-2.59,2.43.09c2.07.05,3.8-1.53,3.88-3.6.08-2.06-1.53-3.8-3.6-3.88L40.06,0c-2.04-.06-3.76,1.5-3.87,3.54-.11,2.04,1.44,3.79,3.47,3.93l3.28.23-.03,2.89C19.91,13.05-2.38,33.89,4.34,59.49c2.33,8.86,8.27,16.37,15.91,21.41-1.46.72-2.85,1.69-4.18,2.62-3.07,2.13-6.05,4.67-7.98,7.92-1.54,2.59-2.68,7.85.92,9.31.82.34,1.71.41,2.59.3,1.12-.14,2.23-.6,3.17-1.23,1.69-1.12,2.98-2.73,4.3-4.26,1.36-1.58,2.79-3.1,4.28-4.56,2.18-2.14,3.75-2.9,6.76-2.53,2.97.37,5.95.66,8.94.83,5.84.33,11.72.19,17.5-.73,4.25-.67,7.29,5.05,10.1,7.29,2.33,1.86,4.55,4.95,7.9,4.69,2.85-.22,4.74-3.78,4.07-6.38-.41-1.59-1.45-2.93-2.51-4.17-2.32-2.72-4.89-5.23-7.66-7.49-1-.82-2.04-1.61-3.14-2.29,8.09-5.58,14.33-13.87,16.78-23.4,2.72-10.55.92-22.28-5.26-31.25-6.71-9.72-16.34-14.36-26.44-15.11ZM39.09,45.85c.89-5.67,1.84-11.33,2.72-17.01.23-1.45.39-2.93.65-4.37.15-.83.47-1.67,1.14-2.17.47-.35,1.08-.49,1.66-.39,1.35.24,1.8,1.49,1.93,2.69.23,2.26-.07,4.65-.19,6.9-.17,3.22-.34,6.45-.45,9.68-.03.82-.05,1.64.08,2.45.38,2.34,1.85,4.62,3.76,6,2.2,1.59,4.57,2.92,6.91,4.27,1.13.65,2.27,1.3,3.37,2,.53.34,1.1.65,1.64,1,.53.34,1.03.71,1.45,1.17.24.27.46.57.53.93.09.4-.01.82-.18,1.19-.17.39-.42.75-.77.99-1.73,1.18-4.99-.48-6.59-1.23-2.87-1.35-5.72-2.74-8.57-4.13-2.42-1.18-5.13-2.04-7.22-3.82-2.03-1.72-2.24-3.66-1.85-6.14Z"/>
    </g>
  </g>
</svg>