<?xml version="1.0" encoding="UTF-8"?>
<svg id="Layer_2" data-name="Layer 2" xmlns="http://www.w3.org/2000/svg" viewBox="0 0 65.68 51.49">
  <defs>
    <style>
      .cls-1 {
        fill: #d63684;
        stroke-width: 0px;
      }
    </style>
  </defs>
  <g id="Motivational_Letter" data-name="Motivational Letter">
    <g>
      <path class="cls-1" d="M17.05,12.06c1.99,3.6,4.05,10.21,5.16,15.82.92,4.65,1.08,12.58-2.16,16.56-2.81,3.46-8.23,1.5-7.83-3.2.26-3.17,2.93-5.54,2.28-8.86-.9-4.59-6.19-6.41-10.02-4.14-5.03,2.97-5.39,9.99-3.21,14.89,2.03,4.58,6,7.95,12.57,7.95,11.82,0,15.18-12.41,16.21-24.56C30.82,17.51,28.12,0,18.82,0c-2.23,0-5.47,1-5.77,3.58-.36,3.15,2,4.87,3.99,8.48Z"/>
      <path class="cls-1" d="M40.14,41.96c-.37-4.94-1.15-10.7.94-10.7s2.34,3.32,2.58,4.39c.66,2.87.47,5.75.73,8.66.31,3.58,2.74,6.98,6.78,6.91,8.34-.13,14.49-8.46,14.5-16.4,0-4.29-.68-8.43-3.57-8.43-1.99,0-2.37,2.47-3.67,5.64s-3.68,5.94-6.53,5.64c-2.82-.3-4.25-2.98-4.7-5.58-.4-2.38-.42-5.98,2.58-8.39s5.43-2.68,8.14-4.82c2.7-2.14,4.52-3.8,4.52-8.56C62.45,3.35,54.39,0,47.18,0,40.24,0,36.19,2,34,5.87c-2.19,3.86-.74,11.35,6.18,11.35,2.46,0,3.05-1.75,2.54-3.63-.43-1.58-2.36-2.92-1.32-5.17.67-1.44,2.35-2.39,4.84-2.42,2.74-.03,5.9,2.16,5.9,6.04s-7.13,6.88-10.64,9.62c-3.51,2.74-5.09,4.02-6.83,8.85-.59,1.63-1.65,6.69-3.1,11.02-1.53,4.55-4.38,7.78-1.95,9.31,1.49.95,4.68.75,6.18.09,3.5-1.54,4.6-5.47,4.34-8.97Z"/>
      <path class="cls-1" d="M5.88,19.39c-1.18-1.28-4.68-1.26-4.68-2.37s2.77-1.22,4.95-2.95c1.18-.94,1.5-4.31,2.66-4.31s1.75,3.62,2.75,4.59,4.29,1.72,4.29,2.67-2.59,1.2-4.34,2.25c-1.38.82-1.24,5.01-2.7,5.01s-1.75-3.61-2.93-4.89Z"/>
    </g>
  </g>
</svg>