<svg width="54" height="48" viewBox="0 0 54 48" fill="none" xmlns="http://www.w3.org/2000/svg">
<path d="M49.6872 20.2336C48.4174 21.6356 46.9995 22.9119 45.6238 24.2511C42.3435 27.4316 39.1478 31.0096 35.4654 33.7507C33.0316 35.5711 28.6508 34.9016 26.0265 33.7926C24.5027 33.1439 23.1059 32.2023 21.9843 30.9887C20.9684 29.9006 19.487 28.0384 19.7833 26.4481C19.9949 25.2555 22.1748 23.3095 23.4869 23.7071C23.8043 23.7908 24.0583 24.0209 24.2911 24.2511C25.6032 25.5693 26.6826 27.2642 28.4391 27.9128C30.5978 28.708 32.8835 27.6408 34.4072 26.1343C38.0473 22.5144 42.1742 18.8735 45.3064 14.7724C46.8513 12.7427 47.8037 10.0226 45.4545 7.86737C44.1424 6.65376 42.2589 6.63284 40.6293 7.13502C38.5129 7.76275 33.4549 13.9563 30.9999 12.659C30.492 12.387 30.0476 12.0104 29.6243 11.6128C29.1375 11.1525 28.6508 10.6503 28.4603 10.0016C27.7619 7.82552 35.7194 1.88302 37.3278 1.10883C39.7827 -0.0838587 42.661 -0.460496 45.2006 0.711264C45.6662 0.920507 46.1106 1.1716 46.5339 1.44361C51.9094 4.85427 55.6976 11.5919 51.867 17.4716C51.2321 18.4551 50.4914 19.3548 49.7084 20.2127L49.6872 20.2336Z" fill="#D63684"/>
<path d="M4.31273 27.7663C5.58254 26.3644 7.00049 25.088 8.37611 23.7488C11.6564 20.5683 14.8521 16.9903 18.5346 14.2492C20.9683 12.4288 25.3492 13.0984 27.9734 14.2073C29.4972 14.856 30.894 15.7976 32.0157 17.0112C33.0315 18.0993 34.5129 19.9615 34.2167 21.5518C34.005 22.7445 31.8252 24.6904 30.5131 24.2929C30.1956 24.2092 29.9416 23.979 29.7088 23.7488C28.3967 22.4306 27.3174 20.7357 25.5608 20.0871C23.4021 19.2919 21.1165 20.3591 19.5927 21.8656C15.9526 25.4855 11.8257 29.1264 8.69356 33.2275C7.14863 35.2572 6.19628 37.9773 8.54542 40.1325C9.85755 41.3461 11.7411 41.3671 13.3707 40.8649C15.487 40.2372 20.5451 34.0436 23 35.3409C23.508 35.6129 23.9524 35.9895 24.3757 36.3871C24.8624 36.8474 25.3492 37.3496 25.5396 37.9983C26.238 40.1744 18.2806 46.1169 16.6722 46.8911C14.2172 48.0838 11.339 48.4604 8.79938 47.2886C8.33378 47.0794 7.88935 46.8283 7.46608 46.5563C2.09057 43.1456 -1.69768 36.408 2.1329 30.5283C2.7678 29.5448 3.50852 28.6451 4.29157 27.7872L4.31273 27.7663Z" fill="#D63684"/>
</svg>
