<?xml version="1.0" encoding="UTF-8"?>
<svg id="Layer_2" data-name="Layer 2" xmlns="http://www.w3.org/2000/svg" viewBox="0 0 600 600">
  <defs>
    <style>
      .cls-1 {
        fill: #7c593e;
      }

      .cls-1, .cls-2 {
        stroke-width: 0px;
      }

      .cls-2 {
        fill: #fff;
      }
    </style>
  </defs>
  <g id="LOGOS">
    <g>
      <rect class="cls-1" width="600" height="600" rx="30" ry="30"/>
      <g>
        <path class="cls-2" d="M435.14,228.75c-2.24-1.54-4.48-2.98-6.74-4.33-.42-.26-.93-.28-1.38-.09-17.31,7.54-36.77,7.98-55.36,7.71-16.38-.22-40.35.06-57.52-.73-.86-.04-.86-1.31,0-1.36,8.06-.42,21.43-.63,28.09-.79,12.17-.3,24.6-.57,36.79-.81,7.3-.05,14.53-.46,21.74-1.5,7.25-1.07,14.58-2.56,21.45-5.15.33-.13.36-.59.04-.76-5.56-2.91-11.25-5.33-17.22-7.33-15.54-5.21-33.67-7.74-55.41-7.74h-9.26c-.19,1.87-.43,3.73-.7,5.58-.09.51-.18,1.01-.3,1.52-.17.75-1.24.75-1.42,0-.54-2.34-.77-4.72-1-7.1h-8.21c-.09,1.34-.19,2.67-.3,4-.23,2.41-.42,4.8-.83,7.17-.14.8-1.29.8-1.43,0-.41-2.37-.6-4.76-.83-7.17-.11-1.33-.21-2.67-.3-4h-7.97c-.11,2.32-.24,4.64-.4,6.96-.23,3.07-.41,6.13-.82,9.18-.11.83-1.33.83-1.44,0-.41-3.04-.6-6.1-.82-9.18-.15-2.32-.29-4.63-.4-6.96h-8.6c-.75,0-1.36.61-1.36,1.36v34.79c0,.75.61,1.36,1.36,1.36l78.86-.21c21.64,0,37.61-5.38,46.43-9.99,1.78-.93,3.58-2.13,5.16-3.62.27-.26.39-.62.08-.84Z"/>
        <path class="cls-2" d="M519.94,229.92c-.64-.99-2.17-.53-2.17.65v114.5c0,2.03-1.62,3.67-3.62,3.67s-3.62-1.64-3.62-3.67v-116.64c0-5.88-3.66-11.19-9.21-13.13-.03,0-.07-.02-.1-.03l-173.74-59.89c-8.86-3.05-18.17-4.58-27.48-4.58s-18.62,1.53-27.48,4.58l-173.75,59.89c-14.7,5.07-24.59,18.93-24.59,34.48v100.51c0,7.21,2.13,14.06,5.87,19.83.64.98,2.17.52,2.17-.65v-114.53c0-2.03,1.62-3.67,3.62-3.67,1,0,1.9.41,2.56,1.08.66.66,1.06,1.58,1.06,2.59v116.67c0,5.88,3.66,11.19,9.21,13.12.03.01.07.02.1.03l173.75,59.89c17.72,6.11,37.24,6.11,54.96,0l173.74-59.89c14.7-5.07,24.59-18.93,24.59-34.48v-100.51c0-7.21-2.13-14.05-5.87-19.82ZM481.06,217.78c6.84,0,12.39,5.56,12.39,12.39s-5.56,12.39-12.39,12.39-12.39-5.56-12.39-12.39,5.56-12.39,12.39-12.39ZM465.15,276.67c0-.97.34-1.8,1.01-2.47.7-.67,1.53-1.01,2.51-1.01s1.77.34,2.47,1.01c.67.67,1.01,1.49,1.01,2.47v17.25l16.35-19.53c.62-.72,1.41-1.12,2.36-1.2.97-.08,1.82.2,2.54.82.72.62,1.12,1.41,1.2,2.36.08.94-.2,1.78-.82,2.51l-17.13,20.42,17.28,23.45c.57.77.79,1.63.64,2.58-.15.94-.6,1.71-1.35,2.28-.77.57-1.63.78-2.58.63-.95-.15-1.71-.61-2.28-1.38l-16.2-21.96v19.86c0,.97-.34,1.8-1.01,2.47-.7.7-1.52,1.05-2.47,1.05s-1.81-.35-2.51-1.05c-.67-.67-1.01-1.5-1.01-2.47v-48.11ZM456.98,282.99c.37,1.15.2,2.22-.52,3.22-.7.97-1.65,1.46-2.84,1.46h-.04c-1.67,0-2.77-.79-3.29-2.36-.5-1.47-1.37-2.67-2.62-3.59-1.27-.94-2.69-1.42-4.26-1.42h-.22c-2.02,0-3.73.73-5.12,2.17-1.42,1.42-2.13,3.16-2.13,5.2v1.16c0,2.02.72,3.73,2.17,5.13,1.42,1.4,3.15,2.09,5.16,2.09,4.99.03,9.07,2,12.23,5.91,3.22,3.97,4.3,8.51,3.26,13.62-.75,3.72-2.62,6.77-5.61,9.16-2.97,2.37-6.36,3.55-10.18,3.55h-.04c-3.54,0-6.73-1.09-9.58-3.26-2.77-2.12-4.65-4.85-5.65-8.19-.35-1.17-.17-2.24.52-3.21.7-.97,1.65-1.46,2.84-1.46,1.77,0,2.89.83,3.37,2.51.55,1.87,1.6,3.4,3.14,4.6,1.57,1.22,3.35,1.83,5.35,1.83h.15c2.02,0,3.83-.6,5.43-1.8,1.62-1.22,2.69-2.79,3.22-4.71.74-2.92.23-5.54-1.54-7.86-1.72-2.27-3.99-3.44-6.81-3.52-4.04-.07-7.47-1.51-10.29-4.3-2.84-2.79-4.26-6.2-4.26-10.21v-1.05c0-4.01,1.41-7.44,4.23-10.29,2.79-2.82,6.17-4.23,10.14-4.23h.22c3.12,0,5.92.92,8.42,2.77,2.47,1.82,4.19,4.18,5.16,7.07ZM211.41,186.63l73.37-24.24c9.78-3.23,20.55-3.23,30.33,0l73.37,24.24c1.9.63,2.93,2.67,2.3,4.57-.63,1.9-2.67,2.93-4.57,2.3l-73.37-24.23c-8.32-2.75-17.48-2.75-25.8,0l-73.37,24.23c-1.9.63-3.95-.4-4.57-2.3-.63-1.9.4-3.95,2.3-4.57ZM157.34,218.84c8.38-10.3,31.59-13.67,50.91-13.73,28.8-.09,58.91-.97,87.04-1.15.4,0,.72-.32.72-.72v-3.21c0-.75.61-1.36,1.36-1.36h52.24c46.19,0,73.9,10.98,99.02,31.13.24.2.23.57-.02.74-3.41,2.37-24.36,19.9-65.13,19.9l-86.11.23c-.75,0-1.36-.6-1.36-1.36v-6.53c0-.45-.4-.8-.85-.72-9.61,1.69-27.08,4.1-48.38,4.1-7.76,0-16.03-.32-24.62-1.11-.66-.06-1.31-.09-1.95-.09-11.33,0-18.87,9.25-33.22,11.99,0,0-3.57.64-8.38.64-6.36,0-14.9-1.12-20.25-6.35-8.89-8.67-9.84-21.56-1.02-32.41ZM424.57,324.33c0,1.1-.39,2.03-1.16,2.8-.77.77-1.69,1.16-2.77,1.16s-2.03-.39-2.8-1.16c-.77-.77-1.16-1.71-1.16-2.8s.39-2,1.16-2.77c.77-.77,1.71-1.16,2.8-1.16s2,.39,2.77,1.16c.77.77,1.16,1.69,1.16,2.77ZM406.82,296.01c.97,0,1.81.34,2.51,1.01.67.67,1.01,1.5,1.01,2.47s-.34,1.8-1.01,2.47c-.7.7-1.53,1.05-2.51,1.05h-12.72v18.29h14.96c.97,0,1.8.34,2.47,1.01.7.7,1.05,1.52,1.05,2.47s-.35,1.81-1.05,2.51c-.67.67-1.5,1.01-2.47,1.01h-18.44c-.97,0-1.81-.34-2.51-1.01-.67-.7-1.01-1.54-1.01-2.51v-46.79c0-.95.34-1.77,1.01-2.47.7-.67,1.53-1.01,2.51-1.01h18.44c.97,0,1.8.34,2.47,1.01.7.7,1.05,1.52,1.05,2.47s-.35,1.79-1.05,2.47c-.67.7-1.5,1.05-2.47,1.05h-14.96v14.51h12.72ZM362.4,311.35c-.12.23-.26.41-.41.56-.3.43-.66.75-1.09.97-.88.42-1.77.49-2.69.19-.9-.28-1.57-.85-2.02-1.72l-10.17-19.94v33.37c0,.97-.34,1.81-1.01,2.51-.7.67-1.52,1.01-2.47,1.01s-1.81-.34-2.51-1.01c-.67-.7-1.01-1.54-1.01-2.51v-47.92c0-.97.34-1.8,1.01-2.47.7-.7,1.54-1.05,2.51-1.05,1.35,0,2.36.6,3.03,1.8,0,.03.01.05.04.07l.04.04,13.65,26.78,13.73-26.78s.06-.09.15-.27c.04-.06.07-.09.08-.11,0,0,0,0,0,0,.09-.12.18-.22.26-.29.7-.83,1.57-1.23,2.62-1.23.97,0,1.81.35,2.51,1.05.67.67,1.01,1.49,1.01,2.47v47.92c0,.97-.34,1.81-1.01,2.51-.7.67-1.54,1.01-2.51,1.01s-1.77-.34-2.47-1.01c-.67-.7-1.01-1.54-1.01-2.51v-33.44l-10.25,20.01ZM331.55,276.67v48.11c0,.97-.34,1.81-1.01,2.51-.7.67-1.52,1.01-2.47,1.01s-1.81-.34-2.51-1.01c-.67-.7-1.01-1.54-1.01-2.51v-48.11c0-.97.34-1.8,1.01-2.47.7-.67,1.54-1.01,2.51-1.01s1.77.34,2.47,1.01c.67.67,1.01,1.49,1.01,2.47ZM309.58,306.75c-1.72-2.27-3.99-3.44-6.81-3.52-4.04-.07-7.47-1.51-10.29-4.3-2.84-2.79-4.26-6.2-4.26-10.21v-1.05c0-4.01,1.41-7.44,4.23-10.29,2.79-2.82,6.17-4.23,10.14-4.23h.23c3.12,0,5.92.92,8.41,2.77,2.47,1.82,4.19,4.18,5.16,7.07.37,1.15.2,2.22-.52,3.22-.7.97-1.64,1.46-2.84,1.46h-.04c-1.67,0-2.77-.79-3.29-2.36-.5-1.47-1.37-2.67-2.62-3.59-1.27-.94-2.69-1.42-4.26-1.42h-.23c-2.02,0-3.73.73-5.12,2.17-1.42,1.42-2.13,3.16-2.13,5.2v1.16c0,2.02.72,3.73,2.17,5.13,1.42,1.4,3.14,2.09,5.16,2.09,4.99.03,9.07,2,12.23,5.91,3.22,3.97,4.3,8.51,3.25,13.62-.74,3.72-2.62,6.77-5.61,9.16-2.97,2.37-6.36,3.55-10.18,3.55h-.03c-3.54,0-6.73-1.09-9.58-3.26-2.77-2.12-4.65-4.85-5.65-8.19-.35-1.17-.17-2.24.53-3.21.69-.97,1.64-1.46,2.84-1.46,1.77,0,2.89.83,3.37,2.51.55,1.87,1.6,3.4,3.15,4.6,1.57,1.22,3.35,1.83,5.35,1.83h.15c2.02,0,3.83-.6,5.42-1.8,1.62-1.22,2.69-2.79,3.22-4.71.75-2.92.24-5.54-1.53-7.86ZM260.26,318.12c1.47,1.8,3.33,2.83,5.58,3.11,2.67.32,5.01-.4,7.03-2.17,2-1.77,2.99-3.99,2.99-6.66v-35.73c0-.97.34-1.81,1.01-2.51.68-.67,1.5-1.01,2.47-1.01s1.79.34,2.47,1.01c.7.7,1.05,1.53,1.05,2.51v35.73c0,4.51-1.65,8.34-4.94,11.48-3.27,3.14-7.17,4.6-11.71,4.38-4.26-.2-7.87-1.91-10.81-5.12-2.89-3.17-4.34-6.91-4.34-11.22v-35.24c0-.97.34-1.81,1.01-2.51.7-.67,1.54-1.01,2.51-1.01s1.77.34,2.47,1.01c.67.7,1.01,1.53,1.01,2.51v35.38c0,2.3.73,4.32,2.2,6.06ZM261.64,264.18l3.82-7.29c.45-.85,1.13-1.41,2.06-1.69.92-.3,1.81-.23,2.66.23.85.45,1.42,1.13,1.72,2.06.3.92.22,1.81-.23,2.66l-3.82,7.29c-.45.85-1.13,1.41-2.06,1.69-.92.3-1.82.22-2.69-.23-.85-.45-1.41-1.14-1.68-2.06-.3-.92-.23-1.8.22-2.66ZM245.84,309.48v15.3c0,.97-.35,1.81-1.05,2.51-.68.67-1.5,1.01-2.47,1.01s-1.8-.34-2.47-1.01c-.68-.7-1.01-1.54-1.01-2.51v-15.3c0-1.97-.71-3.65-2.13-5.05-1.4-1.4-3.08-2.09-5.05-2.09h-7.97v22.45c0,.97-.34,1.81-1.01,2.51-.7.67-1.52,1.01-2.47,1.01s-1.81-.34-2.51-1.01c-.67-.7-1.01-1.54-1.01-2.51v-47.51c0-.97.34-1.8,1.01-2.47.7-.68,1.54-1.01,2.51-1.01h11.45c3.92,0,7.26,1.38,10.02,4.15,2.77,2.77,4.15,6.09,4.15,9.98v.23c0,4.29-1.63,7.84-4.9,10.66,3.27,2.84,4.9,6.4,4.9,10.66ZM210.36,311.99v.3c0,4.39-1.51,8.14-4.52,11.26-3.02,3.14-6.67,4.72-10.96,4.75h-11.48c-.97,0-1.81-.35-2.51-1.05-.67-.7-1.01-1.55-1.01-2.55v-47.32c0-1,.34-1.85,1.01-2.55.7-.7,1.54-1.05,2.51-1.05h11.45c3.92,0,7.26,1.42,10.02,4.26,2.77,2.84,4.15,6.29,4.15,10.33v.23c0,4.29-1.56,7.88-4.68,10.77,4.01,3.22,6.02,7.42,6.02,12.61ZM143.86,287.34c0-1.47.23-2.92.68-4.34.07-.25.09-.31.03-.19,1.55-4.56,4.61-7.55,9.21-8.98.02,0,.06-.01.11-.04.37-.1.76-.2,1.16-.3h.11c.07-.03.12-.04.15-.04.35-.07.71-.14,1.09-.19l.26-.04c.5-.02.95-.03,1.35-.03h.26c.4,0,.83.01,1.31.03l.3.04c.37.05.74.11,1.09.19.03,0,.06.01.11.04h.15c.4.1.78.2,1.16.3.03.03.05.04.08.04,4.59,1.42,7.65,4.41,9.2,8.98.02.03.04.06.04.11v.07c.47,1.42.71,2.87.71,4.34v37.44c0,.97-.35,1.81-1.05,2.51-.67.67-1.49,1.01-2.47,1.01s-1.8-.34-2.47-1.01c-.67-.7-1.01-1.54-1.01-2.51v-22.45h-14.55v22.45c0,.97-.34,1.81-1.01,2.51-.7.67-1.52,1.01-2.47,1.01s-1.81-.34-2.51-1.01c-.67-.7-1.01-1.54-1.01-2.51v-37.44ZM118.93,217.78c6.84,0,12.39,5.56,12.39,12.39s-5.56,12.39-12.39,12.39-12.39-5.56-12.39-12.39,5.56-12.39,12.39-12.39ZM105.39,276.67c0-.97.34-1.8,1.01-2.47.7-.7,1.53-1.05,2.51-1.05,1.1,0,2,.45,2.73,1.34v.04c.1.1.19.24.26.41.03,0,.05.01.08.03,0,.05,0,.08.03.08l17.39,34.86v-33.25c0-.97.34-1.8,1.01-2.47.67-.7,1.49-1.05,2.47-1.05s1.8.35,2.47,1.05c.7.67,1.05,1.49,1.05,2.47v48.11c0-.08-.01-.01-.04.19,0,.15-.01.29-.04.41v.08c-.22,1.12-.83,1.93-1.83,2.43-.88.45-1.76.52-2.66.23-.92-.3-1.61-.87-2.06-1.72l-17.39-34.87v33.26c0,.97-.34,1.8-1.01,2.47-.7.7-1.52,1.05-2.47,1.05s-1.81-.35-2.51-1.05c-.67-.67-1.01-1.5-1.01-2.47v-48.11ZM118.93,382.22c-6.83,0-12.39-5.56-12.39-12.39s5.56-12.39,12.39-12.39,12.39,5.56,12.39,12.39-5.56,12.39-12.39,12.39ZM197.38,386.82c-.52,2.58-1.83,4.73-3.91,6.39-2.06,1.64-4.43,2.47-7.07,2.47h-.03c-2.45,0-4.69-.76-6.67-2.26-1.92-1.47-3.23-3.38-3.92-5.7-.3-1-.14-1.97.46-2.81.6-.84,1.48-1.29,2.52-1.29,1.52,0,2.58.79,2.98,2.23.3,1.03.87,1.86,1.73,2.52.86.67,1.81,1,2.91,1h.1c1.12,0,2.09-.32,2.97-.98.89-.68,1.47-1.52,1.75-2.57.42-1.62.14-3.03-.83-4.32-.95-1.25-2.17-1.88-3.72-1.92-2.81-.05-5.23-1.06-7.19-3-1.99-1.96-3-4.37-3-7.17v-.67c0-2.8,1-5.23,2.96-7.21,1.95-1.97,4.35-2.97,7.12-2.97h.14c2.18,0,4.17.66,5.91,1.95,1.72,1.27,2.94,2.94,3.62,4.96.33,1,.17,1.98-.45,2.83-.6.85-1.48,1.29-2.54,1.29-1.43,0-2.47-.74-2.92-2.09-.27-.79-.72-1.41-1.39-1.9-.67-.5-1.4-.74-2.23-.74h-.14c-1.07,0-1.95.37-2.69,1.14-.75.76-1.12,1.65-1.12,2.74v.74c0,1.07.37,1.95,1.14,2.69.75.74,1.64,1.1,2.72,1.1,3.46.02,6.32,1.4,8.52,4.11,2.23,2.75,2.99,5.93,2.26,9.45ZM206.15,394.8s-.02-.02-.03-.03c-.58-.61-.88-1.35-.88-2.2v-30.91c0-.85.3-1.59.91-2.2.61-.59,1.35-.89,2.2-.89s1.57.3,2.18.9c.6.6.9,1.33.9,2.19v30.91c0,.85-.3,1.59-.89,2.2l-.02.02c-.61.59-1.34.89-2.17.89s-1.59-.3-2.2-.88ZM388.48,413.37l-73.37,24.24c-4.89,1.61-10.03,2.42-15.17,2.42s-10.27-.81-15.16-2.42l-73.37-24.24c-1.89-.63-2.92-2.67-2.3-4.57.5-1.52,1.92-2.48,3.43-2.48.38,0,.76.06,1.14.18l73.37,24.24c8.32,2.75,17.48,2.75,25.8,0l73.37-24.24c1.9-.63,3.95.4,4.57,2.3.12.37.18.76.18,1.14,0,1.52-.96,2.93-2.49,3.43ZM219.94,392.57v-30.91c0-.85.3-1.59.9-2.19.62-.61,1.36-.92,2.21-.92.96,0,1.79.41,2.42,1.18.03.04.06.09.09.14.03.04.06.09.09.13.07.08.12.16.17.26l9.56,19.16v-17.75c0-.86.3-1.59.89-2.18.59-.61,1.35-.93,2.2-.93s1.6.32,2.18.92c.61.59.92,1.33.92,2.19v30.89c0,.07,0,.13-.02.19,0,.1-.01.2-.03.29,0,.04,0,.09-.02.13-.2.98-.76,1.72-1.62,2.15-.46.24-.93.36-1.41.36-.32,0-.64-.05-.95-.16-.8-.26-1.41-.77-1.81-1.52,0,0,0-.01,0-.02l-9.56-19.16v17.75c0,.86-.3,1.59-.9,2.19-.61.61-1.34.92-2.18.92s-1.6-.31-2.22-.92c-.59-.6-.89-1.34-.89-2.19ZM256.64,388.39c.74.74,1.61,1.09,2.67,1.09h.14c.81,0,1.53-.24,2.2-.73.66-.47,1.1-1.06,1.35-1.82.45-1.33,1.49-2.07,2.92-2.07,1.02,0,1.89.44,2.51,1.28.61.83.76,1.78.44,2.77-.67,1.97-1.87,3.6-3.57,4.83-1.73,1.27-3.69,1.92-5.84,1.92h-.14c-2.74,0-5.1-.98-7.04-2.92-1.94-1.94-2.92-4.3-2.92-7.04v-17.21c0-2.72.98-5.09,2.92-7.01,1.94-1.94,4.3-2.92,7.04-2.92h.14c2.15,0,4.11.63,5.84,1.89,1.71,1.24,2.91,2.88,3.58,4.86.32.97.17,1.92-.43,2.77,0,0,0,.01-.01.02-.62.82-1.49,1.25-2.5,1.25-1.43,0-2.47-.72-2.92-2.05-.25-.76-.69-1.36-1.34-1.83-.66-.47-1.37-.7-2.2-.7h-.14c-1.06,0-1.93.36-2.67,1.09-.74.74-1.09,1.6-1.09,2.64v17.21c0,1.06.36,1.93,1.09,2.67ZM289.86,373.23c.85,0,1.59.3,2.21.9.6.6.9,1.33.9,2.19s-.3,1.6-.9,2.18c-.61.62-1.35.93-2.21.93h-7.32v10.05h8.76c.85,0,1.6.31,2.18.9.62.61.93,1.34.93,2.19s-.31,1.6-.93,2.21c-.58.59-1.34.9-2.18.9h-11.85c-.85,0-1.59-.3-2.2-.88,0,0-.02-.02-.03-.03-.58-.61-.88-1.35-.88-2.2v-30.06c0-.83.3-1.57.89-2.18l.02-.02c.61-.59,1.36-.89,2.2-.89h11.85c.85,0,1.6.31,2.18.9.62.61.93,1.35.93,2.19s-.32,1.6-.93,2.18c-.58.6-1.34.92-2.18.92h-8.76v7.62h7.32ZM338.8,389.48c.86,0,1.6.3,2.19.91.59.61.89,1.34.89,2.17s-.3,1.59-.9,2.21c-.59.6-1.33.9-2.18.9h-13.57c-.56-.03-1.08-.17-1.55-.46,0,0-.02-.01-.03-.02-.69-.46-1.15-1.11-1.34-1.92-.2-.82-.06-1.63.39-2.34,9.01-14.39,12.31-19.65,12.38-19.79,0,0,.01-.02.02-.03.48-.74.66-1.52.57-2.4-.08-.87-.41-1.6-1.02-2.22l-.08-.06s-.05-.04-.07-.07c-.74-.74-1.6-1.1-2.62-1.1-.49,0-1.11.15-1.85.46-.88.46-1.46,1.14-1.78,2.09-.44,1.32-1.47,2.05-2.9,2.05-1.04,0-1.91-.44-2.51-1.26-.63-.85-.79-1.8-.46-2.78.64-1.86,1.76-3.43,3.32-4.65,1.59-1.23,3.4-1.92,5.39-2.07.04,0,.09-.02.14-.02.04,0,.07,0,.11,0h.54c2.73,0,5.09.97,7.03,2.9l.11.11c1.73,1.73,2.69,3.83,2.86,6.26.18,2.41-.43,4.61-1.82,6.55l-9.05,14.59h7.82ZM349.65,385.55v-16.8c0-2.78.98-5.19,2.91-7.16,1.94-1.97,4.31-2.97,7.05-2.97h.14c2.72,0,5.09,1,7.03,2.97,1.93,1.97,2.91,4.38,2.91,7.16v16.8c0,2.78-.98,5.19-2.91,7.16-1.94,1.97-4.3,2.97-7.03,2.97h-.14c-2.74,0-5.11-1-7.05-2.97-1.93-1.97-2.91-4.38-2.91-7.16ZM396.26,394.78c-.6.59-1.34.89-2.19.89h-13.56c-.56-.03-1.08-.17-1.55-.46,0,0-.02-.01-.03-.02-.7-.46-1.15-1.11-1.35-1.92-.2-.81-.06-1.62.39-2.34,10.29-16.44,12.38-19.77,12.41-19.82.47-.74.66-1.52.57-2.4-.08-.88-.41-1.61-1.02-2.23l-.08-.06s-.05-.04-.07-.07c-.74-.74-1.6-1.1-2.62-1.1-.48,0-1.11.15-1.86.46-.88.46-1.46,1.14-1.78,2.08-.43,1.32-1.46,2.06-2.9,2.06-1.04,0-1.91-.44-2.51-1.26-.64-.85-.8-1.81-.46-2.78.64-1.86,1.75-3.43,3.31-4.65,1.59-1.23,3.4-1.93,5.39-2.07.04,0,.09-.02.14-.02.04,0,.07,0,.11,0h.54c2.73,0,5.09.97,7.02,2.9l.11.11c1.73,1.72,2.69,3.83,2.87,6.26.17,2.41-.44,4.61-1.82,6.54l-9.05,14.59h7.81c.86,0,1.59.3,2.2.91.6.61.89,1.34.89,2.17s-.3,1.59-.9,2.22ZM421.28,389.48c.86,0,1.59.3,2.2.91.59.61.89,1.34.89,2.17s-.3,1.59-.88,2.2c0,0-.01.01-.02.02-.6.59-1.34.89-2.19.89h-13.57c-.56-.03-1.08-.17-1.55-.46,0,0-.02-.01-.03-.02-.69-.46-1.15-1.11-1.34-1.92-.2-.81-.06-1.62.39-2.34,10.67-17.03,12.38-19.78,12.41-19.82.47-.74.66-1.52.56-2.4-.08-.87-.41-1.6-1.02-2.22l-.08-.06s-.05-.04-.07-.07c-.74-.74-1.6-1.1-2.62-1.1-.49,0-1.11.15-1.86.46-.88.46-1.46,1.14-1.78,2.09-.44,1.32-1.47,2.05-2.9,2.05-1.03,0-1.9-.43-2.51-1.26-.63-.85-.79-1.8-.46-2.78.64-1.86,1.75-3.42,3.32-4.65,1.59-1.23,3.4-1.92,5.39-2.07.05,0,.1-.02.15-.03.03,0,.07,0,.1,0h.54c2.73,0,5.09.97,7.02,2.9l.11.11c1.73,1.73,2.69,3.83,2.86,6.26.18,2.41-.43,4.61-1.82,6.55l-9.05,14.59h7.82ZM481.06,382.22c-6.83,0-12.39-5.56-12.39-12.39s5.56-12.39,12.39-12.39,12.39,5.56,12.39,12.39-5.56,12.39-12.39,12.39ZM491.01,346.61H108.99c-.99,0-1.89-.4-2.55-1.06-.65-.66-1.06-1.56-1.06-2.56,0-2,1.61-3.62,3.6-3.62h382.01c.99,0,1.89.4,2.55,1.06.65.65,1.06,1.56,1.06,2.56,0,2-1.61,3.62-3.6,3.62Z"/>
        <path class="cls-2" d="M294.91,211.2c-13,.09-26.54.32-39.71.55-15.47.27-31.47.55-46.92.6-21.68.06-39.81,4.29-45.31,11.06-5.14,6.31-6.79,15.59.46,22.66,2.84,2.77,8.24,4.29,15.2,4.29,3.81,0,6.75-.47,7.08-.53,5.7-1.1,10.35-3.53,14.84-5.88,5.86-3.06,11.92-6.23,19.68-6.23.86,0,1.74.04,2.61.12,7.78.71,15.84,1.08,23.95,1.08,21.63,0,39.33-2.58,48.33-4.21.52-.09.9-.55.9-1.08v-21.34c0-.61-.49-1.1-1.1-1.1ZM183.27,238.09c-2.97,0-5.37-2.4-5.37-5.37s2.4-5.37,5.37-5.37,5.37,2.4,5.37,5.37-2.4,5.37-5.37,5.37ZM222.94,229.58c-2.97,0-5.37-2.4-5.37-5.37s2.4-5.37,5.37-5.37,5.37,2.4,5.37,5.37-2.4,5.37-5.37,5.37ZM262.61,229.58c-2.97,0-5.37-2.4-5.37-5.37s2.4-5.37,5.37-5.37,5.37,2.4,5.37,5.37-2.4,5.37-5.37,5.37Z"/>
        <g>
          <path class="cls-2" d="M481.06,236.18c3.32,0,6.01-2.69,6.01-6.01s-2.69-6.01-6.01-6.01-6.01,2.7-6.01,6.01,2.69,6.01,6.01,6.01Z"/>
          <path class="cls-2" d="M481.06,363.82c-3.31,0-6.01,2.7-6.01,6.01s2.69,6.01,6.01,6.01,6.01-2.7,6.01-6.01-2.69-6.01-6.01-6.01Z"/>
          <path class="cls-2" d="M194.8,303.19h-7.93v17.88h7.93c2.35,0,4.36-.86,6.06-2.58,1.67-1.72,2.51-3.79,2.51-6.21v-.3c0-2.42-.84-4.49-2.51-6.21-1.7-1.72-3.72-2.58-6.06-2.58Z"/>
          <path class="cls-2" d="M165.41,287.34c0-.95-.19-1.86-.56-2.73l-.04-.07c-.27-.62-.62-1.2-1.04-1.72,0,0-.03-.05-.08-.12-.23-.25-.48-.5-.75-.75-.1-.07-.17-.14-.23-.19-.15-.12-.3-.23-.45-.34-.15-.1-.31-.2-.49-.3-.15-.08-.32-.16-.52-.26-.17-.07-.35-.15-.52-.22-.2-.08-.31-.11-.34-.11-.27-.1-.56-.17-.86-.23-.05,0-.15,0-.3-.03-.35-.05-.66-.08-.94-.08h-.34c-.28,0-.59.03-.94.08-.15.03-.25.03-.3.03-.3.05-.59.13-.86.23l-.37.11c-.17.07-.34.15-.49.22-.23.1-.4.19-.52.26-.2.1-.36.2-.49.3-.15.1-.3.21-.45.34-.03,0-.1.06-.23.19-.27.25-.52.5-.75.75-.03.03-.03.05-.03.08-.03.02-.05.03-.08.03-.43.52-.76,1.1-1.01,1.72,0-.03-.01,0-.04.07-.37.87-.56,1.78-.56,2.73v8.01h14.55v-8.01Z"/>
          <path class="cls-2" d="M118.93,236.18c3.32,0,6.01-2.69,6.01-6.01s-2.69-6.01-6.01-6.01-6.01,2.7-6.01,6.01,2.69,6.01,6.01,6.01Z"/>
          <path class="cls-2" d="M118.93,363.82c-3.31,0-6.01,2.7-6.01,6.01s2.69,6.01,6.01,6.01,6.01-2.7,6.01-6.01-2.69-6.01-6.01-6.01Z"/>
          <path class="cls-2" d="M359.75,389.48c1.04,0,1.9-.37,2.63-1.13.75-.77,1.11-1.69,1.11-2.8v-16.8c0-1.09-.37-2.01-1.11-2.8-.73-.76-1.59-1.13-2.63-1.13h-.14c-1.05,0-1.92.37-2.65,1.13-.75.79-1.11,1.7-1.11,2.8v16.8c0,1.11.36,2.03,1.11,2.8.74.76,1.6,1.13,2.66,1.13h.14Z"/>
          <path class="cls-2" d="M199.92,293.81c1.4-1.44,2.09-3.18,2.09-5.2v-.23c0-2.04-.71-3.79-2.13-5.24-1.4-1.44-3.08-2.17-5.05-2.17h-7.97v15h7.97c1.97,0,3.66-.72,5.09-2.17Z"/>
          <path class="cls-2" d="M231.66,280.79h-7.97v14.55h7.97c1.97,0,3.65-.7,5.05-2.09,1.42-1.4,2.13-3.09,2.13-5.09v-.23c0-1.97-.71-3.65-2.13-5.05-1.4-1.4-3.08-2.09-5.05-2.09Z"/>
        </g>
        <path class="cls-2" d="M511.23,202.16l-179.9-63.14c-10.1-3.55-20.71-5.32-31.32-5.32s-21.22,1.77-31.32,5.32l-179.9,63.14c-18.78,6.59-31.4,24.61-31.4,44.85v105.99c0,20.23,12.62,38.25,31.4,44.85l179.9,63.15c10.1,3.54,20.71,5.31,31.32,5.31s21.23-1.77,31.32-5.31l179.9-63.15c18.78-6.59,31.4-24.61,31.4-44.85v-105.99c0-20.23-12.62-38.25-31.4-44.85ZM534.15,353c0,16.68-10.35,31.53-25.76,36.94l-179.9,63.15c-9.14,3.21-18.72,4.83-28.49,4.83s-19.36-1.63-28.49-4.83l-179.9-63.15c-15.41-5.41-25.76-20.26-25.76-36.94v-105.99c0-16.68,10.35-31.53,25.76-36.94l179.9-63.14c9.14-3.21,18.73-4.84,28.49-4.84s19.35,1.63,28.49,4.84l179.9,63.14c15.41,5.41,25.76,20.26,25.76,36.94v105.99Z"/>
      </g>
    </g>
  </g>
</svg>