<?xml version="1.0" encoding="UTF-8"?>
<svg id="Layer_2" data-name="Layer 2" xmlns="http://www.w3.org/2000/svg" viewBox="0 0 600 600">
  <defs>
    <style>
      .cls-1 {
        fill: #3174c4;
      }

      .cls-1, .cls-2 {
        stroke-width: 0px;
      }

      .cls-2 {
        fill: #fff;
      }
    </style>
  </defs>
  <g id="LOGOS">
    <g>
      <rect class="cls-1" width="600" height="600" rx="30" ry="30"/>
      <g>
        <g>
          <g>
            <path class="cls-2" d="M188.2,255.66c-.42,0-.83-.23-1.04-.64l-9.63-18.9c-.29-.57-.06-1.27.51-1.57,1.83-.93,2.73-1.38,4.59-2.28.28-.13.6-.15.89-.05.29.1.53.31.67.59l2.47,5.08c11.83-5.57,24.11-10.37,36.55-14.3,1.44-3.05,2.25-4.68,3.88-7.85.15-.29.41-.5.72-.59,2.47-.69,3.68-1.01,6.18-1.64.45-.11.93.05,1.21.42s.32.87.09,1.28c-1.99,3.54-3.9,7.17-5.71,10.78,3.73,2.66,7.43,5.41,11,8.19.35.27.52.72.43,1.16-.09.44-.42.78-.86.89-2.33.59-3.47.89-5.79,1.53-.35.1-.72.03-1.01-.19-2.55-1.91-5.19-3.78-7.84-5.58-11.92,3.78-23.71,8.39-35.05,13.73l2.99,6.16c.28.58.04,1.28-.54,1.56-1.69.82-2.51,1.23-4.19,2.08-.17.09-.35.13-.53.13ZM180.13,236.1l8.57,16.83c.76-.38,1.38-.69,2.14-1.07l-3-6.18c-.14-.28-.15-.6-.05-.89.1-.29.32-.53.6-.67,11.94-5.68,24.37-10.56,36.95-14.52.34-.11.71-.05,1,.15,2.68,1.81,5.34,3.7,7.93,5.62,1.16-.32,2.03-.56,2.97-.8-3.22-2.46-6.52-4.9-9.85-7.25-.47-.33-.62-.95-.37-1.47,1.55-3.14,3.19-6.3,4.89-9.41-.95.25-1.84.49-3.02.82-1.54,3-2.33,4.61-3.83,7.78-.14.29-.39.52-.71.62-13.05,4.09-25.4,8.94-37.77,14.83-.58.28-1.27.03-1.55-.54l-2.46-5.07c-.89.43-1.58.78-2.46,1.23Z"/>
            <path class="cls-2" d="M260.29,232.02c-.56,0-1.05-.41-1.15-.98l-3.37-20.63c-.05-.3.02-.62.2-.87.18-.25.45-.42.76-.47,2.12-.35,3.16-.51,5.29-.81.64-.09,1.23.35,1.32.99l2.96,20.7c.04.31-.04.62-.22.86-.19.25-.46.41-.77.45-1.94.28-2.89.42-4.83.74-.06.01-.13.02-.19.02ZM258.25,211.18l3,18.34c.92-.15,1.65-.26,2.57-.39l-2.63-18.39c-1.06.15-1.88.28-2.94.45Z"/>
            <path class="cls-2" d="M331.73,230.72c-.8,0-1.64-.05-2.53-.16-14.12-1.56-27.9-2.02-42.11-1.4-.65.03-1.18-.46-1.21-1.1l-1.12-21.15c-.02-.31.09-.61.3-.84.21-.23.5-.37.81-.38,15.33-.68,30.84-.16,46.09,1.53,1.68.2,3.2.54,4.54,1.01,1.37.48,2.51,1.08,3.39,1.79.86.69,1.58,1.43,2.15,2.22.6.83,1.01,1.74,1.24,2.71.21.89.32,1.77.34,2.61.02.83-.05,1.71-.2,2.63l-.14.84c-.18,1.06-.44,2.06-.79,2.97-.36.94-.91,1.9-1.64,2.84-.75.96-1.64,1.76-2.67,2.37-1.02.61-2.29,1.04-3.88,1.31-.82.14-1.67.21-2.58.21ZM299.2,226.56c10.09,0,20.08.56,30.26,1.69,1.67.2,3.17.19,4.46-.03,1.28-.22,2.32-.56,3.08-1.01.77-.46,1.45-1.06,2.02-1.79.59-.76,1.03-1.52,1.3-2.24.29-.77.52-1.62.67-2.53l.14-.84h0c.13-.77.18-1.51.17-2.19-.02-.69-.11-1.41-.28-2.14-.15-.67-.44-1.29-.86-1.87-.45-.62-1.03-1.21-1.72-1.77-.68-.54-1.59-1.02-2.71-1.41-1.18-.41-2.54-.71-4.04-.89-14.74-1.64-29.72-2.17-44.55-1.57l.99,18.83c3.71-.15,7.4-.22,11.07-.22ZM331.03,225.6c-.55,0-1.11-.05-1.67-.15-12.4-1.36-25.01-1.89-37.49-1.6-.63.02-1.17-.49-1.19-1.13l-.36-11.07c-.01-.31.1-.61.32-.84s.51-.36.82-.36c13.13-.32,26.41.24,39.47,1.68,2.45.15,4.68,1.21,5.96,2.85,1.05,1.35,1.42,3,1.08,4.77l-.02.12c-.18,1.79-.99,3.27-2.35,4.3-1.23.93-2.84,1.42-4.57,1.42ZM298.57,221.44c10.37,0,20.8.57,31.08,1.69.03,0,.05,0,.08.01,1.69.31,3.36,0,4.46-.83.84-.64,1.33-1.54,1.44-2.69,0-.02,0-.04,0-.05l.02-.17s0-.04,0-.05c.22-1.12,0-2.11-.63-2.92-.86-1.11-2.5-1.86-4.28-1.96-.02,0-.04,0-.06,0-12.57-1.39-25.36-1.96-38.01-1.7l.28,8.74c1.86-.04,3.73-.06,5.6-.06Z"/>
            <path class="cls-2" d="M409.48,253.18c-.76,0-1.62-.11-2.6-.33-1.26-.28-2.61-.76-4.14-1.47-10.73-4.85-21.87-9.05-33.12-12.48-1.65-.49-3.01-1.08-4.15-1.8-1.19-.75-2.05-1.5-2.64-2.27-.59-.79-1.01-1.67-1.23-2.62-.22-.93-.3-1.73-.26-2.44.04-.67.16-1.36.34-2.07l.08-.3c.08-.3.27-.56.53-.71.27-.16.58-.2.88-.13,1.1.28,1.9.49,2.71.71-1.78-1.69-2.79-4.03-2.11-6.86l.07-.27c.19-.75.45-1.43.77-2.03.35-.66.86-1.27,1.53-1.82.67-.56,1.48-.97,2.39-1.22.88-.24,1.98-.33,3.28-.27,1.28.07,2.71.33,4.25.79,12.36,3.75,24.6,8.34,36.39,13.64,1.54.71,2.86,1.49,3.94,2.32,1.09.84,1.92,1.67,2.46,2.48.56.83.93,1.7,1.11,2.61.17.89.18,1.72.04,2.48-.14.71-.38,1.43-.74,2.14l-.13.25c-.14.28-.38.48-.68.58-.29.1-.61.07-.89-.07-.72-.36-1.3-.66-1.86-.93.3.36.55.73.75,1.1,1.01,1.86.94,3.95-.21,6.2l-.18.35c-.39.76-.81,1.43-1.26,1.98-.48.59-1.12,1.12-1.9,1.58-.8.47-1.7.76-2.66.87-.24.03-.49.04-.75.04ZM363.76,229.11c-.05.28-.08.55-.09.81-.03.47.04,1.06.2,1.75.15.65.42,1.22.83,1.76.4.54,1.08,1.11,2.02,1.7.95.6,2.15,1.12,3.58,1.54,11.35,3.46,22.59,7.7,33.41,12.59,1.37.63,2.6,1.07,3.68,1.31,1.06.24,1.93.32,2.6.25.65-.07,1.21-.25,1.73-.56.54-.32.97-.67,1.28-1.05.35-.42.68-.95.99-1.56l.18-.35s0,0,0,0c.79-1.55.87-2.87.24-4.04-.71-1.32-2.45-2.69-5.02-3.96-.57-.28-.86-.42-1.45-.7-11.22-5.04-22.89-9.43-34.67-13.02-1.17-.37-2.04-.74-2.65-1.15-.77-.51-1.2-.97-1.38-1.49-.17-.49-.18-1.03-.02-1.61.16-.59.44-1.05.81-1.37.44-.38,1.08-.54,2.13-.54.88,0,1.81.16,3.1.54,11.89,3.63,23.68,8.05,35.04,13.14.88.4,1.38.73,1.95,1.15.62.46,1.07.88,1.36,1.27.33.43.54.9.65,1.4.07.35.11.64.1.9,1.19.57,2.04.99,3.16,1.56.08-.24.14-.47.19-.71.09-.46.07-1-.04-1.6-.11-.59-.36-1.18-.75-1.74-.41-.6-1.07-1.25-1.96-1.94-.94-.72-2.11-1.41-3.48-2.04-11.69-5.26-23.84-9.81-36.09-13.53-1.36-.4-2.6-.63-3.7-.69-1.04-.06-1.89,0-2.53.18-.59.16-1.1.42-1.53.77-.43.35-.75.73-.95,1.12-.23.44-.42.95-.57,1.52l-.06.25c-.95,3.96,2.96,6.09,5.43,6.71.02,0,.05.01.07.02.47.15.7.23,1.17.38,11.75,3.6,23.42,8.01,34.67,13.1.01,0,.03.01.04.02,1.22.61,2.1,1.17,2.71,1.72.73.66,1.12,1.26,1.21,1.86.08.55-.03,1.15-.33,1.77-.21.43-.48.79-.8,1.07-.36.31-.82.51-1.41.62-.56.1-1.24.04-2.09-.19-.77-.21-1.25-.37-2.22-.81-10.83-4.88-22.08-9.12-33.42-12.59-2.95-.88-4.35-2.42-4.26-4.7-1.12-.31-1.96-.53-3.05-.81ZM369.22,229.37c-.26,1.21-.22,2.21,2.52,3.02,11.45,3.5,22.79,7.78,33.72,12.7.86.4,1.23.51,1.86.68.7.19.99.16,1.06.15.24-.05.32-.1.33-.1.04-.04.12-.13.21-.3.1-.2.12-.32.12-.37-.04-.06-.16-.23-.47-.52-.3-.27-.92-.73-2.17-1.35-11.14-5.05-22.71-9.42-34.39-12.99-.47-.15-.7-.23-1.14-.37-.55-.14-1.1-.32-1.64-.54ZM371.42,222.13c.06.06.19.18.47.37.42.28,1.12.57,2.06.87,11.86,3.61,23.62,8.03,34.96,13.13.61.3.91.44,1.49.73.55.27,1.07.55,1.55.83.05-.15.06-.25.07-.3,0,0,0,0,0,0,0,0,0-.1-.05-.36-.03-.16-.11-.31-.22-.46-.09-.12-.32-.38-.89-.8-.47-.35-.82-.57-1.52-.89-11.26-5.05-22.96-9.44-34.75-13.03-1.05-.31-1.78-.45-2.42-.44-.34,0-.54.02-.65.04-.02.04-.04.09-.06.17-.02.08-.03.14-.03.17Z"/>
          </g>
          <g>
            <path class="cls-2" d="M226.93,436.74c-1.13,0-2.34-.13-3.6-.38-11.12-2.29-22.28-5.04-33.19-8.17-1.38-.4-2.62-.93-3.69-1.55-1.08-.63-1.97-1.32-2.65-2.03-.68-.72-1.23-1.53-1.66-2.4-.42-.86-.7-1.71-.84-2.51-.13-.77-.19-1.58-.17-2.41.02-.82.1-1.57.23-2.22.13-.62.29-1.24.49-1.85l.26-.79c.3-.92.66-1.79,1.06-2.59.42-.82,1.05-1.7,1.86-2.6.83-.92,1.79-1.66,2.83-2.2,1.07-.55,2.38-.86,4-.94,1.56-.08,3.28.15,5.13.69,10.23,2.94,20.71,5.52,31.13,7.66,1.81.36,3.41.91,4.73,1.63,1.38.75,2.4,1.53,3.11,2.39.7.84,1.23,1.77,1.6,2.77.37,1.01.56,1.87.59,2.65.03.73-.01,1.44-.12,2.1l-.05.31c-.05.3-.22.58-.47.75-.25.18-.56.25-.87.2-2.15-.37-3.19-.55-5.31-.94-.55-.1-.95-.58-.95-1.14,0-.17-.01-.32-.03-.45,0-.01-.04-.18-.25-.68-.13-.31-.31-.58-.53-.81-.16-.17-.51-.44-1.22-.82-.59-.31-1.31-.54-2.13-.71-4.62-.92-9.47-2.3-14.15-3.64-7.05-2.01-13.71-3.91-19.48-4.31-.38-.03-.95.17-1.38.49-.44.32-.8.7-1.07,1.11-.29.44-.53.96-.71,1.55l-.1.33c-.17.54-.25,1.1-.25,1.64,0,.54.1,1.11.3,1.69.19.56.57,1.11.91,1.31,6.63,3.94,16.92,5.84,26.87,7.67,2.54.47,4.93.91,7.26,1.38,4.08.83,4.98-1.17,5.27-1.83,0-.02.02-.04.03-.05.09-.2.23-.38.41-.51.25-.18.57-.24.87-.19,2.14.4,3.18.58,5.34.95.63.11,1.06.71.95,1.34l-.05.31c-.12.71-.33,1.43-.63,2.14-.31.74-.82,1.54-1.52,2.36-.71.84-1.58,1.54-2.57,2.09-1.01.56-2.33.94-3.93,1.13-.52.06-1.07.09-1.63.09ZM192.49,406.42c-.17,0-.34,0-.51.01-1.27.07-2.3.3-3.06.69-.79.4-1.52.97-2.16,1.68-.68.75-1.19,1.45-1.51,2.09-.35.69-.66,1.44-.92,2.25l-.26.79c-.17.52-.31,1.06-.42,1.59-.11.52-.17,1.12-.18,1.8-.02.68.03,1.34.14,1.96.1.59.32,1.23.64,1.9.32.66.74,1.27,1.25,1.82.52.56,1.24,1.1,2.13,1.62.91.53,1.98.98,3.17,1.33,10.85,3.11,21.95,5.85,33.01,8.13,1.64.33,3.16.42,4.5.26,1.3-.15,2.33-.44,3.08-.85.75-.41,1.39-.94,1.93-1.56.54-.64.93-1.22,1.15-1.75.11-.27.21-.53.29-.8-1.19-.2-2.08-.36-3.32-.59-1.06,1.73-3.2,3.28-7.47,2.41-2.31-.47-4.69-.91-7.22-1.37-10.15-1.87-20.65-3.8-27.64-7.96-.98-.58-1.64-1.71-1.92-2.57-.27-.82-.41-1.63-.42-2.42,0-.78.12-1.57.35-2.34l.1-.33c.25-.79.58-1.51.98-2.13.42-.65.98-1.22,1.65-1.71.33-.24,1.53-1.03,2.92-.93,6.01.42,12.78,2.35,19.95,4.39,4.64,1.32,9.44,2.69,13.97,3.6,1.04.21,1.97.52,2.75.93.81.42,1.4.83,1.81,1.26.42.43.76.95,1.01,1.52.19.45.31.79.38,1.06,1.19.22,2.07.38,3.22.57.01-.25.01-.5,0-.76-.02-.53-.17-1.18-.45-1.95-.27-.75-.68-1.45-1.2-2.08-.51-.62-1.33-1.23-2.43-1.83-1.12-.6-2.49-1.07-4.09-1.39-10.48-2.16-21.02-4.75-31.32-7.71-1.39-.41-2.68-.61-3.85-.61ZM229.73,426.95s0,0,0,0c0,0,0,0,0,0Z"/>
            <path class="cls-2" d="M296.88,443.95h0c-2.06-.02-3.07-.03-5.13-.08-.49-.01-.92-.32-1.08-.78-.44-1.28-.7-2.03-1.07-3.12-13.7-.44-27.52-1.55-41.12-3.31-.54,1.02-.92,1.72-1.56,2.91-.23.43-.7.67-1.19.6-2.03-.29-3.03-.43-5.09-.75-.38-.06-.71-.3-.87-.64-.17-.35-.15-.75.04-1.08,3.69-6.48,7.33-13.09,10.8-19.66.23-.43.7-.67,1.18-.61,12.44,1.57,25.11,2.59,37.65,3.03.48.02.91.33,1.06.79,2.37,7.04,4.89,14.15,7.5,21.13.13.36.08.76-.14,1.08-.22.31-.57.5-.95.5ZM292.6,441.56c.98.02,1.73.03,2.6.04-2.31-6.24-4.55-12.57-6.67-18.85-12.07-.44-24.26-1.42-36.25-2.92-3.1,5.86-6.33,11.75-9.62,17.54.87.13,1.62.24,2.59.38.54-1.01.92-1.71,1.55-2.89.23-.43.7-.67,1.18-.61,14.04,1.84,28.34,2.99,42.5,3.42.49.01.91.33,1.07.79.43,1.27.69,2.02,1.06,3.1ZM288.83,435.21s-.03,0-.04,0c-12.91-.45-25.96-1.5-38.77-3.12-.38-.05-.71-.28-.89-.62s-.18-.74,0-1.08c1.53-2.92,2.26-4.35,3.74-7.29.22-.44.69-.69,1.18-.63,10.68,1.27,21.55,2.14,32.3,2.6.49.02.91.35,1.06.81.99,3.13,1.48,4.66,2.52,7.79.12.36.06.76-.17,1.06-.22.29-.57.47-.93.47ZM251.97,429.99c11.66,1.42,23.49,2.37,35.23,2.83-.64-1.94-1.09-3.35-1.76-5.45-10.27-.45-20.64-1.29-30.86-2.48-1,1.98-1.67,3.29-2.61,5.1Z"/>
            <path class="cls-2" d="M303.78,443.95c-.64,0-1.16-.51-1.16-1.15l-.21-21.26c0-.64.51-1.17,1.15-1.18,15.35-.24,30.85-1.37,46.08-3.35,2.21-.43,4.38-.01,5.97,1.16,1.4,1.03,2.24,2.55,2.44,4.39l.05.31c.3,1.94-.08,3.59-1.1,4.87.39.27.75.59,1.07.96.79.89,1.3,2.1,1.54,3.6l.89,5.79c.1.64-.34,1.23-.97,1.33-1.9.29-2.84.43-4.78.71-.31.04-.62-.04-.86-.22-.25-.19-.41-.46-.45-.77l-.53-3.76c-.19-1.35-.55-1.86-.75-2.05-.34-.33-1.04-.31-1.57-.24-13.55,1.73-27.33,2.81-40.99,3.23l.14,6.39c0,.31-.11.61-.32.83-.21.22-.51.35-.82.36-1.94.04-2.88.06-4.8.08h-.01ZM304.75,422.67l.18,18.94c.86-.01,1.57-.02,2.44-.04l-.14-6.38c-.01-.64.49-1.17,1.13-1.19,13.95-.39,28.05-1.48,41.91-3.24,1.49-.2,2.66.09,3.47.86.75.71,1.23,1.83,1.45,3.41l.37,2.61c.88-.13,1.58-.23,2.45-.36l-.71-4.64h0c-.16-1.05-.49-1.86-.98-2.41-.48-.54-1.03-.89-1.69-1.05-.45-.11-.79-.48-.87-.93-.08-.46.12-.92.51-1.17,1.31-.86,1.79-2.08,1.51-3.86l-.05-.34s0-.04,0-.06c-.12-1.2-.63-2.13-1.51-2.78-1.07-.79-2.59-1.06-4.17-.74-.03,0-.05,0-.08.01-14.94,1.95-30.15,3.08-45.23,3.36ZM308.3,431.61c-.3,0-.59-.11-.8-.32-.22-.21-.35-.51-.36-.82l-.09-4.17c-.01-.64.49-1.17,1.13-1.19,13.95-.39,28.04-1.5,41.88-3.29,1.23-.17,1.99.28,2.42.69.55.52.89,1.22,1.01,2.09,0,0,0,0,0,.01l-1.16.15,1.16-.15c.13.9,0,1.68-.39,2.33-.3.51-.92,1.15-2.17,1.32-14.08,1.83-28.41,2.96-42.6,3.35-.01,0-.02,0-.03,0ZM309.39,427.41l.04,1.84c13.72-.42,27.57-1.53,41.18-3.3.17-.02.4-.08.47-.2.11-.18.14-.45.09-.81,0,0,0-.02,0-.03h0c-.05-.33-.15-.58-.31-.73-.1-.1-.33-.09-.51-.07-13.54,1.76-27.32,2.86-40.97,3.28Z"/>
            <path class="cls-2" d="M371.76,437.02c-.44,0-.87-.02-1.28-.06-1.44-.15-2.58-.44-3.48-.91-.89-.46-1.66-1.1-2.27-1.89-.58-.75-1-1.47-1.25-2.14-.23-.63-.41-1.31-.54-2.04l-.05-.31c-.11-.63.32-1.23.95-1.34,1.12-.19,1.93-.33,2.76-.48-.63-.22-1.22-.5-1.76-.86-1.59-1.05-2.62-2.63-2.97-4.59l-.05-.26c-.13-.76-.18-1.48-.15-2.16.04-.73.22-1.49.56-2.26.34-.78.85-1.48,1.5-2.09.63-.59,1.48-1.12,2.6-1.63,1.05-.47,2.32-.86,3.77-1.14,11.32-2.28,22.7-5.07,33.82-8.28,1.47-.43,2.83-.69,4.05-.77,1.28-.08,2.34,0,3.22.23.91.24,1.73.63,2.44,1.18.7.53,1.25,1.12,1.66,1.75.39.61.71,1.29.95,2.03l.09.27c.1.29.07.61-.07.89s-.38.48-.68.58c-.72.23-1.31.42-1.86.6.47.06.9.16,1.3.3,1.96.67,3.34,2.21,4.12,4.59l.12.38c.27.82.44,1.59.51,2.3.08.77,0,1.61-.24,2.48-.25.91-.7,1.76-1.34,2.51-.62.73-1.54,1.45-2.72,2.13-1.16.67-2.58,1.26-4.21,1.74-11.84,3.45-23.97,6.43-36.04,8.87-1.23.24-2.38.36-3.45.36ZM365.41,430.42c.07.28.15.54.25.79.17.45.47.96.91,1.52.41.52.92.94,1.51,1.25.62.32,1.51.54,2.64.66,1.18.12,2.53.03,4.04-.27,12-2.42,24.06-5.39,35.84-8.82,1.45-.43,2.7-.94,3.7-1.52.95-.55,1.66-1.1,2.11-1.62.43-.5.71-1.03.87-1.61.16-.6.22-1.15.17-1.64-.05-.54-.19-1.15-.41-1.82l-.12-.38s0,0,0,0c-.54-1.67-1.41-2.68-2.65-3.11-1.34-.45-3.38-.31-6.08.42-.59.16-.88.24-1.48.41-11.31,3.27-22.9,6.1-34.45,8.41-1.18.21-2.09.26-2.82.16-.88-.12-1.47-.36-1.86-.76-.35-.36-.58-.84-.69-1.43-.11-.59-.08-1.11.1-1.56.21-.53.69-.97,1.58-1.44.73-.39,1.57-.66,2.82-.9,11.22-2.27,22.5-5.03,33.51-8.21.85-.25,1.41-.33,2.07-.38.73-.05,1.31-.03,1.76.07.51.11.96.32,1.36.63.27.21.47.39.63.57,1.11-.34,1.93-.6,2.98-.94-.11-.24-.23-.46-.37-.67-.26-.4-.64-.8-1.12-1.16-.47-.36-1-.61-1.61-.77-.63-.17-1.47-.22-2.48-.15-1.04.06-2.23.29-3.54.68-11.18,3.23-22.62,6.04-34.02,8.33-1.28.25-2.38.58-3.27.98-.87.39-1.53.8-1.97,1.2-.43.4-.74.83-.95,1.33-.22.51-.35.99-.37,1.44-.02.51.01,1.06.11,1.65l.04.25c.24,1.32.9,2.35,1.96,3.05,1.41.93,3.48,1.2,5.52.73.03,0,.05-.01.08-.01.47-.08.7-.11,1.16-.19,11.76-2.35,23.57-5.24,35.1-8.58,1.32-.35,2.33-.51,3.1-.51h.02c.98,0,1.65.18,2.12.57.43.35.75.86.95,1.52.14.46.19.91.14,1.33-.05.47-.25.94-.61,1.42-.34.46-.89.88-1.68,1.28-.72.37-1.19.57-2.23.88-11.6,3.37-23.47,6.3-35.3,8.69-3.1.61-5.07-.14-5.99-2.3-1.13.21-1.99.36-3.1.55ZM370.44,428.31c.3,1.24.78,2.13,3.61,1.57,11.76-2.38,23.57-5.28,35.1-8.64.94-.28,1.29-.45,1.82-.72.64-.33.83-.54.88-.6.15-.2.17-.29.17-.29,0-.06,0-.18-.06-.37-.06-.21-.13-.32-.17-.37-.07-.02-.26-.07-.68-.07h0c-.57,0-1.4.14-2.48.43-11.57,3.35-23.45,6.25-35.29,8.62-.01,0-.03,0-.04,0-.46.08-.7.11-1.15.19-.56.13-1.13.21-1.68.25ZM369.23,420.82c.07.03.23.07.52.11.33.05.95.06,2.07-.14,11.46-2.29,22.99-5.11,34.25-8.36.61-.17.9-.25,1.49-.41.53-.15,1.04-.27,1.53-.37-.07-.15-.13-.25-.16-.3h0s-.07-.08-.28-.25c-.12-.09-.26-.16-.44-.2-.13-.03-.44-.07-1.09-.02-.54.04-.91.09-1.58.29-11.08,3.2-22.42,5.98-33.71,8.26-1.02.2-1.67.4-2.19.67-.27.14-.42.24-.5.31,0,.05,0,.12.02.21.02.09.04.16.06.19Z"/>
          </g>
        </g>
        <path class="cls-2" d="M166.77,287.5c7.61,0,13.79,6.19,13.79,13.79s-6.19,13.79-13.79,13.79-13.79-6.19-13.79-13.79,6.19-13.79,13.79-13.79M166.77,282.18c-10.56,0-19.12,8.56-19.12,19.12s8.56,19.12,19.12,19.12,19.12-8.56,19.12-19.12-8.56-19.12-19.12-19.12h0Z"/>
        <path class="cls-2" d="M168.41,291.41c-5.71,1.33-10.21,5.82-11.53,11.53-.09.37-.61.36-.69,0-.22-1-.3-2.06-.22-3.14.4-5.16,4.59-9.34,9.75-9.73.91-.07,1.8-.02,2.66.13.66.12.68,1.06.03,1.22Z"/>
        <path class="cls-2" d="M168.41,291.41c-5.71,1.33-10.21,5.82-11.53,11.53-.09.37-.61.36-.69,0-.22-1-.3-2.06-.22-3.14.4-5.16,4.59-9.34,9.75-9.73.91-.07,1.8-.02,2.66.13.66.12.68,1.06.03,1.22Z"/>
        <path class="cls-2" d="M161.86,373.61c-6.65-4.5-13.13-11.26-19.04-18.69-.44-.55-1.32-.24-1.32.46v24.51c0,7.79,5.32,16.38,12.32,17.73,7,1.35,34.55,1.79,49.89,1.79,8.28,0,14.64-5.03,17.2-8.43.37-.49.03-1.18-.58-1.19s-1.17-.01-1.76-.02c-17.76-.19-40.76-5.37-56.71-16.15Z"/>
        <path class="cls-2" d="M433.23,287.5c7.61,0,13.79,6.19,13.79,13.79s-6.19,13.79-13.79,13.79-13.79-6.19-13.79-13.79,6.19-13.79,13.79-13.79M433.23,282.18c-10.56,0-19.12,8.56-19.12,19.12s8.56,19.12,19.12,19.12,19.12-8.56,19.12-19.12-8.56-19.12-19.12-19.12h0Z"/>
        <path class="cls-2" d="M431.59,291.41c5.71,1.33,10.21,5.82,11.53,11.53.09.37.61.36.69,0,.22-1,.3-2.06.22-3.14-.4-5.16-4.59-9.34-9.75-9.73-.91-.07-1.8-.02-2.66.13-.66.12-.68,1.06-.03,1.22Z"/>
        <path class="cls-2" d="M431.59,291.41c5.71,1.33,10.21,5.82,11.53,11.53.09.37.61.36.69,0,.22-1,.3-2.06.22-3.14-.4-5.16-4.59-9.34-9.75-9.73-.91-.07-1.8-.02-2.66.13-.66.12-.68,1.06-.03,1.22Z"/>
        <path class="cls-2" d="M438.14,373.61c6.65-4.5,13.13-11.26,19.04-18.69.44-.55,1.32-.24,1.32.46v.71s0,23.79,0,23.79c0,7.79-5.32,16.38-12.32,17.73-7,1.35-34.55,1.79-49.89,1.79-8.28,0-14.64-5.03-17.2-8.43-.37-.49-.03-1.18.58-1.19s1.17-.01,1.76-.02c17.76-.19,40.76-5.37,56.71-16.15Z"/>
        <path class="cls-2" d="M443.04,332.22s-3.59-.36-4.1.41c-.5.77-1.04,3.04-1.51,4.34-3.61,9.91-10.13,18.71-17.57,23.66-5.8,3.86-9.02,5.09-18.91,7.43-3.37.79-14.75,2.49-28.3,3.28-26.25,1.52-60.81,2.69-60.81,2.69-3.96.1-4.81-1.21-4.84-4.26,0-.61.48-1.11,1.09-1.14,16.65-.6,86.87-3.14,91.33-3.76,2.67-.37,5.27-.8,7.42-1.61,1.73-.65,1.2-3.12-.66-3.04l-97.94,4.52c-.65.03-1.19-.49-1.19-1.14v-2.28c.01-.61.5-1.1,1.1-1.13l110.74-4.01c.11,0,.23-.02.33-.04.76-.18,1.4-.43,1.94-.74,1.44-.83.77-2.97-.91-2.91l-111.99,3.87c-.64.02-1.18-.49-1.17-1.14v-2.88c.02-.61.5-1.11,1.11-1.13l119.21-3.72c.24,0,.47-.07.68-.17,1.04-.49,1.67-1.09,2-1.76.52-1.06-.33-2.26-1.55-2.22l-120.24,4.02c-.64.02-1.17-.5-1.17-1.14v-2.24c.01-.61.5-1.11,1.1-1.13l125.06-4.37c.34-.01.67-.12.93-.32.8-.61,1.2-1.39,1.4-2.27.22-.99-.62-1.91-1.67-1.87l-125.61,4.97c-.64.03-1.18-.49-1.18-1.14h0c.02-1.65,1.18-3.08,2.79-3.42.09-.02.19-.04.28-.06l102.16-4.25c1.7-.07,2.33-2,.93-2.86-.57-.35-1.04-.66-1.37-.89-.34-.23-.76-.34-1.18-.32l-98.05,4.68h-12.75s-12.75,0-12.75,0l-98.05-4.68c-.42-.02-.84.09-1.18.32-.33.22-.8.53-1.37.89-1.39.86-.77,2.79.93,2.86l102.16,4.25c.09.02.19.04.28.06,1.62.33,2.77,1.77,2.79,3.42h0c0,.65-.53,1.16-1.18,1.14l-125.61-4.97c-1.05-.04-1.9.88-1.67,1.87.2.88.61,1.66,1.4,2.27.26.2.59.31.93.32l125.06,4.37c.61.02,1.09.52,1.09,1.13v2.24c.01.64-.52,1.16-1.16,1.14l-120.24-4.02c-1.21-.04-2.06,1.17-1.55,2.22.33.67.96,1.27,2,1.76.21.1.45.16.68.17l119.21,3.72c.61.02,1.09.52,1.1,1.13v2.88c.02.64-.51,1.16-1.16,1.14l-111.99-3.87c-1.68-.06-2.35,2.08-.91,2.91.54.31,1.19.57,1.94.74.11.03.22.04.33.04l110.74,4.01c.61.02,1.09.52,1.09,1.13v2.28c.01.65-.53,1.17-1.17,1.14l-97.94-4.52c-1.86-.09-2.39,2.39-.66,3.04,2.14.8,4.75,1.23,7.42,1.61,4.45.62,74.68,3.16,91.33,3.76.61.02,1.1.52,1.09,1.14-.03,3.05-.88,4.36-4.84,4.26,0,0-34.56-1.17-60.81-2.69-13.55-.79-24.93-2.48-28.3-3.28-9.89-2.33-13.11-3.57-18.91-7.43-7.44-4.95-13.96-13.75-17.57-23.66-.47-1.3-1.01-3.56-1.51-4.34-.5-.77-4.1-.41-4.1-.41-.43-.02-.72.42-.55.81,1.87,4.15,10.65,22.53,22.98,30.9,12.68,8.6,32.8,10.3,47.89,11.58,14.9,1.26,65.65,3.44,72.72,3.44s57.82-2.18,72.72-3.44c15.09-1.27,35.21-2.98,47.89-11.58,12.34-8.37,21.11-26.75,22.98-30.9.18-.39-.12-.82-.55-.81Z"/>
        <path class="cls-2" d="M479.91,303.95c-3.1-7.67-17.57-6.66-21.34-.74-6.99,10.97-9.95,23.47-15.6,35.16-4.19,8.67-9.08,17.34-16.58,23.59-5.42,4.52-11.93,7.54-18.6,9.86-12.65,4.4-24.38,5.06-37.67,5.97-10.79.74-25.26,1.57-36.06,2.02-4.53.19-19.29,1.5-34.05,1.5-14.76,0-29.52-1.32-34.05-1.5-10.81-.45-25.27-1.28-36.06-2.02-13.29-.91-25.02-1.57-37.67-5.97-6.66-2.32-13.18-5.34-18.6-9.86-7.5-6.25-12.38-14.92-16.58-23.59-5.66-11.69-8.61-24.19-15.6-35.16-3.77-5.92-18.25-6.93-21.34.74-2.37,5.87-.59,9.83,1.09,12.93,7.43,13.73,24.51,41.92,42.69,54.22,15.95,10.79,38.96,15.77,56.71,16.15,16.83.36,67.97,3.27,79.41,3.27s62.58-2.91,79.41-3.27c17.75-.38,40.76-5.37,56.71-16.15,18.18-12.3,35.27-40.48,42.69-54.22,1.67-3.1,3.45-7.06,1.09-12.93ZM150.86,330.78c-2.49-4.78-11.85-23.69-15.41-25.91-8.41-5.24-12.32,4-13.56,3.66-1.24-.34-.18-3.67,2.34-5.76,2.39-1.98,8.89-3.39,13.53.58,4.28,3.66,11.08,20.66,13.72,27.17.15.38-.44.61-.63.25ZM478.11,308.53c-1.24.34-5.14-8.9-13.56-3.66-3.57,2.22-12.92,21.13-15.41,25.91-.19.36-.78.13-.63-.25,2.64-6.52,9.44-23.51,13.72-27.17,4.64-3.97,11.15-2.56,13.53-.58,2.52,2.09,3.58,5.42,2.34,5.76Z"/>
        <path class="cls-2" d="M314.35,316.05l-13.79-85.41c-.13-.59-.98-.59-1.1,0l-13.79,85.41c-.05.27.07.55.28.65l12.73,3.95c.87.27,1.8.27,2.66,0l12.73-3.95c.21-.1.33-.37.28-.65ZM298.83,316.34l-3.85-.78c-.66-.13-1.11-.74-1.06-1.41l5.65-66.83c.04-.53.82-.53.86,0l5.65,66.83c.06.67-.4,1.28-1.06,1.41l-3.85.78c-.77.16-1.57.16-2.34,0Z"/>
        <path class="cls-2" d="M445.32,320.21c-3.4,2.05-9.26,4.58-15.94,3.26-4.08-.81-9.57-3.72-13.82-9.14-2.43-3.1-3.41-7-3.74-10.46-.53-5.6-.91-7.25-9.37-12.59-5.45-3.44-36.03-15.05-36.03-15.05-3.16-1.32-5.76-3.69-7.42-6.69-4.7-8.49-20.9-25.79-53.51-26.41-.89-.02-1.54.82-1.31,1.68l1.14,4.28c.17.63.76,1.04,1.41.98,28.5-2.82,42.53,12.59,47.01,20.3,1.07,1.84-.13,4.16-2.25,4.33l-39.55,3.46c-.8.07-1.35.82-1.19,1.6l11.45,32.04c1.2,3.35-.68,7.01-4.1,7.98-6.19,1.77-14.99,4.28-17.13,4.9-.29.08-1.63.08-1.92,0-2.14-.62-10.94-3.13-17.13-4.9-3.42-.98-5.3-4.64-4.1-7.98l11.45-32.04c.16-.78-.4-1.53-1.19-1.6l-39.54-3.46c-2.12-.17-3.32-2.49-2.25-4.33,4.48-7.71,18.52-23.11,47.01-20.3.65.06,1.24-.36,1.41-.98l1.14-4.28c.23-.86-.43-1.69-1.32-1.68-32.62.62-48.81,17.92-53.51,26.41-1.66,3-4.26,5.37-7.42,6.69,0,0-30.58,11.61-36.03,15.05-8.46,5.34-8.84,6.99-9.37,12.59-.33,3.45-1.31,7.35-3.74,10.46-4.25,5.42-9.74,8.34-13.83,9.14-6.68,1.32-12.54-1.21-15.94-3.26-1.05-.64-2.33.37-1.96,1.54l2.46,7.82c.16.51.61.88,1.14.93,19.94,1.78,30.03-6.49,32.09-8.41.27-.25.63-.38,1-.35l94.48,6.52s.05,0,.08,0l14.69.19c.37,0,2.33,0,2.7,0l14.7-.19s.05,0,.08,0l94.48-6.52c.37-.03.73.1,1,.35,2.06,1.93,12.15,10.19,32.09,8.41.53-.05.99-.42,1.14-.93l2.46-7.82c.37-1.17-.91-2.17-1.96-1.54ZM269.47,317.64c-3.21,2.47-5.26,2.9-9.94,2.41-16.08-1.69-56.09-4.18-64.7-4.71-.84-.05-1.42-.86-1.2-1.67.43-1.58,1.06-4.19,1.48-7.04.93-6.29,5.15-11.6,11.03-13.99l21.53-8.74c3.97-1.61,12.02-3.06,24.58-2.97l28.42,1.53c1.71.09,2.94,1.42,2.95,3.26,0,1.84-10.95,29.45-14.16,31.92ZM405.17,315.33c-8.61.53-48.62,3.02-64.7,4.71-4.68.49-6.73.06-9.94-2.41-3.21-2.47-14.17-30.08-14.16-31.92,0-1.84,1.23-3.17,2.95-3.26l28.42-1.53c12.56-.09,20.61,1.36,24.58,2.97l21.53,8.74c5.89,2.39,10.11,7.7,11.03,13.99.42,2.85,1.06,5.46,1.48,7.04.22.81-.36,1.62-1.2,1.67Z"/>
        <g>
          <path class="cls-2" d="M219.18,277.15l-18.6-20.79c-.71-.79-1.86-1.03-2.82-.57l-8.72,4.12c-.1.05-.21.11-.3.17-2.37,1.57-3.42,1.2-4.83-1.38l-10.47-16.73c-.04-.06-.08-.13-.11-.19-.47-.91-.66-1.95-.53-2.97.02-.16.06-.31.11-.46l3.07-8.83c.28-.81.11-1.7-.45-2.35l-100.26-117.06c-.48-.56-1.35.04-1,.69l90.09,167.84c.47.87,1.43,1.37,2.41,1.24.79-.1,1.59-.15,2.41-.15,7.64,0,15.05,6.45,18.06,13.09.63,1.39,2.37,1.85,3.61.95,6.19-4.49,15.86-9.03,27.28-12.73,1.65-.54,2.21-2.59,1.06-3.89ZM79.37,116.95s.02-.07.05-.04l93.19,110.87c.54.65.82,2.14.54,2.94l-1.07,3.08c-.63,1.82-3.03,2.19-4.19.66l-88.51-117.51ZM165.72,276.14l-51.99-96.45c-17-30.04-30.72-55.18-32.38-58.22-.01-.02.02-.04.03-.02,2.02,2.87,18.89,27.03,35.57,56.35,0,0,63.2,100.21,62.98,102.17-.06.55-.29.8-1.08.17-2.09-1.68-8.29-3.53-11.83-3.05-.55-.1-1.03-.45-1.3-.95ZM213.68,279.89l-9.15,3.28c-.99.34-1.86.42-2.48-.42l-12.74-17.15c-.91-1.22-.47-2.96.91-3.61l6.73-3.16c.96-.45,2.1-.22,2.81.57l15.35,17.12c1.15,1.28.2,2.82-1.43,3.38Z"/>
          <path class="cls-2" d="M381.88,281.04c11.42,3.7,21.09,8.24,27.28,12.73,1.24.9,2.98.44,3.61-.95,3.01-6.64,10.42-13.09,18.06-13.09.82,0,1.62.05,2.41.15.98.13,1.94-.37,2.41-1.24l90.09-167.84c.35-.64-.53-1.24-1-.69l-100.26,117.06c-.56.65-.73,1.55-.45,2.35l3.07,8.83c.05.15.09.3.11.46.13,1.02-.05,2.05-.53,2.97-.03.07-.07.13-.11.19l-10.47,16.73c-1.4,2.57-2.46,2.95-4.83,1.38-.1-.06-.2-.12-.3-.17l-8.72-4.12c-.96-.45-2.11-.22-2.82.57l-18.6,20.79c-1.16,1.3-.6,3.35,1.06,3.89ZM432.11,234.46c-1.16,1.54-3.56,1.16-4.19-.66l-1.07-3.08c-.28-.8,0-2.29.54-2.94l93.19-110.87s.07,0,.05.04l-88.51,117.51ZM432.97,277.08c-3.54-.48-9.74,1.37-11.83,3.05-.79.64-1.02.38-1.08-.17-.22-1.96,62.98-102.17,62.98-102.17,16.68-29.32,33.55-53.48,35.57-56.35.01-.02.05,0,.03.02-1.65,3.04-15.37,28.18-32.38,58.22l-51.99,96.45c-.27.5-.75.84-1.3.95ZM384.89,276.51l15.35-17.12c.71-.79,1.85-1.02,2.81-.57l6.73,3.16c1.38.65,1.81,2.39.91,3.61l-12.74,17.15c-.62.84-1.49.76-2.48.42l-9.15-3.28c-1.63-.56-2.58-2.1-1.43-3.38Z"/>
          <path class="cls-2" d="M357.28,389.76s-50.83,3.15-57.28,3.15-57.28-3.15-57.28-3.15c-.79-.04-1.07,1.02-.36,1.37l57.32,27.82c.2.1.44.1.64,0l57.32-27.82c.71-.35.43-1.42-.36-1.37ZM310.82,394.77c.46-.02.64.6.22.82l-10.69,16.7c-.22.12-.49.12-.71,0l-10.69-16.7c-.41-.22-.24-.84.22-.82,3.29.17,9.72.48,10.82.48s7.53-.32,10.82-.48ZM299.66,415.56l-43.57-21.61c-.43-.21-.25-.86.22-.83l13.86,1.22c1.15.1,2.27.44,3.28.99l26.21,19.33c.21.11.46.11.66,0l26.21-19.33c1.01-.55,2.13-.89,3.28-.99l13.86-1.22c.48-.03.65.61.22.83l-43.57,21.61c-.21.11-.46.11-.67,0Z"/>
        </g>
      </g>
    </g>
  </g>
</svg>