<?xml version="1.0" encoding="UTF-8"?>
<svg id="Layer_2" data-name="Layer 2" xmlns="http://www.w3.org/2000/svg" viewBox="0 0 600 600">
  <defs>
    <style>
      .cls-1 {
        fill: #f95959;
      }

      .cls-1, .cls-2, .cls-3 {
        stroke-width: 0px;
      }

      .cls-2 {
        fill: #233142;
      }

      .cls-3 {
        fill: #fff;
      }
    </style>
  </defs>
  <g id="LOGOS">
    <g>
      <rect class="cls-2" width="600" height="600" rx="30" ry="30"/>
      <g>
        <g>
          <path class="cls-3" d="M240.53,305.45l-3.87-10.99h-22.52l-3.87,10.99h-9.21l19.27-53.86h10.22l19.27,53.86h-9.29ZM216.53,287.57h17.72l-8.82-25.31-8.9,25.31Z"/>
          <path class="cls-3" d="M269.7,285.79v-34.13h8.82v34.13c0,4.08,1.07,7.15,3.21,9.21,2.14,2.06,5.13,3.1,8.98,3.1s6.84-1.03,8.98-3.1c2.14-2.06,3.21-5.13,3.21-9.21v-34.13h8.82v34.13c0,6.5-2.02,11.49-6.08,14.97-4.05,3.48-9.08,5.22-15.09,5.22s-10.99-1.73-14.94-5.19c-3.95-3.46-5.92-8.46-5.92-15.01Z"/>
          <path class="cls-3" d="M339.82,298.18c-5.32-5.16-7.97-11.73-7.97-19.7s2.66-14.55,7.97-19.73c5.31-5.19,11.81-7.78,19.5-7.78,5.73,0,10.82,1.41,15.28,4.22,4.46,2.81,7.7,6.8,9.71,11.96h-10.6c-2.89-5.42-7.69-8.13-14.39-8.13-5.42,0-9.84,1.78-13.27,5.34-3.43,3.56-5.15,8.27-5.15,14.12s1.71,10.56,5.15,14.12c3.43,3.56,7.85,5.34,13.27,5.34,6.71,0,11.5-2.71,14.39-8.13h10.6c-2.01,5.16-5.25,9.13-9.71,11.92-4.46,2.79-9.56,4.18-15.28,4.18-7.69,0-14.19-2.58-19.5-7.74Z"/>
          <path class="cls-3" d="M403.43,258.55v-6.89h37.54v6.89h-14.32v46.9h-8.82v-46.9h-14.4Z"/>
          <path class="cls-3" d="M461.4,285.79v-34.13h8.82v34.13c0,4.08,1.07,7.15,3.21,9.21,2.14,2.06,5.13,3.1,8.98,3.1s6.84-1.03,8.98-3.1c2.14-2.06,3.21-5.13,3.21-9.21v-34.13h8.82v34.13c0,6.5-2.02,11.49-6.08,14.97-4.05,3.48-9.08,5.22-15.09,5.22s-10.99-1.73-14.94-5.19c-3.95-3.46-5.92-8.46-5.92-15.01Z"/>
          <path class="cls-3" d="M543.2,258.17c-2.63,0-4.77.67-6.42,2.01-1.65,1.34-2.48,3.29-2.48,5.84s.98,4.5,2.94,5.84c1.96,1.34,4.33,2.32,7.12,2.94,2.79.62,5.57,1.33,8.36,2.13,2.79.8,5.16,2.28,7.12,4.45,1.96,2.17,2.94,5.24,2.94,9.21s-1.68,7.53-5.03,10.68c-3.35,3.15-7.84,4.72-13.47,4.72s-10.19-1.32-13.7-3.95c-3.51-2.63-5.26-6.27-5.26-10.91h9.44c.2,2.37,1.08,4.26,2.63,5.65s3.82,2.09,6.81,2.09,5.35-.77,7.08-2.32c1.73-1.55,2.59-3.38,2.59-5.49s-.53-3.77-1.59-4.95c-1.06-1.19-2.42-2.08-4.1-2.67-1.68-.59-3.52-1.12-5.53-1.59s-4.04-1.01-6.08-1.62c-2.04-.62-3.9-1.42-5.57-2.4-1.68-.98-3.04-2.41-4.1-4.3-1.06-1.88-1.59-4.19-1.59-6.93,0-4.69,1.69-8.47,5.07-11.34,3.38-2.86,7.76-4.3,13.16-4.3s9.7,1.24,12.92,3.72c3.22,2.48,5.02,6.06,5.38,10.76h-9.75c-.21-2.06-1.08-3.79-2.63-5.19-1.55-1.39-3.64-2.09-6.27-2.09Z"/>
        </g>
        <g>
          <path class="cls-1" d="M207.19,330.68c3.01,0,5.42.85,7.22,2.54,1.8,1.7,2.7,3.98,2.7,6.86s-.9,5.15-2.7,6.81c-1.8,1.66-4.21,2.49-7.22,2.49h-6.11v-18.7h6.11ZM204.15,347.04h3.04c2.17,0,3.84-.62,5.02-1.86,1.17-1.24,1.76-2.94,1.76-5.1s-.59-3.86-1.76-5.08c-1.17-1.23-2.85-1.84-5.02-1.84h-3.04v13.88Z"/>
          <path class="cls-1" d="M223.92,349.38v-18.7h3.07v18.7h-3.07Z"/>
          <path class="cls-1" d="M243.15,349.54c-2.56,0-4.76-.9-6.61-2.69-1.85-1.79-2.77-4.08-2.77-6.85s.92-5.06,2.77-6.86c1.85-1.8,4.11-2.7,6.78-2.7,1.99,0,3.76.49,5.31,1.47,1.55.98,2.68,2.36,3.38,4.16h-3.69c-1-1.88-2.67-2.82-5-2.82-1.88,0-3.42.62-4.61,1.86-1.19,1.24-1.79,2.88-1.79,4.91s.6,3.67,1.79,4.91c1.19,1.24,2.68,1.86,4.45,1.86s3.19-.47,4.24-1.41,1.68-2.22,1.9-3.83h-7.02v-2.39h10.31v2.39c-.29,2.24-1.29,4.14-3.01,5.69-1.72,1.55-3.86,2.33-6.42,2.33Z"/>
          <path class="cls-1" d="M259.36,349.38v-18.7h3.07v18.7h-3.07Z"/>
          <path class="cls-1" d="M269.26,333.08v-2.39h13.05v2.39h-4.98v16.3h-3.07v-16.3h-5Z"/>
          <path class="cls-1" d="M301.79,349.38l-1.35-3.82h-7.83l-1.35,3.82h-3.2l6.7-18.73h3.55l6.7,18.73h-3.23ZM299.31,324.06v2.61l-5.95,2.93v-2.26l5.95-3.28ZM293.45,343.17h6.16l-3.07-8.8-3.1,8.8Z"/>
          <path class="cls-1" d="M311.69,330.68h3.07v16.36h6.32v2.34h-9.39v-18.7Z"/>
          <path class="cls-1" d="M339.7,330.66h3.07v18.73h-3.07l-9.23-13.96v13.96h-3.07v-18.73h3.07l9.23,13.94v-13.94Z"/>
          <path class="cls-1" d="M358.24,349.38h-3.07v-6.78l-6.21-11.92h3.42l4.31,9.12,4.3-9.12h3.44l-6.19,11.92v6.78Z"/>
          <path class="cls-1" d="M402.15,330.68v18.7h-3.07v-12.81l-5.7,12.81h-2.13l-5.73-12.81v12.81h-3.07v-18.7h3.31l6.57,14.66,6.54-14.66h3.28Z"/>
          <path class="cls-1" d="M422.57,349.38l-1.35-3.82h-7.83l-1.35,3.82h-3.2l6.7-18.73h3.55l6.7,18.73h-3.23ZM414.22,343.17h6.16l-3.07-8.8-3.1,8.8Z"/>
          <path class="cls-1" d="M435.53,341.8v7.59h-3.07v-18.7h6.46c2.12,0,3.75.52,4.9,1.57,1.15,1.05,1.72,2.38,1.72,4,0,1.26-.38,2.39-1.14,3.39-.76,1-1.93,1.66-3.51,1.96l4.95,7.78h-3.74l-4.68-7.59h-1.88ZM435.53,333.08v6.32h3.39c1.17,0,2.04-.28,2.61-.83.57-.56.86-1.33.86-2.33s-.29-1.77-.86-2.33c-.57-.56-1.44-.83-2.61-.83h-3.39Z"/>
          <path class="cls-1" d="M456.31,349.38h-3.07v-18.7h3.07v8.53l7.27-8.53h4.01l-8.45,9.39,8.45,9.31h-4.04l-7.24-8.37v8.37Z"/>
          <path class="cls-1" d="M484.37,330.66v2.39h-7.27v5.68h6.46v2.37h-6.46v5.89h7.27v2.39h-10.33v-18.73h10.33Z"/>
          <path class="cls-1" d="M490.93,333.08v-2.39h13.05v2.39h-4.98v16.3h-3.07v-16.3h-5Z"/>
          <path class="cls-1" d="M510.84,349.38v-18.7h3.07v18.7h-3.07Z"/>
          <path class="cls-1" d="M534.01,330.66h3.07v18.73h-3.07l-9.23-13.96v13.96h-3.07v-18.73h3.07l9.23,13.94v-13.94Z"/>
          <path class="cls-1" d="M553.23,349.54c-2.56,0-4.76-.9-6.61-2.69-1.85-1.79-2.77-4.08-2.77-6.85s.92-5.06,2.77-6.86c1.85-1.8,4.11-2.7,6.78-2.7,1.99,0,3.76.49,5.31,1.47,1.55.98,2.68,2.36,3.38,4.16h-3.69c-1-1.88-2.67-2.82-5-2.82-1.88,0-3.42.62-4.61,1.86s-1.79,2.88-1.79,4.91.6,3.67,1.79,4.91,2.68,1.86,4.45,1.86,3.19-.47,4.24-1.41c1.05-.94,1.68-2.22,1.9-3.83h-7.02v-2.39h10.3v2.39c-.29,2.24-1.29,4.14-3.01,5.69-1.72,1.55-3.86,2.33-6.42,2.33Z"/>
        </g>
        <polygon class="cls-3" points="37.22 297.41 75.02 297.41 72.03 305.19 37.22 305.19 37.22 297.41"/>
        <polygon class="cls-3" points="190.32 297.41 190.32 305.19 151.9 305.19 154.89 297.41 190.32 297.41"/>
        <polygon class="cls-1" points="117.04 297.41 108.69 297.41 96.03 264.41 83.36 297.41 80.38 305.19 45.75 395.37 37.42 395.37 72.03 305.19 75.02 297.41 92.92 250.79 99.15 250.79 117.04 297.41"/>
        <polygon class="cls-1" points="190.5 204.64 154.89 297.41 151.9 305.19 134.89 349.51 128.7 349.51 127.63 346.72 111.69 305.19 120.02 305.19 131.8 335.85 143.57 305.19 146.56 297.41 182.16 204.63 190.5 204.64"/>
        <polygon class="cls-3" points="146.56 297.41 143.57 305.19 80.38 305.19 83.36 297.41 146.56 297.41"/>
      </g>
    </g>
  </g>
</svg>