<?xml version="1.0" encoding="UTF-8"?>
<svg id="Layer_2" data-name="Layer 2" xmlns="http://www.w3.org/2000/svg" viewBox="0 0 600 600">
  <defs>
    <style>
      .cls-1 {
        fill: #006f79;
      }

      .cls-1, .cls-2, .cls-3 {
        stroke-width: 0px;
      }

      .cls-2 {
        fill: #fff;
      }

      .cls-3 {
        fill: #e53812;
      }
    </style>
  </defs>
  <g id="LOGOS">
    <g>
      <rect class="cls-2" x="0" width="600" height="600" rx="30" ry="30"/>
      <g>
        <g>
          <path class="cls-1" d="M274.15,167.3c48.41-20.23,128.7,19.45,123,70.84,12.53,12.15,25.61,29.64,37.32,54.32,55.11-157.07-150.82-229.82-237.99-132.47,10.72-6.59,39.26-18.64,77.67,7.3Z"/>
          <path class="cls-1" d="M313.58,375.07l-25.2,33.94s-4.18-28.42-41.44-86.67c-17.26-.82-39.56-6.55-66.25-25.99,6.11,15.78,14.82,32.63,26.67,50.56,50.05,75.7,42.83,128.62,42.83,128.62l48.81,8.54s1.73-27.64,66.58-99.03c-21.51,6.85-40.22,2.49-52-9.96Z"/>
        </g>
        <g>
          <g>
            <path class="cls-3" d="M270.93,272.18c-2.26,41.14-57.99,47.43-63.49,2.77,22.06,17.84,53.79,7.79,63.49-2.77Z"/>
            <path class="cls-3" d="M317.4,256.99l-27.93,3.08c-4.96-47.69-34.83-72.77-61.48-71.12-24.9,1.54-46.99,26.43-43.29,78.01-12.68-.1-18.52-.52-28.4.18,9.09-64.62,38.99-96.31,71.6-97.88,33.55-1.61,69.96,28.65,89.5,87.74Z"/>
            <path class="cls-3" d="M231.13,239.42c-.37-3.18-1.53-6.25-3.49-8.79-5.49-7.14-15.42-8.35-23.26-4.61-9.31,4.45-13.47,15.49-8.28,24.79,6.7,12,24.88,12.25,32.29.84,2.33-3.58,3.24-8,2.74-12.23ZM217.08,246.21c-4.22,0-7.65-3.42-7.65-7.65s3.42-7.65,7.65-7.65,7.65,3.42,7.65,7.65-3.42,7.65-7.65,7.65Z"/>
            <path class="cls-3" d="M255.91,219.53c-.49,0-.98,0-1.46.04-10.47.72-17.69,10.78-15.57,21.16,2.22,10.85,12.98,14.85,21.15,13.82,7.85-1.13,14.12-7.8,14.57-15.5.61-10.5-8.32-19.37-18.68-19.52ZM261.53,240.48c-3.96,0-7.17-3.21-7.17-7.17s3.21-7.17,7.17-7.17,7.17,3.21,7.17,7.17-3.21,7.17-7.17,7.17Z"/>
          </g>
          <g>
            <path class="cls-3" d="M369.86,360.23s-10.96,22.05-32.01,13.83c-27.99-10.94-12.88-38.78-12.88-38.78,11.12,19.13,44.89,24.95,44.89,24.95Z"/>
            <path class="cls-3" d="M432.05,336.27c-8.25,3.59-10.92,4.31-13.71,4.26-7.4-42.15-55.52-68.98-83.18-83.65l19.36-31.51c40.17,22.28,70.82,66.15,77.53,110.91Z"/>
            <path class="cls-3" d="M358.78,289.78c-4.18-3.35-9.58-5.19-14.83-4.72-2.08.18-4.13.73-6.08,1.68-5.68,2.78-10.33,9.25-10.2,15.72.14,6.9,4.05,13.69,10.13,17.03,6.76,3.71,15.8,2.83,21.63-2.22,3.85-3.32,6.11-8.32,6.35-13.37.29-5.88-2.47-10.49-7-14.12ZM344.68,303.56c-3.96,0-7.17-3.21-7.17-7.17s3.21-7.17,7.17-7.17,7.17,3.21,7.17,7.17-3.21,7.17-7.17,7.17Z"/>
            <path class="cls-3" d="M399.34,322.58c-1.98-3.63-5.27-6.5-9.09-8.08-1.72-.71-3.54-1.16-5.4-1.3-7.27-.54-14.96,3.73-17.35,10.78-2.17,6.39-.99,14.62,3.64,19.69,3.08,3.38,7.76,4.97,12.33,5.11,3.25.1,6.57-.5,9.42-2.07,2.81-1.55,5.08-4.01,6.57-6.85,2.79-5.31,2.76-12.02-.11-17.28ZM383.39,334.14c-4.22,0-7.65-3.42-7.65-7.65s3.42-7.65,7.65-7.65,7.65,3.42,7.65,7.65-3.42,7.65-7.65,7.65Z"/>
          </g>
        </g>
      </g>
    </g>
  </g>
</svg>