<?xml version="1.0" encoding="UTF-8"?>
<svg id="Layer_2" data-name="Layer 2" xmlns="http://www.w3.org/2000/svg" viewBox="0 0 600 600">
  <defs>
    <style>
      .cls-1 {
        fill: #8c770d;
      }

      .cls-1, .cls-2, .cls-3, .cls-4 {
        stroke-width: 0px;
      }

      .cls-2 {
        fill: #5b544f;
      }

      .cls-3 {
        fill: #fff1e1;
      }

      .cls-4 {
        fill: #774e26;
      }
    </style>
  </defs>
  <g id="LOGOS">
    <g>
      <rect class="cls-3" width="600" height="600" rx="30" ry="30"/>
      <g id="logo">
        <g>
          <path class="cls-1" d="M178.58,363.27c-2.81,0-5.3-.67-7.45-2-2.16-1.33-3.83-3.1-5.03-5.31-1.2-2.21-1.8-4.61-1.8-7.2,0-3.45.86-6.35,2.59-8.69,1.72-2.34,3.92-4.24,6.58-5.68,2.66-1.44,5.45-2.48,8.35-3.12,2.9-.64,5.56-.96,7.96-.96.45,0,1.14.04,2.08.11.94.08,1.87.15,2.81.23.94.08,1.65.11,2.14.11l.06-10.12c.04-3.64-.59-6.09-1.88-7.34-1.29-1.26-3.36-1.88-6.21-1.88-1.84,0-3.63.3-5.37.9-1.74.6-3.38,1.37-4.92,2.31-1.54.94-2.95,1.88-4.25,2.84-1.29.95-2.43,1.81-3.4,2.56h-1.24l-1.74-8.88c1.46-.82,3.12-1.62,4.98-2.39,1.86-.77,3.91-1.41,6.16-1.91,2.25-.51,4.65-.76,7.2-.76,3.07,0,6.17.56,9.28,1.69s5.71,2.99,7.79,5.59c2.08,2.61,3.08,6.12,3.01,10.55l-.34,29.46c0,1.09.38,1.96,1.15,2.62.77.65,1.94.98,3.51.98.38,0,1.14-.12,2.31-.37,1.16-.24,2.1-.48,2.81-.7h.56v2.7c-.68.53-1.63,1.17-2.87,1.91-1.24.75-2.57,1.4-3.99,1.94-1.43.54-2.79.82-4.11.82-2.85,0-5-.65-6.47-1.94-1.46-1.29-2.19-3.7-2.19-7.22-1.72,2.62-3.66,4.59-5.82,5.9-2.16,1.31-4.29,2.18-6.41,2.61-2.12.43-4.06.65-5.82.65ZM184.03,357.08c2.1,0,4.37-.47,6.8-1.4,2.44-.94,4.37-2.44,5.79-4.5l.17-17.55c-4.54,0-8.48.44-11.84,1.32-3.36.88-5.94,2.28-7.76,4.19-1.82,1.91-2.73,4.4-2.73,7.48,0,2.59.5,4.65,1.49,6.19.99,1.54,2.22,2.63,3.68,3.29,1.46.66,2.93.98,4.39.98Z"/>
          <path class="cls-1" d="M222.03,362.14v-2.53l6.24-1.41c.75-.19,1.36-.56,1.83-1.13.47-.56.7-1.25.7-2.08v-36.95c0-.97-.26-1.82-.79-2.53s-1.43-1.29-2.7-1.74l-5.17-1.85v-1.52l17.49-3.88v12.31c1.2-1.95,2.58-3.91,4.13-5.88,1.56-1.97,3.38-3.61,5.48-4.92,2.1-1.31,4.52-1.97,7.25-1.97,2.14,0,3.71.17,4.72.51s2.16.73,3.43,1.18v13.15h-2.87l-1.8-4.72c-.3-.75-1.16-1.3-2.59-1.66-1.43-.36-2.72-.53-3.88-.53-1.8,0-3.47.29-5,.87-1.54.58-2.98,1.45-4.33,2.59-1.35,1.14-2.66,2.58-3.94,4.3v33.24c0,1.84.85,2.9,2.53,3.2l7.25,1.41v2.53h-28Z"/>
          <path class="cls-1" d="M293.55,363.27c-4.46,0-8.29-1.15-11.5-3.46-3.21-2.3-5.66-5.45-7.37-9.45-1.71-3.99-2.56-8.52-2.56-13.58,0-5.66,1.02-10.81,3.06-15.44,2.04-4.63,4.98-8.33,8.8-11.11s8.44-4.16,13.83-4.16c3.22,0,5.87.55,7.93,1.66,2.06,1.11,3.78,2.35,5.17,3.74v-22.44c0-.98-.24-1.81-.73-2.5s-1.39-1.25-2.7-1.66l-5.85-1.86v-1.52l18.73-4.33v74.51c0,.98.25,1.8.76,2.47.51.68,1.41,1.22,2.73,1.63l5.17,1.63v1.52l-16.59,4.33h-1.12v-9.28c-2.14,2.89-4.34,4.99-6.61,6.3-2.27,1.32-4.38,2.14-6.33,2.48-1.95.34-3.56.51-4.84.51ZM298.84,356.86c1.12,0,2.46-.17,4.02-.51,1.56-.34,3.06-.93,4.53-1.77,1.46-.84,2.64-1.98,3.54-3.4v-36.94c-.86-.79-2.04-1.44-3.54-1.97-1.5-.53-3.02-.92-4.56-1.18-1.54-.26-2.79-.39-3.77-.39-3.82,0-6.99,1.02-9.51,3.06-2.51,2.04-4.4,4.73-5.65,8.07-1.26,3.34-1.88,6.95-1.88,10.86,0,4.69.59,8.86,1.77,12.51,1.18,3.65,3.01,6.51,5.48,8.57,2.47,2.07,5.66,3.09,9.56,3.09Z"/>
          <path class="cls-1" d="M362.25,363.55c-4.88,0-9.17-1.1-12.88-3.29-3.71-2.19-6.61-5.41-8.68-9.64-2.08-4.24-3.12-9.41-3.12-15.52,0-5.1,1.01-9.85,3.01-14.26,2.01-4.4,4.9-7.97,8.69-10.68,3.79-2.72,8.31-4.08,13.55-4.08,4.46,0,8.24,1.04,11.33,3.12,3.09,2.08,5.43,4.75,7.03,8.01,1.59,3.26,2.39,6.65,2.39,10.18,0,.45,0,.93-.03,1.43-.02.5-.06.99-.11,1.46-.05.47-.12.91-.19,1.32h-36.61l.28-3.71h26.65c0-3.19-.37-6.16-1.1-8.91-.73-2.76-1.92-4.99-3.57-6.69-1.65-1.7-3.86-2.56-6.63-2.56s-5.22.73-7.11,2.19c-1.89,1.46-3.4,3.34-4.53,5.65-1.13,2.31-1.92,4.76-2.39,7.37-.47,2.61-.7,5.05-.7,7.34,0,4.09.53,8.02,1.6,11.81,1.07,3.79,2.94,6.9,5.62,9.34,2.68,2.44,6.4,3.65,11.16,3.65,2.81,0,5.3-.38,7.48-1.15,2.17-.77,4.06-1.68,5.65-2.73s2.88-1.99,3.85-2.81h.56v4.05c-2.22,2.18-5.19,4.24-8.91,6.19s-7.83,2.93-12.29,2.93Z"/>
          <path class="cls-1" d="M393.39,362.14v-2.53l6.13-1.41c.75-.19,1.36-.56,1.83-1.13.47-.56.7-1.25.7-2.08v-37.06c0-.98-.26-1.8-.79-2.48s-1.43-1.24-2.7-1.69l-5.17-1.85v-1.52l17.83-3.88v9.11c1.91-2.66,3.82-4.67,5.73-6.04,1.92-1.37,3.86-2.29,5.85-2.78,1.99-.49,4.01-.73,6.07-.73,3.26,0,6.21.66,8.86,1.97,2.64,1.31,4.74,3.39,6.3,6.24,1.56,2.85,2.33,6.56,2.33,11.13v29.35c0,.94.25,1.69.76,2.28s1.09.97,1.77,1.15l5.4,1.41v2.53h-25.98v-2.53l6.19-1.41c.71-.19,1.29-.57,1.74-1.15s.68-1.34.68-2.28v-25.81c0-3.38-.29-6.3-.87-8.77-.58-2.48-1.73-4.4-3.46-5.77-1.73-1.37-4.31-2.05-7.76-2.05-2.25,0-4.62.45-7.11,1.38-2.49.92-4.56,2.43-6.21,4.52v36.72c0,.86.23,1.56.71,2.1.47.55,1.08.91,1.83,1.1l5.4,1.41v2.53h-26.04Z"/>
          <path class="cls-1" d="M487.68,363.55c-4.88,0-9.17-1.1-12.88-3.29s-6.61-5.41-8.68-9.64c-2.08-4.24-3.12-9.41-3.12-15.52,0-5.1,1.01-9.85,3.01-14.26,2.01-4.4,4.9-7.97,8.69-10.68,3.79-2.72,8.31-4.08,13.55-4.08,4.46,0,8.24,1.04,11.33,3.12,3.09,2.08,5.43,4.75,7.03,8.01,1.59,3.26,2.39,6.65,2.39,10.18,0,.45,0,.93-.03,1.43-.02.5-.06.99-.11,1.46-.05.47-.12.91-.19,1.32h-36.61l.28-3.71h26.65c0-3.19-.37-6.16-1.1-8.91-.73-2.76-1.92-4.99-3.57-6.69-1.65-1.7-3.86-2.56-6.63-2.56s-5.22.73-7.11,2.19c-1.89,1.46-3.4,3.34-4.53,5.65-1.13,2.31-1.92,4.76-2.39,7.37-.47,2.61-.7,5.05-.7,7.34,0,4.09.53,8.02,1.6,11.81,1.07,3.79,2.94,6.9,5.62,9.34,2.68,2.44,6.4,3.65,11.16,3.65,2.81,0,5.3-.38,7.48-1.15,2.17-.77,4.06-1.68,5.65-2.73s2.88-1.99,3.85-2.81h.56v4.05c-2.22,2.18-5.19,4.24-8.91,6.19s-7.83,2.93-12.29,2.93Z"/>
          <path class="cls-1" d="M518.7,362.14v-2.53l6.24-1.41c.75-.19,1.36-.56,1.83-1.13.47-.56.7-1.25.7-2.08v-36.95c0-.97-.26-1.82-.79-2.53-.53-.71-1.43-1.29-2.7-1.74l-5.17-1.85v-1.52l17.49-3.88v12.31c1.2-1.95,2.58-3.91,4.13-5.88,1.55-1.97,3.38-3.61,5.48-4.92,2.1-1.31,4.52-1.97,7.25-1.97,2.14,0,3.71.17,4.72.51,1.01.34,2.16.73,3.43,1.18v13.15h-2.87l-1.8-4.72c-.3-.75-1.16-1.3-2.59-1.66-1.43-.36-2.72-.53-3.88-.53-1.8,0-3.47.29-5.01.87-1.54.58-2.98,1.45-4.33,2.59s-2.66,2.58-3.94,4.3v33.24c0,1.84.84,2.9,2.53,3.2l7.25,1.41v2.53h-28.01Z"/>
        </g>
        <g>
          <path class="cls-2" d="M401.84,435.89c-3.61,0-6.99-.69-10.14-2.08-3.15-1.38-5.91-3.31-8.3-5.79-2.39-2.48-4.25-5.33-5.59-8.57-1.34-3.23-2.01-6.7-2.01-10.41s.66-7.1,1.98-10.34c1.32-3.23,3.17-6.08,5.56-8.53s5.15-4.38,8.3-5.79c3.14-1.4,6.54-2.11,10.21-2.11,3.21,0,6.13.47,8.77,1.41,2.63.94,5.17,2.43,7.63,4.48.4.31.64.68.7,1.1.07.43,0,.83-.17,1.2-.18.38-.45.66-.8.84-.09.36-.31.63-.67.8-.36.18-.77.25-1.24.2s-.93-.25-1.37-.6c-1.74-1.52-3.64-2.64-5.69-3.38-2.06-.74-4.44-1.1-7.16-1.1-2.9,0-5.61.58-8.13,1.74-2.52,1.16-4.74,2.74-6.66,4.75-1.92,2.01-3.43,4.33-4.52,6.96-1.09,2.63-1.64,5.42-1.64,8.37s.55,5.87,1.64,8.5c1.09,2.63,2.6,4.95,4.52,6.96,1.92,2.01,4.13,3.58,6.66,4.72,2.52,1.14,5.23,1.71,8.13,1.71,2.45,0,4.77-.4,6.96-1.2,2.18-.8,4.26-1.96,6.23-3.48.53-.45,1.1-.63,1.7-.54.6.09,1.13.36,1.58.8s.67,1.03.67,1.74c0,.36-.05.68-.14.97-.09.29-.29.6-.6.9-2.28,2.1-4.82,3.58-7.63,4.45-2.81.87-5.74,1.31-8.77,1.31ZM418.97,428.26l-5.09-1.07v-13.45h-10.44c-.76,0-1.39-.22-1.88-.67s-.74-1.01-.74-1.68.25-1.21.74-1.64,1.12-.64,1.88-.64h12.92c.76,0,1.38.23,1.88.7.49.47.74,1.08.74,1.84v16.6Z"/>
          <path class="cls-2" d="M450.56,436.29c-4.06,0-7.67-.78-10.81-2.34s-5.6-3.72-7.36-6.49c-1.77-2.77-2.64-5.94-2.64-9.51v-32.4c0-.76.24-1.39.74-1.88.49-.49,1.11-.74,1.87-.74s1.39.25,1.88.74c.49.49.74,1.12.74,1.88v32.4c0,2.63.66,4.95,1.97,6.96,1.32,2.01,3.16,3.58,5.52,4.72,2.36,1.13,5.06,1.7,8.1,1.7s5.64-.57,7.97-1.7c2.32-1.14,4.14-2.71,5.45-4.72,1.32-2.01,1.97-4.33,1.97-6.96v-32.4c0-.76.25-1.39.74-1.88.49-.49,1.12-.74,1.88-.74.8,0,1.44.25,1.91.74.47.49.71,1.12.71,1.88v32.4c0,3.57-.88,6.74-2.65,9.51-1.76,2.77-4.19,4.93-7.29,6.49-3.1,1.56-6.66,2.34-10.67,2.34Z"/>
          <path class="cls-2" d="M499.56,435.22c-.71,0-1.33-.26-1.84-.77-.51-.52-.77-1.13-.77-1.84v-16.73l-18.21-28.85c-.45-.67-.61-1.32-.5-1.94.11-.62.39-1.13.84-1.54s1.01-.6,1.67-.6c.54,0,.97.11,1.31.34s.64.53.9.94l18.07,29.12h-2.81l18-28.98c.31-.49.66-.85,1.04-1.07s.84-.34,1.37-.34c.63,0,1.15.21,1.58.64.42.42.67.95.73,1.58.07.62-.1,1.25-.5,1.87l-18.27,28.85v16.73c0,.71-.26,1.33-.77,1.84s-1.13.77-1.84.77Z"/>
          <path class="cls-2" d="M544,435.89c-2.86,0-5.5-.41-7.93-1.24-2.44-.83-4.54-1.99-6.33-3.51-1.78-1.52-3.15-3.28-4.08-5.29-.36-.71-.37-1.37-.04-1.98.34-.6.9-1.01,1.71-1.24.63-.18,1.24-.11,1.84.2.6.31,1.06.78,1.37,1.41.67,1.29,1.65,2.45,2.95,3.48,1.29,1.03,2.83,1.82,4.62,2.38,1.79.56,3.75.83,5.89.83,2.37,0,4.46-.39,6.29-1.17,1.83-.78,3.27-1.92,4.32-3.42,1.05-1.49,1.58-3.31,1.58-5.45,0-2.72-1.01-5.06-3.01-7.03s-5.15-3.22-9.44-3.75c-5.22-.62-9.3-2.24-12.25-4.85-2.95-2.61-4.42-5.81-4.42-9.6,0-2.72.72-5.09,2.18-7.1,1.45-2.01,3.45-3.56,5.99-4.65,2.54-1.09,5.47-1.64,8.77-1.64,2.45,0,4.69.39,6.69,1.17,2.01.78,3.76,1.8,5.25,3.08,1.5,1.27,2.71,2.67,3.65,4.18.45.71.59,1.4.44,2.07-.16.67-.55,1.18-1.17,1.54-.67.31-1.35.36-2.04.13-.69-.23-1.22-.65-1.58-1.27-.67-1.03-1.5-2-2.51-2.91-1-.91-2.22-1.64-3.65-2.18-1.43-.53-3.15-.83-5.15-.87-3.53,0-6.36.75-8.5,2.24-2.14,1.5-3.22,3.67-3.22,6.53,0,1.52.41,2.91,1.21,4.18s2.13,2.37,3.98,3.28c1.85.91,4.34,1.6,7.46,2.04,5.58.8,9.72,2.51,12.42,5.12,2.7,2.61,4.05,6.01,4.05,10.21,0,2.41-.43,4.55-1.3,6.43-.87,1.88-2.1,3.45-3.68,4.72-1.58,1.28-3.43,2.24-5.55,2.91-2.12.67-4.39,1.01-6.8,1.01Z"/>
        </g>
        <g>
          <path class="cls-2" d="M41.08,201.79c-.71,0-1.3-.22-1.74-.67s-.67-1-.67-1.67c0-.71.22-1.29.67-1.74.45-.44,1.03-.67,1.74-.67h37.02c.71,0,1.29.23,1.74.67.45.45.67,1.03.67,1.74,0,.67-.23,1.23-.67,1.67s-1.03.67-1.74.67h-37.02ZM59.55,249.31c-.71,0-1.33-.26-1.84-.77s-.77-1.13-.77-1.84v-49.67h5.22v49.67c0,.71-.25,1.33-.74,1.84-.49.51-1.12.77-1.87.77Z"/>
          <path class="cls-2" d="M90.81,249.31c-.76,0-1.38-.24-1.88-.74-.49-.49-.73-1.11-.73-1.87v-47.05c0-.76.24-1.38.73-1.87.49-.49,1.11-.74,1.88-.74s1.38.25,1.87.74c.49.49.74,1.12.74,1.87v20.88h32.66v-20.88c0-.76.24-1.38.74-1.87s1.11-.74,1.87-.74,1.38.25,1.88.74c.49.49.73,1.12.73,1.87v47.05c0,.76-.24,1.38-.73,1.87s-1.12.74-1.88.74-1.38-.24-1.87-.74c-.49-.49-.74-1.11-.74-1.87v-21.49h-32.66v21.49c0,.76-.25,1.38-.74,1.87-.49.49-1.12.74-1.87.74Z"/>
          <path class="cls-2" d="M147.3,249.31c-.76,0-1.38-.24-1.88-.74-.49-.49-.73-1.11-.73-1.87v-47.05c0-.76.24-1.38.73-1.87.49-.49,1.11-.74,1.88-.74h31.39c.71,0,1.33.23,1.84.7.51.47.77,1.08.77,1.84,0,.67-.26,1.25-.77,1.74-.51.49-1.13.73-1.84.73h-28.78v18.47h20.95c.76,0,1.38.24,1.87.74s.74,1.09.74,1.81-.25,1.32-.74,1.81c-.49.49-1.12.73-1.87.73h-20.95v18.68h28.78c.71,0,1.33.24,1.84.74.51.49.77,1.07.77,1.74,0,.76-.26,1.37-.77,1.84-.51.47-1.13.7-1.84.7h-31.39Z"/>
        </g>
        <g>
          <path class="cls-2" d="M65.17,351.68c-1.06-1.37-2.02-2.82-2.86-4.37-5.29-9.72-6.59-21.45-4.26-32.21,3.04-14.09,11.78-26.52,22.74-35.89,5.96-5.1,13.35-9.77,21.46-9.81,8.28-.04,15.25,3.48,21.38,8.87,3.57,3.13,6.94,6.73,9.62,10.67l-13.44,10.74s-6.07-5.65-8.64-7.95c-4.37-3.9-9.6-6-15.31-3.78-2.75,1.07-5.17,2.83-7.44,4.72-7.71,6.41-14.08,14.76-16.79,24.42-2.31,8.24-2.08,19.71,3.3,26.81,5.25,6.94,13.44,11.32,21.95,12.76.86.14,1.72.26,2.58.34,10.32,1.01,20.76-2.01,29.75-7.18,4.43-2.55,8.64-5.7,11.48-9.94,1.25-1.87,2.24-4.02,2.24-6.27,0-2.36-1.08-4.57-2.19-6.65-1.65-3.12-4.22-8.34-8.03-9.19-.8-.18-29.78,16.42-34.6,19.19-.39.22-.88.12-1.15-.23l-2.37-3.1c-.3-.4-.22-.97.18-1.26l45.23-33.12c2.01-1.22,3.18-1.73,4.6.03,1.41,1.76,3.57,4.65,4.61,6.02,1.48,1.93-1.11,3.6-3.13,4.89-3.51,2.25,1.59,8.19,2.9,10.37,2.34,3.89,4.61,8.1,4.51,12.78-.15,6.91-5.4,12.58-10.75,16.95-11.65,9.51-25.88,16.48-40.9,17.06-13.41.52-28.27-4.83-36.68-15.68Z"/>
          <path class="cls-4" d="M329.89,204.27s-29.12-39.96-29.35-40.34c-.32-.52-1.56.02-2.26.36-.7.34-2.92,2.11-2.92,2.11-1.26.88-2,2.03-1.62,2.51l10.57,14.1c.5.67.35,1.63-.34,2.1l-154.33,106.54c-.49.35-.6,1.03-.25,1.52l5,6.89c.34.47.98.59,1.46.27,5.4-3.5,131.08-88.37,155.72-104.92.67-.45,1.57-.28,2.03.38,5.12,7.24,9.31,13.16,9.5,13.47.32.52,1.56-.02,2.26-.36.7-.34,2.92-2.11,2.92-2.11,1.26-.88,2-2.03,1.62-2.51Z"/>
        </g>
      </g>
    </g>
  </g>
</svg>