<?xml version="1.0" encoding="UTF-8"?>
<svg xmlns="http://www.w3.org/2000/svg" viewBox="0 0 600 600">
  <defs>
    <style>
      .cls-1 {
        mix-blend-mode: multiply;
      }

      .cls-1, .cls-2, .cls-3, .cls-4, .cls-5, .cls-6 {
        stroke-width: 0px;
      }

      .cls-1, .cls-5 {
        fill: #e7b668;
      }

      .cls-2 {
        fill: #ffeef7;
      }

      .cls-7 {
        isolation: isolate;
      }

      .cls-3 {
        fill: #db8dbc;
      }

      .cls-4 {
        fill: #130d0a;
      }

      .cls-6 {
        fill: #eee9e4;
      }
    </style>
  </defs>
  <g class="cls-7">
    <g id="Layer_2" data-name="Layer 2">
      <g id="LOGOS">
        <g>
          <rect class="cls-2" width="600" height="600" rx="30" ry="30"/>
          <g>
            <path id="cesto" class="cls-5" d="M523.01,314.34c-6.25-4.97-20.02-9.25-22.04-9.29,16.33-15-6.59-34.15-23.16-26.84-8.43,1.48-24.3,11.47-34.46,13.81-5.45,1.26-6.13-12.61-6.13-18.94.41.02,12.3-4.88,17.53-9.32,3.5-4.36,2.99-15.36-3.28-15.65-4.15.18-12.38.69-17.03,2.48-.49-8.21-1.07-16.39-2.07-24.41-3.05-11.58-25.28-9.17-31.53.32-3.91,10.59-3.6,23-3.89,34.19-9.35,1.55-20.18,6.39-11.6,18,2.03,2.5,10.57,1.48,14.54,7.69,1.4,4.9,3.47,12.54,5.72,21.14-8.82-6.45-27.89-1.95-27.11,11.11.72,8.19-.05,17.41-3.55,25.04-8.62,6.02-17.52-4.61-17.55-5.34-.14-9.13-4.86-18.77-13.67-22.33-7.18-2.9-14.72-.76-17.89,6.17-11.42-16.3-29.82-4.08-41,5.81-6.74-17.93-34.01-22.21-41.97-2.71-.12-1.39-10.28-22.1-21.18-24.5-11.28-1.77-24.1-4.47-35.37-1.9.96-13.99-6.6-24.2-13.76-36.71-8.23-14.35-25.62-21.81-40.68-28.5-7.95-3.52-27.43,3.06-33.51,9.9-15.83,23.98-24.6,42.17-29.21,71.27-1.51,8.23-7.32,25.55.65,36.23,4.02,5.38,23.27,19.56,43.66,20.39,20.66.84,42.47-11.71,47.8-15.17-.09,36.24,56.02,41.82,70.23,11.05-.58,15.43,10.37,27.73,22.45,31.57,11.51,3.66,24.04-.35,28.6-16.65,1.82,10.44,12.31,16.35,22.54,16.29,5.57-.03,18.9-8.11,24.9-14.45,7.15,5.44,19.03,7.99,24.99,8.85,11.67,2.06,23.43-6.06,30.08-14.97,3.07,3.18,10.27,2.39,13.74,4.28,4.58,2.51,17.54-5.35,23.67-11.86,8.06,16.01,55.32,3.99,60.05-12.48,2.13,1.56,3.19,2.85,4.95,4.24.02.03.03.04.05.06h.02c15.84,10.95,38.92,4.66,49.34-11.28,6.31-9.44-11.2-34.44-13.89-36.57ZM111.16,286.73c-8.89-.48-10.14-4.8-12.09-5.53-.94-.36,6.15-15.05,6.23-15.21,2.38.77,18.64,4.8,21.02,8.61.92,1.48-.7,12.9-15.15,12.12ZM208.99,342.06c-4.46,3.19-15.2-.83-17.79-2.26-2.16-1.19-1.63-13.21,5.3-15.12,7.32-2.02,13.55,3.02,13.61,3.03,1.71.54,3.46,11.07-1.12,14.35Z"/>
            <path id="tien" class="cls-1" d="M527.02,329.08c-1.67,11.94-14.72,13.96-23.51,15.17-6.84.94-10.96-1.08-17.09-3.69-4.23-1.8-7.48,4.09-11.81,5.78-8.29,3.22-14.18,6.3-22.22,10.38-4.1,2.08-8.91,3.39-13.42,2.92-5.41-.57-8.58-4.22-13.33-6.61-8.18-4.12-14.55.82-20.35,7.09-3.92,4.24-5.36,3.66-10.51,1.88-4.22-1.45-8.29-2.5-12.71-1.72-8.66,1.54-14.12,8.94-21.47,13.47-8.18,5.04-17.1,1.98-22.71-6.07-3.16-4.53-7.57-3.37-10.22,0-2.63-1.86-6.1-2-8.88,1.34-3.59,4.29-8.03,7.18-13.37,7.07-2.58-.05-5.17-.88-7.44-2.26-.67-.47-1.34-.93-2.01-1.4-.44-.68-.82-1.15-1.15-1.49.59-4.88-1.71-10.06-7.12-9.5-.33.03-.65.07-.98.1-2.38.24-5.21,1.33-6.4,3.96-3.72,3.02-7.45,6.05-11.17,9.07-4.65,3.78-7.68,6.99-13.51,4.58-8.74-3.62-15.29-11.97-18.1-21.91-1.57-5.54-6.67-7.73-11.16-5.16-11.28,6.45-23.63,10.14-36.29,10.3-5.6.07-11.1.05-13.32-6.81-1.64-5.08-1.19-11.01-.96-16.3.23-5.18-5.1-10.36-9.62-8.33-17.96,8.09-36.66,16.9-56.17,18.15-6.68.43-15.21.32-20.4-5.28-5.93-6.4-6.84-17.71-11.45-25.32-5.51-9.1-11.76-1.94-13.12,8.72-1.34,10.47-3.24,21.9,3.95,29.93,6.51,7.26,24.32,12.08,33.17,12.56,19.63,1.05,38.64.56,56.93-7.55,1.4,12.98,10.26,12.27,21.45,19.72,20.36,13.54,33.15-.9,45.76-10.83,5.02,10.73,13.03,19.26,23.24,23.89,6.07,2.75,13,4.38,19.1.89,5.43-3.1,10.54-7.55,15.54-11.95,3.4,3.66,8.55,5.29,12.27,7.89,12.34,8.61,24.58,4.56,32.36-9.68,6.19,7.49,15.22,11.75,24.3,11.51,10.59-.28,17.24-7.09,25.62-13.22,9.43-6.9,18.25,3.79,28.44-.73,4.15-1.84,6.92-5.46,10.15-8.74,2.81-2.86,2.51-1.82,5.58.4,2.09,1.51,4.37,2.67,6.7,3.6,9.98,3.97,21.11,1.82,30.45-3.25,2.82-1.53,9.45-4.44,22.43-6.29,8.7-1.24,15.98,1.01,31.16,1.44,10.59.3,22.65-10.24,24.37-22.59,1.52-10.87-9.46-26.07-10.99-15.1Z"/>
            <g id="poleva">
              <path class="cls-3" d="M359.16,335.23c-12.38-30.79-22.55-19.66-35.84-15.15-9.34,3.17-13.56-6.3-23.05-2.84-10.33,3.77-12,.34-18.11,3.77-3.24-13.22-23.21-12.35-32.26-4.83-13.33,1.76-21.33-13.08-34.63-16.17-8.81-4.2-18.4-5.49-26.5,1.16-12.05-11.76-10.64-29.11-22.64-40.69-56.74-78.16-91.61,15.01-73.23-.14,19.84-16.36,9.78,4.85,24.67,0,24.04-7.83,4.56,17.76,22.84,7.06,18.28-10.7-.31,61.38,16.7,37.26,11.76-17.58,16.46,10.11,28.25,13.58,6.76,1.79,6.8-16.05,15.38-5.36,8.58,10.69,12.76.34,17.67,4.89,3.36,3.11,4.72,10.83,9.66,12.46,13.59,4.5,17.7,0,28.61-2.23,8.58-1.75-1.26,23.43,5.04,33.76,3.65,7.51,18.88,4.38,23.57-3.28,4.65-7.6-.43-12.57,7.87-10.96s9.79,2.06,15.89-3.51c6.1-5.57-1.24-11.27,6.54-9.55,7.79,1.71,23.52-5.67,28.91,5.18,3.21,10.04,17.9,5.72,14.65-4.42Z"/>
              <path class="cls-3" d="M406.88,315.63c-6.05-10.35-24.31-13.83-28.36-4.1-9.49,19.07,7.98,19.9,14.42,13.81,4.76-4.5,18.21-2.32,13.95-9.71Z"/>
              <path class="cls-3" d="M496.83,278.19c-7.11-4.39-14.14.34-21.46.87-10.15.4-18.8,5.97-26.29,11.18-2.84,5.66-5.88,11.17-9.15,16.58-5.5,10.81,11.47,13.95,14.82,4.73,3.36-9.22,10.56,8.09,14.25,2.3,4.81-4.94-3.61-13.09,2.25-17.33,5.86-4.24,16.65-.9,21.67,7.29,15.33,6.31,14.09-20.8,3.91-25.63Z"/>
              <path class="cls-3" d="M451.03,244.48c-9.55,1.38-19.47-3.03-16.79-13.49-1.06-16.03-27.03-16.55-35-3.84-9.03,9.59,2.76,20.6-3.91,32.03-4.71,5.19-16.05-1.63-14.68,9.73,1.71,9.97,7.27.7,12.99-.55,5.72-1.25,5.29,5.9,14.05,2.86,8.76-3.04-5.92-20.66,7.58-20.66,12.47,0,5.27,10.46,16.81,7.25,10.99-3.07,10.26.37,14.9,1.32,9.53,1.96,13.46-11.76,4.04-14.65Z"/>
            </g>
            <g id="obrys">
              <path class="cls-4" d="M201.59,320.52c-2.53-.37-4.6-.84-6.82.73-6.67,4.7-8.69,18.48-5.08,21.94,1.37,1.31,5.59,2.04,8.96,2.61,11.03,1.84,15.36-1.07,17.07-8.62,1.73-7.68-2.75-15.02-14.14-16.66ZM207.01,340.56c-1.93,1.07-2.56.69-3.86.65h-.04c-2.93-.1-7.49-.63-8.94-2.3-1.47-1.65.21-12.52,4.53-12.68,2.17-.07,8.33,1.93,9.92,5.5,1.6,3.58.33,7.75-1.61,8.82Z"/>
              <path class="cls-4" d="M537.13,326.08c-5.2-9.72-14.31-19.44-25.64-20.91-2.23-.29-3.67-2.48-3.02-4.63,2.61-8.55,2.15-18.28-5.77-23.82-8.55-5.97-20.82-5.64-30.49-3.11-9.66,2.53-18.76,7.78-25.5,15.18-.57.63-1.18,1.3-2,1.53-2.96.81-2.88-5.65-3.09-7.3-.29-2.3-.27-4.63-.48-6.94-.17-1.86,1.13-3.57,2.99-3.86,23.87-3.68,24.64-37.42-1.26-30.84-2.16.54-4.3-.93-4.49-3.13-3.6-41.18-52.99-29.5-45.61,12.86.36,2.01-.99,4-3.02,4.22-13.36,1.45-17.15,18.37-7.61,26.96,3.47,3.12,7.08,3.11,11.42,3.69,6.71.9,9.4,17.12,2.27,15.29-38-9.72-14.58,36.93-27.95,40.79.15-.08-1.19-.17-1.41-.29h.03c-.29-.16-.57-.33-.87-.5-6.45-6.79-4.43-17.72-10.99-24.63-6.81-8.5-20.27-9.81-28.02-2.41-1.22,1.17-3.12,1.38-4.5.41-10.12-7.06-24.12-5.54-32.35,3.03-1.76,1.84-4.75,1.12-5.83-1.19-5.26-11.32-26.5-12.44-36.19-4.1-1.46,1.25-3.72,1.02-4.97-.47-11.26-13.53-31.74-21.6-49.12-18.15-1.73.34-3.83.22-4.85-1.22-.44-.61-.6-1.37-.76-2.1-4.21-19.6-15.24-38.49-31.08-50.97-14.13-11.13-34.51-18.25-51.52-9.33-10.43,5.47-17.01,16.08-22.75,26.38-8.48,15.23-15.97,31.19-20.24,48.15-3.94,15.65-7.28,34.93,1.82,49.36,1.91,3.02,4.22,5.79,6.85,8.21,7.66,7.04,17.63,11.19,27.84,13.2,10.28,2.02,20.88,2.48,31.28,1.13,5.28-.69,10.5-1.84,15.57-3.47,3.31-1.06,6.24-2.73,9.76-3.11.52-.06,1.09-.08,1.53.21.32.22.52.57.7.91,13.09,24.06,44.98,25.65,64.82,8.79,1.83-1.64,4.71-.92,5.67,1.34,8.28,19.62,38.93,30.13,51.84,10.9,1.3-1.93,4.02-2.04,5.58-.33,11.86,12.98,34.92,14.91,44.02-1.13,1.11-1.94,3.68-2.34,5.41-.94,15.87,12.77,43.14,5.46,52.77-8.34.46-.67,1.08-.1,1.08-.1,8.76,10.76,22.89,8.7,27.16-2.71.86-2.31,3.68-3.21,5.6-1.68,15.05,12.08,38.57,5.24,52.74-4.86,1.92-1.37,4.39-4.47,6.8-4.67,2.23-.18,4.57,1.76,6.64,2.44,2.11.7,4.23,1.28,6.42,1.65,4.46.74,9.04.73,13.51.08,8.95-1.29,17.71-5.1,24.39-11.24,2.79-2.56,5.2-5.53,7.02-8.85,4.14-7.54,1.98-17.38-1.78-24.69-.12-.24-.25-.48-.38-.72ZM133.25,365.45c-10.87,1.2-29.53.67-35.6-1.36-8.59-2.87-17.12-7.12-22.58-14.61-7.06-9.68-6.69-21.3-4.45-32.64,4.68-23.64,14.05-46.46,28.6-65.77,3.16-4.2,6.62-8.28,11.01-11.17,20.64-13.63,46.5,10.59,58.2,26.16.1.13.2.26.29.39,9.43,12.23,12.95,28.09,11.51,43.5-.92,9.98-3.92,19.75-8.73,28.22-8.25,14.51-27.38,26.09-38.25,27.29ZM168.72,366.5c-.26-.9-.44-1.82-.52-2.78-.72-8.42,7.05-14.72,10.35-21.77,8.55-18.27,7.02-30.44,14.03-37.18,9.64-9.29,26.67-1.52,38.74,6.84,15.41,10.97,7.38,32.46-1.16,45.31-7.44,11.2-16.9,20.8-30.49,24.02-5.95,1.41-12.31,1.26-17.96-1.26-5.5-2.46-11.19-7.12-12.99-13.19ZM313.84,392.73c-6.93,1.99-13.56-.59-18.91-5.04-2.24-1.86-4.23-3.98-6.19-6.13-1.88-2.06-3.85-4.89-7.04-3.97-2.63.76-4.61,3.38-6.09,5.55-2.76,4.06-5.34,9.53-10.48,10.8-4.42,1.09-8.98.59-13.1-1.34-7.99-3.74-12.67-10.89-18.12-17.41-.75-.9-1.49-1.86-1.8-2.99-.9-3.26,4.16-7.71,5.83-10.26,2.53-3.86,4.74-7.93,6.49-12.2,3.41-8.29,5.05-17.41,3.51-26.32-.13-.82,0-1.66.39-2.39,5.01-9.31,19.4-8.59,27.54-4.07.85.47,1.46,1.29,1.67,2.24,1.86,8.64-8.31,34.72,3.79,28.83.69-.34,1.26-.89,1.62-1.58,4.92-9.52,8.26-21.86,17.64-27.51.34-.21.72-.36,1.11-.45,9.4-2.14,19.12,2.03,22.56,11.37,9.51,19.99,5.19,58.37-10.43,62.85ZM404.89,379.43c-2.88,1.09-5.05-1.44-7.53-2.93-4.37-2.62-9.17-3.79-13.95-1.48-4.41,2.14-7.52,6.1-11.24,9.16-3.66,2.99-7.85,5.15-12.61,5.57-6.74.6-13.77-1.8-19.69-4.85-6.19-3.19-4.86-12.28-4.2-17.92.72-6.1,1.88-12.21,1.6-18.38-.24-5.33-2.35-9.9-3.52-15-1.05-4.58-3.01-14.84,3.09-16.98,3.16-1.11,6.9.77,9.57,2.29,11.37,6.46,5.17,32.91,23.56,31.26,18.4-2.65,5.9-27.04,11.09-39.26.21-.52.56-.98,1-1.31,5.32-3.97,14.88-2.5,19.5,2.43.36.4.61.88.76,1.39.14.45.26.91.39,1.37,2.83,9.88,5.41,19.87,6.85,30.06,1.25,8.92,1.8,18.13.27,27.05-.47,2.71-1.62,5.48-3.91,6.99-.36.23-.7.41-1.04.54ZM476.2,361.66c-.28.75-.79,1.4-1.44,1.83-61.69,39.76-55.36-18.68-68.96-61.82-.02-.11-.05-.21-.07-.32-.77-4.36-1.67-8.69-2.45-13.05-.36-2.01-.52-4.29-1.25-6.22-.31-.82-.48-1.37-1.32-1.7-.89-.35-2.38.11-3.29.07-2.83-.1-5.65-.73-8.25-1.86-.96-.41-1.9-.9-2.66-1.62-2.66-2.5-4.31-7.74-1.39-10.59s7.76-3.24,11.43-3.89c1.78-.32,3.05-1.91,2.96-3.72-.37-6.82-.53-14.37-.24-21.1v-.39c-2.3-17.27,21.55-24.1,30.72-10.88.01-.03,0-.09-.02-.2,1.78,6.17.44,19.22,3.22,22.69,2.78,3.46,5.92,1.06,8.31.6,2.39-.48,13.15-5.97,14.01,2.76,1.18,13.75-17.1,15.41-19.9,16.02-.92.18-1.56,1.01-1.53,1.95,1.3,37.97,3.61,80.59,39.74,81.01,4.45.84,3.49,7.47,2.41,10.41ZM525.1,355.94c-5.25,3.92-12.11,6.29-18.68,7.2-5.19.72-11.1,1.01-16.24-.31-7.32-1.88-6.01-10.14-4.55-15.72.67-2.54,3.37-10.49-1.98-9.39-.74.16-1.41.6-1.91,1.16-17.26,19.29-38.57-14.23-36.7-33.75.02-.26.07-.5.14-.75,6.42-22.42,57.19-41.46,57.88-7.98,0,.65-.15,1.34-.51,1.89-5.3,8.21-18.79,7.92-24.07,17.15-.24.42-.39.91-.44,1.4-1.03,13.28,21.47-18.38,40.9-4.26,7.73,5.62,13.76,14,14.95,23.69,1.07,8.7-2.82,15.21-8.81,19.69Z"/>
              <path class="cls-4" d="M126.33,269.48c-2.61-2.65-6.07-4.33-9.51-5.64-13.15-4.99-22.57,3.2-21.04,18.36.4,4.02,3.1,5.59,5.42,6.7,2.81,1.36,5.79,2.16,8.9,2.45,5.87.55,12.23-.92,16.7-4.94,2.3-2.09,3.75-5.07,3.69-8.2-.05-3.36-1.86-6.4-4.16-8.72ZM102.2,278.94c.68-4.11.42-11.37,7.99-10.71,9.71.85,12.47,3.17,13.13,8.99.66,5.82-2.9,7.34-7.67,8.2-6.41,1.15-14.13-2.37-13.46-6.48Z"/>
            </g>
            <g>
              <g>
                <path class="cls-3" d="M237.38,290.36c-3.04-.07-5.99-.6-8.79-1.6-5.3-1.89-9.87-5.27-13.58-10.05-1.4-1.81-2.66-3.72-3.86-5.6-1.28,1.2-2.56,2.34-3.82,3.42-2.21,1.88-4.43,3.61-7.43,4.17-.69.13-1.38.19-2.07.17-3.02-.07-5.53-1.51-6.89-3.95-2.06-3.7-.49-7.82.66-10.82.97-2.55,2.32-5.74,4.32-8.43,2.43-3.27,5.25-5.08,8.38-5.36.35-.03.68-.04,1.02-.04,2.47.05,4.75,1.09,6.93,3.15,3.58-4.04,6.92-8.14,9.78-11.71l1.33-1.67c-.84-1.51-1.58-3.07-2.19-4.67-2.01-5.28-3-11.21-2.86-17.17.07-3.08.44-6.23,1.08-9.38.14-.66,1.12-3.66,1.82-5.61-.38-.91-.43-1.98-.1-3.01.63-1.95,2.4-3.23,4.42-3.18,1.08.02,2.15.43,3,1.14,2.75,2.3,1.85,5.9,1.32,8.05-.08.33-.16.64-.22.93-1.31,6.23-1.58,11.7-.83,16.72.23,1.58.75,4.25,1.79,7.17,3.56-4.37,7.36-8.87,11.4-13.1,3.66-3.84,7.47-7.31,11.33-10.34l.31-.25c3.19-2.5,7.55-5.92,12.42-5.81.99.02,1.98.19,2.92.5,7.43,2.45,6.77,11.77,6.52,15.27-.38,5.34-1.94,10.61-4.64,15.66-4.53,8.51-14.07,18.88-26.01,20.11-.81.08-1.63.12-2.44.1h0c-4.1-.09-8.05-1.53-11.54-4.19-3.8,4.73-7.59,9.35-11.6,13.79,3.67,5.57,7.2,10.78,13.16,12.68,1.56.5,3.17.77,4.78.8,2.56.06,5.06-.5,7.23-1.61,1.57-.8,2.98-1.89,4.48-3.05l.66-.51c.58-.45,1.18-.87,1.77-1.3,1.33-.95,2.58-1.85,3.65-2.94.7-.72,1.65-1.1,2.68-1.07,1.1.02,2.14.5,2.84,1.31.65.75.95,1.71.84,2.7-.27,2.37-.73,5.13-2,7.55-3.33,6.34-10.8,9.09-13.86,9.98-2.59.75-5.33,1.11-8.15,1.04ZM237.34,242.95c1.58,1.07,3.28,1.62,5.16,1.66,3.93.05,8.11-2.03,12.53-6.18,3.53-3.31,6.27-7.23,7.92-11.32,1.31-3.25,2.66-7.87,2.01-12.08-.03.01-.05.03-.08.04-1.67.87-3.25,2.23-4.79,3.55l-.61.52c-8.33,7.09-15.28,15.29-22.15,23.81Z"/>
                <path class="cls-4" d="M227.48,208.69c-.2.74-.38,1.48-.5,2.24-.44,2.72-.78,5.43-.84,8.19-.05,2.37.08,4.74.42,7.08.51,3.45,1.61,7.57,3.43,11.22,4.38-5.45,8.83-10.85,13.66-15.91,3.46-3.63,7.14-7.02,11.09-10.11,3.11-2.43,7.08-5.67,11.28-5.58.75.02,1.5.14,2.26.39,5.32,1.75,5.29,8.34,4.96,12.95-.37,5.18-1.94,10.18-4.37,14.75-4.72,8.85-13.83,17.84-24.23,18.91-.73.08-1.45.1-2.15.09-4.66-.1-8.67-2.13-11.9-5.16-4.44,5.55-8.91,11.09-13.71,16.32-.15.16-.3.32-.46.48,4.1,6.2,8.05,12.76,15.35,15.09,1.76.56,3.59.87,5.42.91,2.86.06,5.73-.54,8.32-1.87,2.83-1.45,5.24-3.53,7.38-5.86,1.04-1.13,2.07-2.2,3.62-2.54,1.15-.25,2.44.15,2.93,1.28.23.51.28,1.09.26,1.65-.08,2.35-1.38,4.51-2.81,6.29-1.4,1.74-3.09,3.23-4.96,4.44-1.57,1.03-3.27,1.86-5.03,2.52-.66.24-1.33.47-2,.66-2.39.7-4.93,1.01-7.46.95-2.76-.06-5.52-.56-8.07-1.47-5.06-1.8-9.27-5.08-12.54-9.3-1.92-2.47-3.55-5.14-5.23-7.77.16.24-3.75,3.65-4.16,4.02-1.51,1.34-2.94,2.58-4.71,3.59-2.35,1.35-5.58,2.13-8,.5-3.54-2.39-2.37-6.87-1.2-10.21,2.06-5.87,7.41-16.26,15.11-11.91,1.43.81,2.61,2,3.63,3.28-.08-.09,5.25-5.97,5.72-6.53,1.98-2.35,3.92-4.74,5.84-7.14.77-.96,1.54-1.93,2.31-2.9-1.12-1.81-2.07-3.72-2.82-5.68-1.95-5.11-2.84-10.84-2.71-16.3.12-5.18,1.19-10.13,2.98-14.99.41-1.12.98-2.22,1.9-2.98,1.03-.86,2.84-1.06,3.14.61.07.41.03.83-.03,1.24-.22,1.56-.7,3.05-1.11,4.56ZM242.45,246.89s.08,0,.12,0c5.35.07,10.27-3.28,14.02-6.8,3.6-3.38,6.62-7.53,8.47-12.13,1.77-4.38,3.05-9.79,1.91-14.5-.2-.82-.61-1.11-1.13-1.12-.59-.01-1.32.34-2.02.71-2.13,1.11-4,2.8-5.82,4.35-9,7.66-16.5,16.7-23.86,25.88,2.21,2.13,4.94,3.54,8.3,3.61M199.83,270.86c1.28-.85,2.43-2.12,3.49-3.08,1.44-1.3,2.83-2.65,4.2-4.01-.56-.68-1.13-1.34-1.75-1.95-.28-.27-.42-.42-.59-.42-.15,0-.34.1-.67.34-1.82,1.29-2.93,4.16-3.74,6.14-.38.93-.62,2-.94,2.99M225.79,197.82c-2.77.71-4.83,3.44-6.24,6.02-1.12,2.04-1.91,4.25-2.38,6.53-.67,3.28-1.05,6.57-1.13,9.78-.15,6.25.89,12.49,3.01,18.04.47,1.22,1,2.43,1.6,3.61l-.39.49c-2.45,3.06-5.26,6.52-8.27,9.98-2.07-1.46-4.29-2.22-6.61-2.27-.42,0-.85,0-1.27.04-4.75.43-8.09,3.59-10.64,7.35-2.63,3.88-4.51,8.27-5.47,12.86-.56,2.66-.37,5.37.97,7.79,1.74,3.13,5.04,5.04,8.83,5.12.84.02,1.69-.05,2.54-.21,3.54-.67,6.13-2.68,8.49-4.68.63-.53,1.26-1.09,1.9-1.66.79,1.18,1.61,2.35,2.5,3.5,3.98,5.13,8.89,8.77,14.61,10.81,3.03,1.08,6.22,1.66,9.51,1.73,8.85.19,18.67-3.76,23.61-11.39,2.73-4.21,5.12-13.27-1.42-15.45-6.21-2.07-10.39,5.47-14.9,8.19-3.45,2.08-7.66,2.52-11.48,1.3-4.71-1.51-7.87-5.65-10.98-10.3,3.15-3.54,6.16-7.19,9.17-10.92,3.41,2.15,7.16,3.3,11.04,3.39.9.02,1.81-.02,2.72-.11,12.84-1.32,22.99-12.3,27.79-21.3,2.85-5.34,4.5-10.92,4.9-16.57.26-3.61,1.04-14.59-8.08-17.6-1.16-.38-2.36-.59-3.59-.62-4.57-.1-8.69,2.28-12.23,4.94-3.85,2.9-7.5,6.13-10.93,9.51-.88.87-1.75,1.75-2.6,2.65-3.06,3.21-5.99,6.57-8.77,9.9-.25-1.09-.41-2.02-.52-2.73-.35-2.36-.45-4.74-.35-7.12.11-2.53.39-5.03.92-7.51.58-2.7,1.11-5.31.9-8.08-.17-2.22-1.13-4.08-3.34-4.82-1.24-.41-2.37-.43-3.4-.17ZM240.94,242.12c6.21-7.62,12.57-14.91,20.02-21.25l.61-.52c.38-.33.76-.65,1.13-.97-.26,2.1-.89,4.43-1.87,6.87-1.53,3.79-4.08,7.42-7.37,10.51-2.73,2.57-6.83,5.62-10.84,5.57h-.08c-.55-.01-1.08-.08-1.6-.21h0Z"/>
              </g>
              <g>
                <path class="cls-3" d="M300.72,296.52c-3.47,0-6.64-.99-9.15-2.88-4.14-3.1-6.62-8.16-7.58-15.47-1.08-8.28.02-16.62,1.24-23.7,1.3-7.51,3.19-17.36,6.34-26.91,1.99-6.04,4.5-12.92,9.21-18.19,2.15-2.41,4.4-4.02,6.67-4.79,1.11-.37,2.23-.56,3.34-.56,1.55,0,3.11.36,4.75,1.1,1.22.55,1.89,1.8,1.66,3.12-.01.07-.03.13-.04.2,1.73.53,3.05,1.91,3.45,3.75,1.24,5.62,2.19,11.37,3.1,16.92.43,2.59.85,5.18,1.31,7.76,1.75,9.92,3.39,18.21,5.66,26.45.85,3.08,2.03,7.11,3.64,10.94l.42.94c.16.35.32.69.49,1.03.31.63.64,1.26.99,1.88.39.68.77,1.29,1.15,1.85l.33.45.3.36c.32.37.68.69,1.04,1.02.08.05.41.26.5.31.3.17.56.27,1.27.41.03,0,.08,0,.14,0,0,0,.56-.03.71-.03.23-.05.45-.11.68-.17.06-.02.12-.04.18-.06.54-.24,1.1-.56,1.73-1,.26-.18.83-.66,1.48-1.3.54-.54,1.08-1.12,1.64-1.79,1.61-1.92,3.5-4.94,5.31-8.49.25-.49.49-1,.72-1.5.39-.84.8-1.71,1.29-2.57.28-.49.59-.98.9-1.46l.11-.18c.08-.13.16-.26.24-.39.02-.03.05-.07.08-.11.91-1.81,2.55-2.87,4.43-2.87,1.48,0,2.96.64,4.06,1.76.61.62,1.06,1.34,1.33,2.11l.31.08v1.78c0,.42-.06.81-.14,1.18-.51,3.23-2.2,6.22-3.69,8.87l-.49.86c-1.82,3.25-4.69,8-8.72,11.6-3.77,3.36-7.83,5.14-11.75,5.14h0c-.35,0-.71-.01-1.06-.04-4.2-.34-8.01-2.32-10.74-5.57-4.11-4.89-6.46-10.92-8.36-17.36-.72,9.09-3.39,21.42-14.53,24.64-2.01.58-4.01.88-5.94.88ZM310.16,212.24c-1.74,1.13-3.31,2.93-4.73,5.4-3.56,6.19-5.38,13.6-6.94,20.67-1.74,7.87-3.51,16.24-4.32,24.48-.58,5.83-.89,11.99.72,17.54.48,1.65,1.29,3.28,1.8,3.89.26.31.56.62.91.93.09.08.17.13.24.18,0,0,.63.39.69.43.07.02.21.06.46.12.56.16,1.13.22,1.74.22,2.13,0,4.43-.8,5.58-1.94,2.61-2.58,3.54-7.49,4.01-10.95.79-5.73.69-11.65.52-17.22-.07-2.35-.18-4.7-.29-7.05-.15-3.2-.3-6.51-.35-9.78-.06-3.87-.06-7.73-.07-11.6,0-4.6-.01-9.36-.11-14.03,0-.44.03-.88.13-1.29Z"/>
                <g>
                  <path class="cls-4" d="M368.1,264.25c-.63-3.23-3.92-5.79-7.15-5.93-4.07-.17-6.51,2.9-8.25,6.16-2.18,4.09-3.99,8.46-6.98,12.06-1.04,1.26-2.25,2.52-3.64,3.39-.25.15-.52.3-.81.31-1.02.05-1.8-1.32-2.3-2.04-.65-.93-1.22-1.91-1.74-2.92-1.05-2.06-1.86-4.23-2.57-6.43-.65-2.04-1.21-4.1-1.78-6.16-2.25-8.16-3.87-16.39-5.61-26.24-.45-2.57-.88-5.16-1.31-7.74-.89-5.37-1.5-10.81-2.92-16.08-1.61-5.97-5.59-10.92-12.26-10.92-1.36,0-2.73.23-4.07.69-2.65.9-5.22,2.73-7.64,5.43-5,5.6-7.61,12.74-9.67,19-3.19,9.71-5.11,19.66-6.42,27.24-1.25,7.24-2.38,15.81-1.26,24.38,1.04,7.95,3.81,13.51,8.47,17,2.91,2.18,6.55,3.33,10.52,3.33,2.14,0,4.35-.33,6.57-.97,8.84-2.56,12.88-9.98,14.76-17.53-.15.6,1.17,2.51,1.47,3.08.55,1.04,1.13,2.08,1.78,3.06,1.07,1.62,2.12,3.22,3.53,4.58,2.83,2.73,6.54,4.56,10.45,5.02,9.44,1.12,16.75-5.65,21.64-12.94,1.91-2.85,3.65-5.86,5.15-8.94,1.44-2.96,2.54-6.23,2.09-9.56-.02-.12-.04-.23-.06-.35ZM363.86,266.32c0,.24-.04.49-.1.74-.48,3.19-2.41,6.34-3.93,9.06-2.21,3.97-4.84,7.96-8.25,11-2.82,2.52-6.37,4.56-10.24,4.56-.29,0-.58-.01-.88-.04-3.61-.29-6.86-1.99-9.18-4.76-4.99-5.95-7.31-14.05-9.27-21.42-1.17-4.42-2.14-8.88-3.01-13.36.16,4.1.27,8.19.18,12.3-.23,10.26-1.27,25.59-13.17,29.04-1.72.5-3.52.79-5.3.79-2.77,0-5.49-.7-7.78-2.42-4.36-3.27-6-8.76-6.68-13.94-1-7.64-.08-15.47,1.23-23.01,1.55-8.97,3.41-17.93,6.25-26.59,2-6.08,4.41-12.54,8.74-17.39,1.53-1.71,3.49-3.4,5.7-4.15,1.9-.64,3.92-.77,5.73.21,4.99,2.71,5.38,9.87,6.25,14.77.91,5.17,1.71,10.37,2.62,15.54,1.58,8.94,3.29,17.9,5.71,26.66,1.05,3.79,2.21,7.58,3.74,11.21.02.05.37.84.45,1.02.17.36.33.72.51,1.08.33.68.68,1.35,1.05,2,.39.69.81,1.37,1.26,2.02.05.08.3.41.4.55.11.13.32.39.39.46.43.49.9.92,1.38,1.36.01,0,.01,0,.03.01.25.14.48.31.73.45.55.31,1.05.48,1.95.66.04,0,.06.01.08.02,0,0,0,0,0,0,.16.01.32.03.48.03,0,0,.01,0,.02,0,.1,0,.63-.04.82-.04.05,0,.08,0,.07,0,.36-.07.72-.16,1.07-.26.16-.04.31-.1.47-.16.04-.02.06-.02.09-.03.72-.33,1.41-.75,2.06-1.2.42-.29,1.09-.88,1.77-1.55.63-.62,1.22-1.27,1.79-1.95,1.99-2.37,4.02-5.82,5.6-8.92.67-1.31,1.22-2.69,1.95-3.96.28-.48.58-.95.88-1.42.1-.15.18-.31.28-.46.04-.06.09-.12.14-.18.01-.03.05-.1.09-.17.55-1.15,1.46-1.63,2.4-1.63,1.68,0,3.45,1.52,3.42,3.45Z"/>
                  <path class="cls-4" d="M312.49,239.12c-.11-7.56-.06-15.11-.1-22.67,0-.97-.01-1.96-.33-2.88s-1-1.77-1.94-2.01c-.88-.23-1.82.1-2.61.54-3.81,2.14-5.35,6.47-6.87,10.3-1.97,4.97-3.22,10.2-4.37,15.41-1.8,8.16-3.54,16.43-4.37,24.75-.6,6.04-.92,12.5.8,18.4.49,1.68,1.4,3.7,2.24,4.71.35.43.74.82,1.15,1.18.03.03.12.1.17.15.13.09.26.19.4.27,1,.61.75.53,1.82.82.68.19,1.45.28,2.25.28,2.55,0,5.48-.91,7.18-2.6,2.95-2.92,4.07-7.91,4.67-12.27.8-5.81.72-11.75.54-17.6-.17-5.6-.56-11.19-.64-16.79ZM308.07,272.9c-.25,1.81-1,7.31-3.36,9.64-.63.63-2.29,1.28-3.98,1.28-.55,0-.89-.07-1.04-.11l-.1-.03c-.06-.02-.11-.03-.15-.04l-.37-.23c-.25-.22-.45-.43-.63-.64-.26-.32-.96-1.65-1.37-3.07-1.5-5.17-1.2-11.07-.64-16.68.81-8.12,2.56-16.42,4.28-24.22,1.52-6.89,3.3-14.12,6.69-20.02.14-.24.28-.47.41-.69.03,3.17.04,6.36.04,9.47,0,3.81.01,7.75.07,11.63.05,3.31.2,6.64.36,9.87.11,2.3.22,4.68.29,7,.16,5.48.26,11.29-.5,16.85Z"/>
                </g>
              </g>
              <g>
                <path class="cls-3" d="M270.85,294.46c-1.26-.03-2.51-.4-3.64-1.09l-.13-.08-1.26-1.02-.1-.11c-.89-.94-1.51-2.05-1.84-3.31l-.04-.16-.18-1.64v-.11c-.02-1.05.21-2.04.68-2.95.35-.9.89-1.69,1.61-2.35.69-.7,1.5-1.2,2.42-1.51.86-.39,1.77-.58,2.73-.56h.25c1.25.04,2.5.41,3.64,1.1l.13.08,1.26,1.02.1.11c.89.94,1.51,2.05,1.83,3.31l.04.16.18,1.64v.11c.02,1.05-.21,2.04-.68,2.95-.35.9-.89,1.69-1.61,2.35-.69.69-1.5,1.2-2.42,1.51-.86.39-1.77.58-2.73.56h-.25Z"/>
                <path class="cls-4" d="M271.04,281.85c.05,0,.11,0,.16,0,.93.02,1.8.28,2.59.76.34.28.68.55,1.03.83.63.66,1.05,1.43,1.28,2.31l.15,1.38c.01.71-.15,1.37-.49,1.98-.22.64-.59,1.18-1.1,1.64-.48.49-1.04.84-1.68,1.03-.57.29-1.19.42-1.84.41-.05,0-.11,0-.16,0-.93-.02-1.8-.28-2.59-.76-.34-.28-.68-.55-1.03-.83-.63-.66-1.05-1.43-1.28-2.31-.05-.46-.1-.92-.15-1.38-.01-.71.15-1.37.49-1.98.22-.64.59-1.18,1.1-1.64.48-.49,1.04-.84,1.68-1.03.57-.29,1.19-.42,1.84-.41M271.14,277.29c-1.26-.03-2.48.21-3.62.72-1.19.42-2.25,1.08-3.16,1.98-.94.87-1.65,1.9-2.12,3.07-.6,1.22-.9,2.53-.88,3.92v.22s.03.22.03.22l.08.74.07.64.04.32.08.31c.42,1.64,1.23,3.09,2.39,4.31l.21.22.23.19.7.56.33.27.23.19.26.16c1.46.89,3.07,1.37,4.77,1.42.08,0,.17,0,.25,0,1.26.03,2.48-.21,3.62-.72,1.19-.42,2.25-1.08,3.16-1.98.94-.87,1.65-1.9,2.12-3.07.6-1.22.9-2.53.88-3.92v-.22s-.03-.22-.03-.22l-.14-1.23-.02-.15-.04-.32-.08-.31c-.42-1.64-1.23-3.09-2.39-4.31l-.21-.22-.23-.19-1.03-.83-.23-.19-.26-.16c-1.46-.89-3.07-1.37-4.77-1.42-.08,0-.17,0-.25,0h0Z"/>
              </g>
              <g>
                <path class="cls-3" d="M371.57,295.77c-1.25,0-2.51-.34-3.66-1.01l-.13-.08-1.28-.99-.11-.11c-.91-.92-1.56-2.02-1.9-3.27l-.04-.15-.22-1.64v-.11c-.04-1.04.16-2.04.61-2.96.33-.91.85-1.71,1.56-2.39.68-.71,1.48-1.23,2.39-1.56.85-.41,1.76-.62,2.72-.62h.25c1.25,0,2.51.35,3.66,1.02l.13.08,1.28.99.11.11c.91.92,1.56,2.02,1.9,3.27l.04.15.22,1.64v.11c.04,1.04-.16,2.04-.61,2.96-.33.91-.85,1.71-1.56,2.39-.68.71-1.48,1.23-2.39,1.56-.85.41-1.76.62-2.72.62h-.25Z"/>
                <path class="cls-4" d="M371.49,283.16c.05,0,.11,0,.16,0,.93,0,1.8.24,2.61.7.35.27.7.54,1.05.81.64.64,1.08,1.4,1.33,2.28.06.46.12.92.18,1.37.03.71-.12,1.37-.44,1.99-.21.64-.56,1.19-1.07,1.66-.47.5-1.02.86-1.66,1.07-.57.3-1.18.45-1.83.45-.05,0-.11,0-.16,0-.93,0-1.8-.24-2.61-.7-.35-.27-.7-.54-1.05-.81-.64-.64-1.08-1.4-1.33-2.28-.06-.46-.12-.92-.18-1.37-.03-.71.12-1.37.44-1.99.21-.64.56-1.19,1.07-1.66.47-.5,1.02-.86,1.66-1.07.57-.3,1.18-.45,1.83-.45M371.49,278.61c-1.26,0-2.47.27-3.6.8-1.18.44-2.23,1.13-3.11,2.05-.92.89-1.61,1.93-2.05,3.11-.58,1.23-.84,2.55-.79,3.94v.22s.04.22.04.22l.04.27.15,1.1.04.32.09.31c.46,1.63,1.29,3.06,2.48,4.26l.21.21.24.18.71.55.33.26.24.18.26.15c1.48.86,3.1,1.3,4.8,1.32.08,0,.17,0,.25,0,1.26,0,2.47-.27,3.6-.8,1.18-.44,2.23-1.13,3.11-2.05.92-.89,1.61-1.93,2.05-3.11.58-1.23.84-2.55.79-3.94v-.22s-.04-.22-.04-.22l-.03-.19-.16-1.18-.04-.32-.09-.31c-.46-1.63-1.29-3.06-2.48-4.26l-.21-.21-.24-.18-.38-.3-.66-.51-.24-.18-.26-.15c-1.48-.86-3.1-1.3-4.8-1.32-.08,0-.17,0-.25,0h0Z"/>
              </g>
            </g>
            <g id="sprinkles">
              <path class="cls-6" d="M103.08,240.1c0,.74.34,1.46.8,2.02.31.39.62.79.99,1.13.73.68,1.49,1.34,2.19,2.05-.24-.59-.49-1.18-.73-1.77.04.76.24,1.36.77,1.92.09.1.19.19.29.29l.63.62c.59.58,1.17,1.12,1.9,1.51,1.25.66,2.75.41,3.62-.72s.74-2.65-.22-3.68c-.57-.61-1.23-1.04-1.95-1.45l-.77-.45c-.12-.07-.23-.14-.35-.21-.69-.37-1.33-.4-2.09-.25.64.08,1.28.17,1.93.25-.87-.49-1.7-1.06-2.54-1.59-.42-.27-.89-.46-1.35-.66-.68-.3-1.45-.44-2.18-.25-.54.14-.95.68-.94,1.24h0Z"/>
              <path class="cls-6" d="M128.14,243.4c.39-.17-.26-.01-.08,0s.4-.04.58-.08c.35-.09.62-.29.91-.49.52-.37,1.04-.73,1.52-1.15.8-.7,1.59-1.4,2.39-2.1,1.59-1.4,3.19-2.79,4.78-4.19,1.44-1.27,1.09-3.66-.32-4.75-.7-.54-1.48-.75-2.35-.63-1.05.14-1.71.69-2.33,1.52-1.23,1.68-2.46,3.35-3.7,5.03-.6.81-1.2,1.63-1.8,2.44-.31.42-.56.87-.82,1.32-.18.3-.36.6-.42.95-.04.19-.03.39-.06.58.05-.28-.08.18-.08.2-.15.45.07,1,.43,1.27.42.32.88.3,1.35.09h0Z"/>
              <path class="cls-6" d="M142.15,262.51c-.06.5-.16,1.02-.17,1.52s.06,1.02.1,1.52c.08,1.04.19,2.07.31,3.11.14,1.18.3,2.35.57,3.51s.45,2.47,1.16,3.43c.62.84,1.65,1.47,2.74,1.11s1.71-1.23,1.78-2.34c.07-1.19-.43-2.34-.74-3.48-.27-.99-.59-1.96-.89-2.94s-.57-1.91-.82-2.87c-.13-.49-.23-.99-.38-1.48s-.4-1.01-.6-1.51c-.29-.73-.89-1.23-1.71-1.12s-1.25.75-1.35,1.53h0Z"/>
              <path class="cls-6" d="M153.83,261.84c.43.41.92.44,1.47.4.04,0,.34,0,.35-.03l-.24-.03.52.07c.49,0,.93-.24,1.37-.43.97-.41,1.93-.84,2.89-1.28,1.85-.86,3.55-2.13,5.19-3.35.69-.52,1.18-1.05,1.45-1.88.31-.95.02-1.99-.56-2.75-1.17-1.51-3.32-1.61-4.7-.32-1.52,1.42-3.16,2.75-4.59,4.25-.7.73-1.4,1.44-2.13,2.14-.1.09-.2.18-.29.28l-.31.4c-.1.17-.17.34-.21.53-.02.09-.02.08.02-.02.05-.13.04-.11-.04.05-.05.08-.1.17-.14.26-.27.49-.52,1.26-.04,1.72h0Z"/>
              <path class="cls-6" d="M155.83,289.15c-.33.22-.67.36-1.03.52-.16.07-.02,0,.01,0-.08.03-.17.07-.25.1-.39.16-.69.36-1.02.63-.64.52-1.36,1.03-1.93,1.63s-1.04,1.26-1.53,1.9c-.62.79-1.23,1.59-1.82,2.4-.23.31-.45.62-.67.93-.68.96-.87,2.12-.31,3.2s1.82,1.45,2.94,1.2c.96-.22,1.57-1.07,2.02-1.87.81-1.45,1.67-2.87,2.57-4.26.51-.78.88-1.61,1.29-2.45.24-.49.5-.97.6-1.51.04-.2.08-.39.13-.59.03-.15.04-.31.08-.46-.07.27.09-.14.11-.19.16-.36.16-.75-.14-1.05-.26-.26-.73-.34-1.05-.14h0Z"/>
              <path class="cls-6" d="M169.65,283.37c.14-.07.14-.08,0-.02.15-.06.3-.12.44-.19.22-.14.36-.3.52-.49.3-.34.61-.68.87-1.05.4-.55.73-1.14,1.12-1.7.81-1.15,1.65-2.28,2.46-3.43.46-.65.47-1.55.3-2.29-.2-.9-.91-1.59-1.72-1.93-1.6-.67-3.58.18-4.02,1.93-.34,1.35-.64,2.71-.98,4.06-.17.65-.42,1.28-.55,1.94-.07.33-.1.67-.15,1-.05.36-.14.71-.04,1.07.04.15.09.28.12.43.15.72,1.04.99,1.63.66h0Z"/>
              <path class="cls-6" d="M170.7,296.3c.51-1.09.58-1.37.2-.83-.2.22-.33.47-.4.77-.05.24-.09.51-.06.76.02.19.05.39.07.58.07.56.1,1.14.31,1.67.37.97.78,1.93,1.21,2.88.17.38.33.74.58,1.08.12.17.25.34.38.5.42.54.96.92,1.62,1.12.93.28,1.96.09,2.73-.5s1.27-1.54,1.22-2.51c-.03-.69-.26-1.29-.6-1.88-.32-.56-.78-1.04-1.18-1.55l.48.62c-.44-.57-.87-1.15-1.27-1.75-.31-.44-.62-.88-1-1.26-.25-.25-.49-.49-.73-.75-.48-.53-1.5-.87-2.19-.58l-.07.03,1.37.18-.08-.06c-.47-.36-1.26-.28-1.74,0-.56.33-.8.87-.85,1.49h0Z"/>
              <path class="cls-6" d="M126.35,263.16c.05-.06.55-.56.21-.25.29-.26.57-.44.81-.75.3-.39.58-.8.86-1.2.46-.66.93-1.31,1.39-1.97.95-1.36,1.88-2.74,2.82-4.11.8-1.17.26-3.05-.97-3.69-1.23-.65-3.01-.38-3.69.97-.75,1.48-1.52,2.95-2.25,4.44-.36.72-.71,1.44-1.06,2.16-.18.36-.36.72-.53,1.08-.22.48-.31.82-.36,1.35.05-.5-.09.17-.13.27-.52,1.66,1.72,2.93,2.91,1.69h0Z"/>
              <path class="cls-6" d="M199.83,293.44c-1.06.82-.76,2.2-.6,3.33.12.85.22,1.69.43,2.53l.62,2.47c.26,1.04.46,2.06,1.04,2.99.61.98,1.9,1.61,3.05,1.24,1.08-.35,2.06-1.39,1.98-2.6-.05-.67-.13-1.29-.38-1.92-.17-.44-.35-.88-.52-1.31l-1.01-2.55c-.39-.98-.89-1.9-1.38-2.83-.31-.59-.67-1.1-1.26-1.46-.64-.39-1.38-.33-1.96.11h0Z"/>
              <path class="cls-6" d="M185.44,313.93c.83.21,1.7-.2,2.49-.44.63-.19,1.26-.38,1.9-.57.63-.19,1.26-.38,1.9-.57.34-.1.66-.16,1.01-.21.53-.08.99-.3,1.44-.59,1.1-.7,1.58-2.03,1.06-3.24s-1.81-1.87-3.06-1.5c-.66.19-1.18.44-1.71.89-.21.18-.42.37-.63.55l.48-.37-2.75,1.73-1.38.87c-.57.36-1.31.69-1.62,1.3-.42.83-.09,1.93.88,2.17h0Z"/>
              <path class="cls-6" d="M217.34,307.39c.05-.04.11-.07.16-.11l-.55.15c.47-.01.77-.12,1.14-.4.24-.19-.22.17.07-.06s.57-.44.83-.7c.35-.36.71-.7,1.09-1.04.78-.7,1.6-1.37,2.42-2.01l-.47.36c.31-.24.62-.47.94-.69l-1.24.34c.78,0,1.39-.31,1.95-.81.13-.12.26-.24.4-.36.44-.4.76-1.17.73-1.76s-.19-1.06-.54-1.51c-.32-.41-.77-.77-1.3-.89-.62-.14-1.39-.14-1.92.25-.14.11-.29.21-.43.32-.56.43-1.15.92-1.26,1.67l.63-1.08c-.96,1.02-1.87,2.12-2.61,3.32-.32.52-.62,1.05-.9,1.58-.4.76-.95,1.83-.59,2.69v-.58c0,.07-.02.14-.03.21-.06.42,0,.78.36,1.06.3.23.78.3,1.12.08h0Z"/>
              <path class="cls-6" d="M226.48,321.43l-.09.12.88-.37c-.67.05-1.28.26-1.76.73-.33.32-.56.8-.81,1.19-.39.62-.8,1.23-1.18,1.85s-.69,1.29-1.02,1.94c-.41.81-.87,1.61-1.18,2.46-.21.59-.07,1.52.27,2.04.32.49.72.85,1.27,1.08,1.17.49,2.68.08,3.31-1.08.42-.79.7-1.69,1.02-2.52.25-.65.55-1.3.74-1.97s.37-1.35.56-2.03c.29-1.05.61-2.09-.12-3.06l.13.96.03-.15c.1-.54-.06-1.08-.56-1.37-.42-.25-1.14-.23-1.47.19h0Z"/>
              <path class="cls-6" d="M231.75,318.17c.41-.19.74-.36,1.08-.69.2-.19.38-.4.58-.6l1.07-1.11c.87-.9,1.85-1.77,2.47-2.86.66-1.17.37-2.63-.69-3.45-.45-.35-1.03-.6-1.62-.57l-.71.1c-.45.13-.85.36-1.18.69-.11.09-.23.19-.34.29-.24.22-.42.5-.61.77l-.48.67c-.3.42-.59.84-.89,1.26l-.89,1.26c-.15.21-.3.41-.44.63-.25.38-.36.81-.47,1.25-.21.83.08,1.71.76,2.23.3.24.62.37,1,.42.5.07.89-.04,1.35-.25h0Z"/>
              <path class="cls-6" d="M204.95,311.29c.05.43.11.87.19,1.3.09.51.31.94.6,1.36.36.53.72,1.07,1.09,1.6l1.09,1.6c.51.75,1.08,1.44,1.66,2.12.54.63,1.6.99,2.4.99s1.83-.37,2.4-.99c.59-.65,1.03-1.49.99-2.4s-.36-1.73-.99-2.4c-.46-.48-.91-.94-1.42-1.37s-.97-.82-1.46-1.24l-1.46-1.24c-.13-.11-.25-.21-.38-.32-.44-.36-.83-.59-1.38-.75-.27-.08-.53-.15-.8-.21-.63-.14-1.22-.04-1.74.36-.45.35-.86.96-.79,1.57h0Z"/>
              <path class="cls-6" d="M269.35,319.23c-.24-.49-.72-.99-1.21-1.22-.26-.12-.52-.22-.78-.34-.77-.33-1.54-.62-2.34-.89l-1.83-.6-.91-.3c-.54-.17-1.1-.21-1.66-.28-.91-.11-2.19.62-2.55,1.46-.28.66-.35.76-.4,1.49l.11.78c.09.38.27.72.53,1,.41.53.89.83,1.53,1.06s1.24.29,1.89.38l1.91.27c.82.12,1.63.24,2.45.28.89.05,1.8.11,2.56-.46.4-.3.78-.64.89-1.16s.05-1.01-.2-1.5h0Z"/>
              <path class="cls-6" d="M269.69,336.32c-.1-.02-.2-.05-.31-.07-.51-.09-.85-.09-1.37,0s-.98.27-1.43.53c-.77.44-1.64.96-2.26,1.6-.65.68-1.23,1.42-1.8,2.17-.21.28-.42.57-.61.87-.34.51-.53,1.12-.72,1.7-.24.74-.1,1.83.33,2.49.39.6.88,1.04,1.54,1.32s1.42.38,2.1.16c.83-.27,1.45-.75,1.93-1.48.19-.28.38-.55.53-.86s.29-.61.45-.91c.32-.61.68-1.19,1.07-1.75.37-.53.63-1.15.99-1.7.26-.41.43-.86.6-1.32.14-.39.14-.8.16-1.21.02-.67-.51-1.4-1.18-1.55h0Z"/>
              <path class="cls-6" d="M269.9,358.3c.32.19.63.4.96.56.35.17.71.33,1.07.49.39.18.78.36,1.2.46l.57.14c.65.16,1.28.31,1.95.34.77.04,1.76-.38,2.28-.95.49-.53.79-1.13.89-1.85s0-1.46-.38-2.06c-.47-.74-1.1-1.19-1.93-1.48-.37-.13-.77-.16-1.16-.22-.64-.1-1.3-.26-1.95-.23-.38.01-.77.02-1.15.04-.58.04-1.17.16-1.75.24l-.59.25-.5.39c-.39.39-.61.88-.68,1.42-.13.98.32,1.95,1.18,2.46h0Z"/>
              <path class="cls-6" d="M293.75,335.66c.08-.59.22-1.21.19-1.81-.02-.51-.1-1.02-.14-1.54-.1-1.25-.32-2.48-.49-3.72l.09.7c-.16-1.18-.34-2.36-.5-3.54l.1.74c-.11-.86-.18-1.73-.33-2.58-.18-1-1.09-1.66-1.97-1.97-.68-.24-1.58-.14-2.18.28-.76.55-1.51,1.41-1.4,2.44.22,2.08.75,4.15,1.4,6.13.33,1.02.72,2,1.21,2.96.2.41.39.85.65,1.23.31.46.71.88,1.1,1.28.65.66,2.13.45,2.28-.6h0Z"/>
              <path class="cls-6" d="M310.71,330.16c.12-.05.23-.09.35-.14l-.61.08c.98,0,1.63-.52,2.3-1.15.32-.31.65-.61.97-.92.64-.59,1.28-1.18,1.93-1.75,1.3-1.15,2.53-2.38,3.82-3.53,1.13-1,1.1-3.06,0-4.06-1.16-1.06-2.91-1.12-4.06,0-1.24,1.21-2.51,2.41-3.63,3.73-.55.64-1.09,1.29-1.63,1.95-.28.35-.57.7-.85,1.05-.56.7-1.24,1.44-1.15,2.41l.08-.61c-.04.13-.07.26-.11.38-.2.72.01,1.51.54,2.04.48.48,1.37.81,2.04.54h0Z"/>
              <path class="cls-6" d="M298.62,340.26s-.01.09-.02.13l.25-.58c-.51.81-.46,1.68-.16,2.54.1.28.19.56.28.84.26.84.72,1.59,1.11,2.37.28.58.52,1.18.81,1.75.4.79.89,1.69,1.54,2.28l.75.58c.43.27.89.42,1.38.44.79.11,1.68,0,2.37-.44.54-.35.99-.8,1.33-1.33.55-.86.55-1.91.37-2.86-.16-.88-.73-1.74-1.24-2.47-.52-.76-1.18-1.45-1.81-2.12-.59-.63-1.19-1.28-1.93-1.73-.25-.16-.51-.31-.77-.46-.13-.08-.26-.15-.39-.23-.64-.34-1.49-.54-2.2-.26l.65-.09c-.05,0-.1,0-.16,0-.51.01-.96.17-1.36.48-.36.27-.73.71-.81,1.17h0Z"/>
              <path class="cls-6" d="M339.18,324.59c.19-.35.36-.68.45-1.08.08-.37.16-.74.25-1.1.18-.74.36-1.48.58-2.21s.47-1.47.75-2.19c.06-.16.12-.31.19-.47.09-.21.09-.21,0,.02.04-.1.09-.2.13-.3.21-.48.33-.95.46-1.46.26-1.02-.33-2.23-1.41-2.48-.52-.12-1.09-.09-1.55.2s-.71.69-.93,1.2c-.65,1.56-.73,3.37-.79,5.04-.03.76-.04,1.53.01,2.29.03.38.06.77.11,1.15.06.52.21.91.44,1.37.25.51,1.06.49,1.32,0h0Z"/>
              <path class="cls-6" d="M342.75,332.8c.31.87.72,1.66,1.28,2.39.23.29.45.59.68.88.28.36.53.73.86,1.04l.48.45c.57.54,1.13,1.07,1.7,1.61l.85.8c.35.33.72.67,1.13.9.43.25.91.42,1.37.6l1.01.14,1.01-.14c.8-.22,1.48-.71,1.98-1.36.42-.55.66-1.12.75-1.8.11-.81,0-1.72-.45-2.43-.25-.4-.55-.77-.86-1.13s-.74-.62-1.13-.9l-.95-.67c-.63-.45-1.27-.9-1.9-1.34-.32-.22-.62-.47-.96-.65s-.7-.34-1.05-.51c-.85-.42-1.76-.83-2.7-.97-.45-.12-.89-.12-1.34,0-.43.12-.8.34-1.11.65-.6.6-.94,1.62-.65,2.45h0Z"/>
              <path class="cls-6" d="M388.63,316.83c.53-.68.5-1.77.42-2.6-.09-.93-.14-1.89-.37-2.81-.19-.76-.35-1.54-.57-2.29-.24-.8-.58-1.59-.87-2.38-.33-.9-.81-1.59-1.62-2.11-.94-.61-2.15-.6-3.14-.18-1.99.84-2.68,3.13-1.69,5.01.42.79.8,1.63,1.29,2.39.52.81,1.06,1.64,1.64,2.4.55.71,1.18,1.44,1.83,2.06.81.78,2.21,1.64,3.09.5h0Z"/>
              <path class="cls-6" d="M397.49,320.9c.16.05.31.1.46.17l-.76-.32c.43.19.84.43,1.29.55.22.06.43.13.64.21l-.83-.35c.56.24,1.13.54,1.61.91l-.73-.57c.23.19.45.39.64.62.33.35.72.6,1.17.75.43.23.9.33,1.4.31.89,0,1.96-.4,2.57-1.06s1.11-1.6,1.06-2.57c-.04-.99-.39-1.84-1.06-2.57-.47-.51-1.03-.94-1.61-1.31-.17-.11-.34-.2-.52-.29-.45-.21-.9-.43-1.39-.52-.66-.12-1.36-.24-2.04-.2-.36.02-.76.06-1.11.16s-.67.27-1,.42c-.17.08-.34.17-.5.28-.41.27-.81.63-1.06,1.06-.34.57-.44,1.23-.35,1.88.07.53.25.97.58,1.39.4.51.9.86,1.53,1.06h0Z"/>
              <path class="cls-6" d="M384.63,260.98c.11.61.28,1.22.59,1.78.23.41.53.8.77,1.2.49.81.91,1.65,1.28,2.52l-.32-.75c.23.56.46,1.11.72,1.66.31.68,1.21,1.27,1.9,1.46.76.21,1.78.12,2.45-.32.68-.44,1.28-1.09,1.46-1.9l.11-.85c0-.57-.15-1.11-.43-1.61-.56-1.23-1.45-2.33-2.29-3.37-.35-.43-.72-.85-1.1-1.25-.64-.67-1.53-1.09-2.42-1.3-.78-.18-1.58,0-2.16.57s-.72,1.36-.57,2.16h0Z"/>
              <path class="cls-6" d="M399.61,256.92c.26-.18.53-.29.82-.41l-.41.17c.38-.15.64-.29.94-.56.11-.09.21-.19.32-.29l.56-.51,1.23-1.12,1.19-1.08.6-.54c.34-.31.59-.69.83-1.07.31-.48.41-1.28.24-1.81-.16-.5-.43-.9-.84-1.22s-.91-.53-1.43-.51c-.65.03-1.17.26-1.66.69-.36.32-.65.67-.93,1.07l-.51.74-1.02,1.49c-.33.48-.66.96-.99,1.45-.24.35-.5.68-.63,1.08-.04.14-.07.28-.11.42-.02.07-.1.21,0,.06.13-.18-.04.09-.06.11-.27.52-.24,1.22.21,1.64.42.38,1.14.56,1.64.21h0Z"/>
              <path class="cls-6" d="M406.09,238.53c.04-.62.03-1.22-.02-1.84-.04-.48-.07-.97-.17-1.43-.07-.34-.19-.66-.26-1l.1.77c-.06-.54-.13-1.09-.22-1.63-.09-.59-.34-1.13-.65-1.64s-.64-1.04-1.05-1.49-1.07-.79-1.65-.95c-.64-.18-1.3-.15-1.94-.01-.47.1-.87.33-1.25.62-1.31,1.01-1.68,2.82-1.05,4.31.19.46.45.84.79,1.21.06.07.13.13.2.2.12.12.23.24.35.37.4.43.84.81,1.36,1.09.28.15.57.3.83.49l-.58-.45c.46.41.91.81,1.4,1.19l-.5-.39c.65.5,1.26,1.04,1.88,1.58.95.83,2.34.25,2.42-1h0Z"/>
              <path class="cls-6" d="M411.6,248.39c.18-.1.36-.19.54-.28.09-.04.19-.09.28-.13.05-.02.09-.04.14-.06.14-.06.1-.04-.13.06.27,0,.68-.23.88-.32s.38-.18.58-.26l-.45.19c.54-.22,1.1-.37,1.64-.58.75-.28,1.59-.4,2.24-.87.54-.39,1.04-.87,1.19-1.55.13-.58.1-1.14-.13-1.69-.21-.5-.57-.98-1.06-1.24l-.62-.26c-.46-.12-.92-.12-1.38,0-.92.17-1.64.82-2.34,1.41-.53.45-.94,1-1.35,1.55-.37.49-.73,1.01-.92,1.6-.15.46-.34.91-.49,1.38-.25.81.68,1.43,1.37,1.06h0Z"/>
              <path class="cls-6" d="M409.76,217.85c-1.32,1.25-.78,3.34-.56,4.92l.23,1.66.1.77c.07.52.29.97.54,1.42.61,1.07,2.08,1.73,3.28,1.34s2.12-1.48,2.14-2.8c0-.53-.05-1.04-.24-1.53l-.33-.84c-.22-.56-.44-1.11-.66-1.67-.28-.7-.51-1.46-.92-2.1-.23-.36-.44-.75-.76-1.03-.81-.69-1.99-.93-2.83-.13h0Z"/>
              <path class="cls-6" d="M419.69,235.35c.39-.34.82-.66,1.17-1.04s.72-.81,1.07-1.21l1.04-1.17c.17-.2.35-.39.52-.59.19-.21.36-.42.51-.65.26-.44.39-.92.39-1.43.01-.11.02-.23.03-.34.06-.81-.42-1.58-1.03-2.06-.25-.23-.55-.39-.89-.47-.46-.12-.93-.12-1.39,0-.29.12-.64.23-.9.38-.52.29-.85.64-1.16,1.15-.15.24-.28.48-.42.73-.27.45-.53.91-.8,1.36s-.54.9-.8,1.36c-.34.61-.57,1.31-.84,1.96l-.07.56c-.01.29.05.56.18.81.17.4.46.79.86,1,.33.17.68.27,1.05.29.56.03,1.07-.26,1.48-.61h0Z"/>
              <path class="cls-6" d="M426.9,248.39c.41-.15.85-.27,1.22-.49.19-.11.36-.24.55-.35-.29.17.23-.08.27-.1.11-.06.2-.12.3-.2.67-.51,1.33-1.06,2.04-1.52.69-.45,1.34-.94,2-1.44.35-.26.69-.53,1.05-.78.16-.11.33-.18.5-.28.4-.23.71-.54,1-.88.5-.58.84-1.24.84-2.03,0-.71-.31-1.55-.84-2.03-1.2-1.1-2.86-1.07-4.07,0-.7.62-1.12,1.47-1.66,2.22-.4.55-.81,1.09-1.2,1.65s-.74,1.13-1.15,1.68l-.61.82c-.11.15-.25.31-.35.47-.21.33-.25.66-.3,1.04l.21-.76c-.18.29-.37.57-.52.87-.16.33-.26.7-.38,1.04-.21.6.46,1.28,1.06,1.06h0Z"/>
              <path class="cls-6" d="M435.51,251.54c-.24.26-.49.53-.69.83-.25.38-.34.75-.42,1.17-.09.44-.18.89-.19,1.35,0,.25,0,.5,0,.75v1.38c0,.36,0,.69.06,1.06.08.58.31,1.14.62,1.63.56.88,1.47,1.45,2.53,1.45.97,0,2.1-.54,2.53-1.45.18-.38.37-.8.5-1.21.17-.52.11-.93.05-1.42l-.17-1.44c-.08-.68-.11-1.39-.33-2.04-.17-.51-.32-1-.66-1.43-.2-.25-.37-.43-.6-.63-.45-.38-1-.7-1.62-.67s-1.2.22-1.62.67h0Z"/>
              <path class="cls-6" d="M449.3,254.95l.28-.1c.28-.1.58-.19.84-.34.19-.11.36-.26.53-.39.36-.27.73-.54,1.09-.81l1.06-.78.53-.39c.18-.14.36-.27.54-.41.37-.28.32-.25.6-.62.19-.19.32-.42.39-.68.09-.14.14-.28.17-.44.14-.53.14-1.07,0-1.6-.09-.39-.27-.73-.54-1.02-.21-.33-.49-.59-.85-.78-.47-.27-.98-.41-1.52-.41-.26.02-.62.04-.88.11l-.73.31-.07.05c-.29.18-.56.41-.79.67l-.45.5-.92,1.03-.9,1c-.22.24-.43.48-.63.74-.15.19-.25.31-.34.51l-.15.33c-.18.38-.33.78-.33,1.21,0,.53.19,1.03.51,1.45.26.34.56.57.96.74.47.2,1.07.3,1.56.12h0Z"/>
              <path class="cls-6" d="M420.82,258.25l.07-.03-.38.16c.06-.02.11-.05.17-.07h-.92c.63.2,1.22.02,1.73-.34.14-.1.28-.2.43-.29.46-.3.89-.64,1.32-.98l-.47.36c.9-.69,1.89-1.27,2.93-1.72l-.65.27c.07-.03.14-.06.21-.09.46-.13.87-.36,1.21-.7l.43-.55c.47-.73.46-1.66.14-2.43-.29-.68-.76-1.16-1.45-1.45-.75-.32-1.73-.35-2.43.14-1,.7-1.95,1.48-2.76,2.39-.17.18-.33.37-.48.56-.26.33-.56.65-.75,1.03-.45.91-1.08,2.02-.44,3l-.24-.87c0,.08-.01.17-.02.25-.03.54.32,1.08.77,1.35.24.14.51.21.79.21.28,0,.55-.07.79-.21h0Z"/>
              <path class="cls-6" d="M444.56,301.13c.19.22.38.44.57.67l-.26-.34c.2.28.39.6.63.85.17.17.35.32.53.48.32.31.64.64.94.97.63.7,1.26,1.4,1.84,2.14l-.39-.5c.12.16.24.31.36.47.34.45.8.79,1.37.91.78.16,1.48.06,2.12-.44.59-.45.98-1.15.96-1.91s-.28-1.36-.79-1.9c-.1-.11-.21-.21-.32-.32-.22-.21-.44-.42-.67-.62-.58-.51-1.2-.97-1.86-1.36-.5-.3-1.02-.58-1.56-.83-.26-.12-.51-.26-.79-.32-.14-.03-.29-.05-.43-.07-.31-.05-.61-.11-.92-.15s-.58-.06-.88.07c-.26.11-.51.3-.65.55-.29.56-.2,1.17.21,1.64h0Z"/>
              <path class="cls-6" d="M463.37,307.38c.31.07.61.16.91.26s.58.15.88.22c.61.15,1.21.34,1.79.58l-.7-.29c.22.09.44.19.65.3.3.15.59.32.92.41.82.23,1.61.07,2.34-.33l.59-.45c.28-.26.48-.57.6-.93.26-.61.3-1.23.15-1.89-.18-.77-.71-1.44-1.38-1.84-.23-.14-.6-.26-.89-.37-.21-.08-.42-.15-.64-.21-.43-.13-.87-.23-1.32-.31s-.88-.13-1.32-.19c-.22-.03-.45-.07-.67-.06-.63.01-1.29.15-1.91.28l-.6.25c-.29.16-.52.37-.7.64-.33.42-.56.97-.54,1.51.05,1.08.74,2.14,1.83,2.41h0Z"/>
              <path class="cls-6" d="M459.58,293.63c.52-.72.66-1.7.78-2.57.06-.45.11-.9.16-1.35.02-.21.04-.42.05-.62,0-.1.01-.21.02-.31,0-.08.07-.4,0-.09l-.44.75c.68-.69,1.11-1.53,1.13-2.52.01-.59-.09-1.19-.17-1.77,0-.46-.12-.88-.35-1.28l-.4-.51c-.54-.59-1.36-.8-2.12-.7-1.56.21-2.42,1.66-2.1,3.15.12.56.18,1.13.31,1.68.18.78.68,1.46,1.3,1.94l-.44-.75c.07.19.1.39.13.6.02.1.03.2.05.3.01.09.03.22,0,.05.06.44.1.88.14,1.32.04.42.1.83.14,1.25.02.23.03.46.08.69.05.26.17.5.28.74.28.62,1.11.45,1.43,0h0Z"/>
              <path class="cls-6" d="M492.85,300.44c.22.44.41.9.66,1.32.36.64.88,1.18,1.33,1.76-.16-.21-.32-.42-.49-.63.92,1.19,1.73,2.48,2.43,3.81.39.74,1.26,1.36,2.05,1.58s1.91.12,2.64-.35,1.38-1.17,1.58-2.05.17-1.88-.35-2.64c-.87-1.3-1.84-2.52-2.95-3.62-.6-.59-1.25-1.24-1.95-1.69-.71-.44-1.52-.71-2.32-.94-.9-.26-1.89.11-2.45.84-.6.77-.61,1.73-.18,2.59h0Z"/>
              <path class="cls-6" d="M484.29,289.34l-.19.11,1.13-.31c-2.17-.07-3,2.33-3.78,3.93-.64,1.33-1.27,2.66-1.8,4.04-.25.65-.07,1.72.3,2.3.36.55.82.96,1.42,1.22s1.31.35,1.94.15c.69-.22,1.47-.68,1.78-1.37.35-.77.7-1.54.98-2.34l.62-1.79c.59-1.69,1.71-4,.12-5.49l.58.99-.06-.21c-.37-1.31-1.88-1.9-3.05-1.24h0Z"/>
              <path class="cls-6" d="M498.03,290.55c.1-.02.2-.03.3-.06.11-.02.04-.02-.19,0-.23-.02-.29-.01-.2,0,.01.02.41.06.24.04.37.05.71-.02,1.04-.21.1-.06.2-.13.31-.19.2-.12.41-.22.6-.34.31-.2.59-.47.88-.7l-.36.28c.94-.72,1.96-1.31,3.05-1.77l-.48.2c.05-.02.1-.04.15-.06.34-.1.64-.27.89-.52l.31-.41c.34-.53.34-1.22.1-1.79-.47-1.12-1.78-1.54-2.85-.96-1.11.61-2.15,1.36-3.08,2.21-.51.46-.96.94-1.29,1.55-.26.46-.53.93-.46,1.47.01.1.02.19.05.28.02.06.03.17.02,0-.01-.21,0,0,0,.04,0,.07,0,.13,0,.2.03.52.46.83.96.73h0Z"/>
              <path class="cls-6" d="M471.73,279.99l-.1.16.31-.4c-.84.81-.77,1.82-.76,2.87,0,.53.02,1.06.04,1.6s.04,1.06.06,1.6c.01.29.01.57.03.86.02.18.04.36.07.55.02.42.15.82.38,1.18.06.15.13.29.19.44l.48.62c.28.3.61.51.99.64.61.26,1.36.37,2.01.16,1.29-.42,2.27-1.57,2.26-2.97,0-.53-.01-1.07-.2-1.57-.1-.27-.21-.55-.32-.82l-.59-1.52c-.26-.67-.54-1.33-.82-1.99l-.33-.77c-.05-.12-.09-.21-.16-.32-.36-.56-.8-.81-1.41-1.04l.47.2-.14-.1c-.35-.25-.99-.31-1.39-.18-.45.15-.83.42-1.08.83h0Z"/>
              <path class="cls-6" d="M492.77,284.72c.67-1.07.13-2.72-.54-3.68-.39-.56-.78-1.11-1.17-1.67s-.76-1.08-1.15-1.61c-.35-.47-.67-1.03-1.11-1.41-.13-.11-.27-.23-.4-.34-.25-.2-.5-.43-.77-.6-.56-.36-1.15-.4-1.78-.47-.45-.02-.88.08-1.27.28-.41.13-.76.36-1.06.68-.58.63-1,1.45-.96,2.33.03.65.16,1.38.56,1.92.1.14.2.27.3.41.27.37.53.72.88,1.02l.4.34c.55.46,1.11.91,1.67,1.36l1.63,1.31c.15.12.3.24.46.36.4.31.46.31,1.02.53.14.05.28.11.42.16.3.1.61.19.93.19.79,0,1.52-.43,1.94-1.09h0Z"/>
            </g>
          </g>
        </g>
      </g>
    </g>
  </g>
</svg>