<?xml version="1.0" encoding="UTF-8"?>
<svg id="Layer_2" data-name="Layer 2" xmlns="http://www.w3.org/2000/svg" viewBox="0 0 600 600">
  <defs>
    <style>
      .cls-1 {
        fill: #09213d;
      }

      .cls-1, .cls-2, .cls-3, .cls-4 {
        stroke-width: 0px;
      }

      .cls-2 {
        fill: #ce2020;
      }

      .cls-3 {
        fill: #f4bd22;
      }

      .cls-4 {
        fill: #fff;
      }
    </style>
  </defs>
  <g id="LOGOS">
    <g>
      <rect class="cls-4" x="0" width="600" height="600" rx="30" ry="30"/>
      <g>
        <g>
          <path class="cls-1" d="M256.57,387.63c-4.92,3.85-11.65,5.77-20.19,5.77l-21,.12v-78.45h21c7.46,0,13.23,1.73,17.31,5.19,4.15,3.46,6.23,8.42,6.23,14.88,0,4.38-1.08,7.92-3.23,10.61-2.08,2.77-4.96,4.81-8.65,6.11,5,1.31,8.88,3.62,11.65,6.92,2.77,3.39,4.15,7.46,4.15,12.23,0,7.31-2.42,12.85-7.27,16.61ZM248.73,324.17c-3.08-2.61-7.31-3.92-12.69-3.92h-14.19v29.65h13.15c5.54,0,10-1.35,13.38-4.04,3.38-2.69,5.08-6.35,5.08-10.96s-1.58-8.04-4.73-10.73ZM251.84,359.25c-3.69-2.77-8.96-4.15-15.81-4.15h-14.19v33.11h13.96c6.77,0,12.04-1.42,15.81-4.27,3.84-2.92,5.77-7.08,5.77-12.46s-1.85-9.54-5.54-12.23Z"/>
          <path class="cls-1" d="M282.3,367.44c.38,6.46,2.58,11.77,6.58,15.92,4.31,4.54,9.84,6.81,16.61,6.81,1.15,0,2.52-.19,4.1-.58,1.58-.38,3.06-.79,4.44-1.21,1.38-.42,3.08-1.02,5.08-1.79l1.38,4.38c-2.23.85-4.15,1.52-5.77,2.02-1.62.5-3.35.96-5.19,1.38-1.85.42-3.5.63-4.96.63-8.15,0-14.88-2.73-20.19-8.19-5.31-5.38-7.96-12.27-7.96-20.65s2.61-15.19,7.85-20.65c5.23-5.46,11.88-8.19,19.96-8.19s14.27,2.65,19.27,7.96c4.92,5.23,7.61,12.62,8.08,22.15h-49.26ZM318.41,347.94c-3.85-3.69-8.73-5.54-14.65-5.54-6.23,0-11.38,2.27-15.46,6.81-3,3.23-4.92,7.58-5.77,13.04h42.69c-.77-5.77-3.04-10.54-6.81-14.31Z"/>
          <path class="cls-1" d="M384.98,390.74c-4.08,2.84-8.85,4.27-14.31,4.27-8.08,0-14.58-2.69-19.5-8.08-5-5.46-7.5-12.38-7.5-20.77s2.5-14.92,7.5-20.54c4.92-5.54,11.19-8.31,18.81-8.31,3.85,0,7.23.77,10.15,2.31,3,1.54,5.42,3.73,7.27,6.58v-3.92h4.96v17.31h-4.96c-.23-5.84-2.08-10.08-5.54-12.69-3.62-2.77-7.58-4.15-11.88-4.15-6,0-10.84,2.15-14.54,6.46-3.77,4.31-5.65,9.96-5.65,16.96s1.92,12.65,5.77,16.96c3.85,4.31,8.92,6.46,15.23,6.46,4.61,0,8.46-1.19,11.54-3.58,3.15-2.46,5.54-5.61,7.15-9.46l4.85,2.08c-2.08,5.23-5.19,9.27-9.34,12.11Z"/>
          <path class="cls-1" d="M444.86,393.4l-32.31-28.15v22.96h10.04v5.19h-15.92v-5.19h-.12v-73.15h6v48.23c2.46-1.62,5.29-3.52,8.48-5.71,3.19-2.19,6.35-4.34,9.46-6.46,3.11-2.11,6.06-4.13,8.83-6.06,2.77-1.92,4.92-3.42,6.46-4.5,1.54-1.08,2.38-1.65,2.54-1.73h7.38v5.19h-5.88l-29.88,20.42,28.38,23.77h8.31v5.19h-11.77Z"/>
          <path class="cls-1" d="M506.58,386.71c-5.31,5.54-11.81,8.31-19.5,8.31s-14.23-2.77-19.38-8.31c-5.23-5.61-7.85-12.46-7.85-20.54s2.58-15.07,7.73-20.54c5.15-5.54,11.65-8.31,19.5-8.31s14.15,2.77,19.38,8.31c5.23,5.62,7.85,12.46,7.85,20.54s-2.58,14.92-7.73,20.54ZM502.32,349.44c-4-4.46-9.08-6.69-15.23-6.69s-11.19,2.19-15.11,6.58c-4,4.46-6,10.08-6,16.84s1.96,12.34,5.88,16.73c4,4.46,9.08,6.69,15.23,6.69s11.19-2.19,15.11-6.58c4-4.46,6-10.08,6-16.84s-1.96-12.34-5.88-16.73Z"/>
          <path class="cls-1" d="M564.28,344.02l-18.46,50.19h-5.54l-21.26-55.38h15.61v5.19h-7.5l15.81,42.57,15.69-42.57,1.96-5.19h12.11v5.19h-8.42Z"/>
        </g>
        <g>
          <path class="cls-1" d="M251.03,284.98v-41.07c0-3.08-.81-5.42-2.42-7.04-1.61-1.69-3.96-2.54-7.04-2.54-3.23,0-6.69.92-10.38,2.77-3.85,1.85-7.12,4.08-9.81,6.69v36h9v5.19h-14.77v-5.19h-.23v-73.15h6v31.15c3.08-2.69,6.38-4.85,9.92-6.46,3.54-1.62,7.23-2.42,11.08-2.42,4.38,0,7.92,1.27,10.61,3.81,2.69,2.69,4.04,6.19,4.04,10.5v36.57h8.77v5.19h-14.77Z"/>
          <path class="cls-1" d="M308.37,234.68c-7.85,0-13.65,1.65-17.42,4.96-3.77,3.31-5.65,8.54-5.65,15.69v24.46h11.19v5.19h-17.19v-49.38h-10.38v-5.19h16.38v9.69c.08-.15.4-.69.98-1.62.58-.92,1.44-2.04,2.6-3.35,1.15-1.31,2.38-2.31,3.69-3,1-.54,2.15-1.04,3.46-1.5,1.31-.46,2.67-.83,4.1-1.1,1.42-.27,2.84-.48,4.27-.63,1.42-.15,2.75-.19,3.98-.12l2.19.12v5.77h-2.19Z"/>
          <path class="cls-1" d="M348.99,284.98v-7.73c-3,2.69-6.23,4.77-9.69,6.23-3.69,1.54-7.04,2.31-10.04,2.31-4.92,0-8.96-1.58-12.11-4.73-3.23-3.23-4.85-7.04-4.85-11.42,0-4.85,1.85-8.84,5.54-12,3.77-3.23,8.73-4.85,14.88-4.85,2.15,0,4.69.35,7.61,1.04,2.84.69,5.73,1.85,8.65,3.46v-12.92c0-4-1.31-6.85-3.92-8.54-2.69-1.77-6.23-2.65-10.61-2.65-1.15,0-2.44.16-3.86.46-1.42.31-2.75.63-3.98.98-1.23.35-2.69.79-4.38,1.33l-1.5-3.58c1.77-.69,3.35-1.27,4.73-1.73,1.38-.46,2.9-.87,4.56-1.21,1.65-.35,3.21-.52,4.67-.52,6.61,0,11.65,1.27,15.11,3.81,3.46,2.54,5.19,6.42,5.19,11.65v35.42h9.11v5.19h-15.11ZM348.99,262.14c-2.31-1.46-4.69-2.61-7.15-3.46-2.69-.92-5.38-1.38-8.08-1.38-4.85,0-8.62,1.23-11.31,3.69-2.69,2.46-4.04,5.5-4.04,9.11,0,3,1.08,5.58,3.23,7.73,2.23,2.23,5.23,3.35,9,3.35,3.23,0,6.5-.85,9.81-2.54,3.46-1.77,6.31-3.92,8.54-6.46v-10.04Z"/>
          <path class="cls-1" d="M416.83,284.98v-10.85c-2.92,4.31-6.15,7.31-9.69,9-3.69,1.77-7.5,2.65-11.42,2.65-7.69,0-14.11-2.65-19.27-7.96-5.15-5.38-7.73-12.07-7.73-20.08s2.5-15.19,7.5-20.65c5.08-5.46,11.46-8.19,19.15-8.19,3.85,0,7.69.92,11.54,2.77,3.69,1.92,7,5.27,9.92,10.04v-35.07h6v73.15h9.92v5.19h-15.92ZM410.71,240.68c-4.15-4.54-9.23-6.81-15.23-6.81s-11.08,2.27-15,6.81c-4.08,4.69-6.11,10.38-6.11,17.08s2.04,11.85,6.11,16.38c4.15,4.46,9.23,6.69,15.23,6.69s11.31-2.19,15.23-6.58c4-4.46,6-10.08,6-16.84s-2.08-12.19-6.23-16.73Z"/>
        </g>
        <g>
          <path class="cls-3" d="M127.18,316.86c18.93,0,34.17,15.78,33.3,34.9-.78,17.01-14.51,30.83-31.51,31.72-2.21.12-4.37.01-6.48-.28-.91-.13-1.32,1.09-.51,1.53,5.56,3.02,11.93,4.73,18.7,4.73,21.2,0,38.75-17.12,39.25-38.32.52-22.12-17.25-40.21-39.25-40.21-6.78,0-13.15,1.72-18.72,4.74-.8.43-.38,1.65.52,1.52,1.54-.22,3.11-.33,4.71-.33Z"/>
          <path class="cls-3" d="M91.87,290.91c-18.93,0-34.17-15.78-33.3-34.9.78-17.01,14.51-30.83,31.51-31.72,2.21-.12,4.37-.01,6.48.28.91.13,1.32-1.09.51-1.53-5.56-3.02-11.93-4.73-18.7-4.73-21.2,0-38.75,17.12-39.25,38.32-.52,22.12,17.25,40.21,39.25,40.21,6.78,0,13.15-1.72,18.72-4.74.8-.43.38-1.65-.52-1.52-1.54.22-3.11.33-4.71.33Z"/>
          <path class="cls-1" d="M179.94,213.46c0-3.53-2.69-6.59-6.21-6.8-3.58-.22-6.59,2.41-6.99,5.84h-5.01c-.38-3.29-3.18-5.85-6.58-5.85s-6.19,2.56-6.58,5.85h-5.01c-.38-3.29-3.18-5.85-6.58-5.85s-6.19,2.56-6.58,5.85h-5.01c-.38-3.29-3.18-5.85-6.58-5.85h0c-3.66,0-6.62,2.97-6.62,6.62v7.67c0,.24.05.47.13.69-.08.52-.13,1.05-.13,1.6v68.16c0,5.93,4.81,10.74,10.74,10.74h15.73c.46,0,.83-.37.83-.83v-13.84c0-3.63,2.94-6.57,6.57-6.57h0c3.63,0,6.57,2.94,6.57,6.57v13.84c0,.46.38.83.83.83h15.73c5.93,0,10.74-4.81,10.74-10.74v-68.16c0-.55-.05-1.08-.13-1.6.08-.22.13-.45.13-.69v-7.48ZM151.3,262.68c0,.85-.69,1.54-1.54,1.54h-7.39c-.85,0-1.54-.69-1.54-1.54v-6.06c0-2.89,2.34-5.23,5.23-5.23h0c2.89,0,5.23,2.34,5.23,5.23v6.06ZM151.3,236.35c0,.85-.69,1.54-1.54,1.54h-7.39c-.85,0-1.54-.69-1.54-1.54v-6.06c0-2.89,2.34-5.23,5.23-5.23h0c2.89,0,5.23,2.34,5.23,5.23v6.06Z"/>
          <path class="cls-2" d="M96.1,395.01h0c-27.8,0-57-28.09-57-62.74v-16.16c0-5.93,4.81-10.74,10.74-10.74h46.26c5.93,0,10.74,4.81,10.74,10.74v68.16c0,5.93-4.81,10.74-10.74,10.74Z"/>
          <path class="cls-4" d="M86.26,332.81l-9.02,1.76c-.29.06-.55-.2-.5-.5l1.76-9.02c.05-.26-.15-.5-.41-.5h-10.24c-.27,0-.47.24-.41.5l1.76,9.02c.06.29-.2.55-.5.5l-9.02-1.76c-.26-.05-.5.15-.5.41v10.24c0,.27.24.47.5.41l9.02-1.76c.29-.06.55.2.5.5l-1.76,9.02c-.05.26.15.5.41.5h10.24c.27,0,.47-.24.41-.5l-1.76-9.02c-.06-.29.2-.55.5-.5l9.02,1.76c.26.05.5-.15.5-.41v-10.24c0-.27-.24-.47-.5-.41Z"/>
        </g>
      </g>
    </g>
  </g>
</svg>