<?xml version="1.0" encoding="UTF-8"?>
<svg id="Layer_2" data-name="Layer 2" xmlns="http://www.w3.org/2000/svg" viewBox="0 0 600 600">
  <defs>
    <style>
      .cls-1 {
        fill: #000;
      }

      .cls-1, .cls-2, .cls-3 {
        stroke-width: 0px;
      }

      .cls-2 {
        fill: #6c3f75;
      }

      .cls-3 {
        fill: #fff;
      }
    </style>
  </defs>
  <g id="LOGOS">
    <g>
      <rect class="cls-3" width="600" height="600" rx="30" ry="30"/>
      <g>
        <g>
          <path class="cls-2" d="M188.05,220.01c-.2-.7-.42-1.4-.67-2.07-4.42-11.84-15.8-20.27-28.12-23.11-12.32-2.84-25.38-.62-37.1,4.12-52.28,21.14-73.65,90.45-48.7,139.7,5.59,11.03,13.75,20.69,24.11,27.51,27.48,18.09,66.92,8.01,78.94-23.29,8.14-21.2,9.31-56.27-8.53-73.17-11.73-11.11-31.3-11.83-44.38-2.49-4.15,2.97-7.75,7-9.13,11.91-1.37,4.91-.11,10.75,3.91,13.89,8.5,6.64,22.98-1.56,30.97,5.68,2.28,2.06,3.52,5.08,3.94,8.12,1.28,9.17-4.8,18.47-13.28,22.2-8.47,3.73-18.66,2.36-26.65-2.3-8-4.66-13.97-12.27-18.02-20.6-11.18-22.92-7.78-52.2,8.35-71.95,6.56-8.04,15.64-14.77,25.99-15.51,2.29-.16,4.7,0,6.7,1.13,5.78,3.29,4.82,11.94,8.21,17.66,4.28,7.22,14.24,8.13,22.62,7.69,5.66-.3,11.68-.99,16.05-4.6,5.74-4.74,6.79-13.24,4.77-20.5Z"/>
          <path class="cls-2" d="M425.83,335.96c-1.37-8.7.79-18.1,5.47-25.74,1.54-2.52,3.28-5.5,1.97-8.13-1.34-2.68-5.21-3.41-8.39-2.95-6.87.99-10.87,5.84-14.48,10.82-1.82,2.51-3.86,5.03-6.76,6.44-4.68,2.27-8.9.34-11.12-3.7-6.64-12.09-6.3-28.78,5.48-38.15,9.32-7.42,20.81-13.51,24.47-24.83,2.36-7.3.25-16.07-6.7-20.54-4.52-2.91-10.46-3.15-14.72.36-7.87,6.48-6.03,18.67-7.99,27.27-1.02,4.46-4.72,14.81-11.88,13.41-3.54-.69-4.38-4.73-5.17-7.34-5.22-17.3,3.89-33.19,16.13-45.69,3.17-3.24,6.05-7.15,6.02-11.5-.05-7.72-8.46-11.01-15.59-11.9-5.71-.71-11.6-.76-17.16.6-11.57,2.82-18.31,11.74-19.86,21.92-1.58,10.38,1.31,21.25,5.02,31.06,3.49,9.24,8.23,18.2,10.68,27.72,2.49,9.66,3.06,19.66,2.58,29.53-.46,9.52-2.9,19.16-8.21,27.57-4.47,7.07-10.31,13.65-12.78,21.57-2.67,8.55,1.42,16.23,10.98,19.5,5.21,1.78,11.1,1.79,16.53.92,2.71-.43,5.41-1.37,7.33-3.17,6.26-5.87,3.5-17.41,2.89-24.64-.57-6.79-1.09-13.59-.75-20.4.22-4.47,3.83-7.1,6.86-2.36,1.45,2.27,1.06,5.35,1.26,7.89.69,8.94,1.14,18.13,2.9,26.97.76,3.85,2.16,7.69,4.87,10.77,2.71,3.08,6.9,5.33,11.32,5.26,10.24-.14,16.44-10.59,18.47-18.6,1.66-6.51,1.36-13.33.31-19.94Z"/>
          <path class="cls-2" d="M197.04,257.11c-2.73,1.6-5.84,2.43-8.67,3.84-2.85,1.41-5.56,3.66-6.27,6.75-.93,4.06,1.89,8.07,5.18,10.61,5.77,4.44,13.52,5.9,20.6,4.49,8.45-1.69,12.56-5.78,13.77-14.22.99-6.94,1.47-13.93,1.42-20.93-.04-4.99-.68-10.31,1.37-15.08,2.11-4.92,7.05-6.62,12.67-7.37,4.29-.57,8.74-.68,12.77-2.12,6.27-2.25,10.81-7.87,11.17-13.84.36-5.97-3.47-11.98-9.44-14.81-10.18-4.82-18.17,1.55-27.53,4.26-3.06.89-6.39,1.25-9.51.55-4.99-1.12-9.16-4.68-14.6-3.9-6.71.96-10.28,7.81-7.26,13.74,5.46,10.74,14.8,18.42,13.87,31.6-.46,6.55-3.84,13.06-9.49,16.4-.01,0-.02.01-.03.02Z"/>
          <path class="cls-2" d="M340.12,320.49c-2.55-5.07-7.57-9.26-13.57-10.25-6-.99-12.76,1.74-15.23,6.84-1.74,3.59-1.27,7.78.01,11.53,1.28,3.75,3.32,7.24,4.73,10.95,2.49,6.57,3.25,14.89-.55,21.2-2.63,4.37-10.56,7.11-14.18,2.21-1.97-2.67-1.99-6.12-1.94-9.34.22-13.76.45-27.52.67-41.28.11-6.78.22-13.57.33-20.35.08-5.03-1.13-10.14-.02-15.13,1.02-4.61,4.23-7.19,8.53-8.81,4.21-1.58,8.66-2.46,12.79-4.25,5.71-2.47,10.94-7.56,10.31-14.26-.14-1.52-.61-3.06-1.6-4.22-1.14-1.33-2.85-2.04-4.55-2.45-5.48-1.32-11.12,0-16.4,1.55-3.77,1.1-8.32.89-9.63-3.57-.86-2.92-.84-8.17.76-10.94,1.26-2.18,3.61-2.99,6-3.19,5.73-.49,11.29,1.74,16.93,2.33.9.09,1.8.16,2.7.1,4.32-.31,8.47-2.24,11.27-5.26,7.68-8.25,2.65-19.04-5.71-24.92-3.22-2.26-6.9-3.78-10.71-4.72-9.71-2.41-20.33-1.58-30.02.5-10.39,2.24-22.77,14.2-17.74,25.59,1.15,2.6,2.78,4.97,3.81,7.62,2.75,7.06.71,16.21-5.61,20.68-2.81,1.99-5.44,2.15-8.69,2.52-6.79.78-14.37,2.32-19.97,6.44-1.52,1.11-2.92,2.48-3.67,4.2-1.51,3.45,0,7.7,2.86,10.16s6.77,3.35,10.54,3.41c3.77.06,7.5-.63,11.25-.98,1.95-.18,3.95-.27,5.86.17,5.28,1.2,7.3,6.53,7.46,11.45.29,9.16-.98,18.44-1.03,27.63-.05,9.28.19,18.56.31,27.85,0,.7.02,1.39.03,2.09.12,10.39.51,22.18,11.99,27.52,4.47,2.08,9.54,2.83,14.55,3.01,8.74.32,18.1-1.27,24.45-6.78,4.46-3.87,6.95-9.23,9.22-14.46,2.25-5.19,4.41-10.46,5.37-15.97.96-5.51.64-11.34-1.91-16.41Z"/>
          <path class="cls-2" d="M324.56,276.03c-9.38,3.23-14.98,13.37-8.25,21.94,5.13,6.54,16.91,9.46,24.71,5,5.7-3.26,8.64-9.81,7.2-15.67-1.44-5.86-7.07-10.7-13.71-11.97-3.52-.68-6.94-.35-9.96.69Z"/>
          <path class="cls-2" d="M536.68,297.32c-1.19-21.47-4.93-44.34-15.45-63.76-10.61-19.6-29.54-34.79-53.15-39.39-14.16-2.76-37.38-3.45-47.09,7.81-9.19,10.66.41,22.31,7.7,31.02,8.22,9.84,15.19,20.75,18.96,32.72,4.63,14.67,4.29,30.39.94,45.35-3.34,14.96-9.6,29.24-16.68,43.06-.6,1.17-1.2,2.41-1.71,3.67-1.54,3.79-2.29,7.82.14,10.98,3.39,4.42,12.15,5.96,17.6,5.36,11.12-1.23,14.27-10.9,14.87-19.76,1.05-15.42-.99-31.46,5.05-45.89,1.06-2.53,2.43-5.05,4.71-6.77,3.9-2.93,9.43-2.85,14.31-4.02,6.38-1.53,12.01-5.5,15.27-10.75,3.26-5.25,4.09-11.72,2.26-17.52-1.74-5.52-7.19-10.21-13.73-8.01-6.61,2.23-9.57,9.11-17.53,9.31-4.5.12-8.81-2.2-11.59-5.45-2.78-3.25-4.19-7.32-4.87-11.4-1.91-11.55,3.37-26.57,17.86-28.4,7.06-.89,13.68,2.77,19.14,6.97,15.26,11.74,21.5,31.31,24.61,48.65,2.09,11.61,2.98,23.67-.32,35.04-1.7,5.85-4.83,11.78-10.55,14.82-7.42,3.94-17.03,1.99-24.97,4.95-9.6,3.58-14.7,14.59-11.63,23.66,3.07,9.07,13.34,15.39,23.71,15.39,12.41,0,23.49-8.04,29.74-17.87,11.38-17.89,13.52-39.48,12.4-59.77Z"/>
          <path class="cls-2" d="M245.83,287.07c-4.51-1.76-9.46-2.63-14.29-2.68-8.28-.1-16.58,1.87-23.93,5.68-5.27,2.73-10.44,7.04-11.19,12.92-.64,5.1,2.48,10.25,6.97,12.75,4.49,2.5,10.07,2.57,14.96.99,4.89-1.59,9.16-4.7,12.86-8.27,2.79-2.7,5.26-6.64,9.3-7.54s8.92,1.61,10.86,5.34c1.51,2.9,1.58,6.46.42,9.52-6.46,17.01-29.95,8.16-42.97,9.02-16.66,1.1-29.46,12.1-30.07,27.77-.27,6.98,3.34,13.28,9.14,17.05,7.3,4.75,16.02,4.9,24.43,4.5.53-.03,1.06-.05,1.59-.08,4.51-.24,11.2-.25,14.47-3.89,2.82-3.14,3.38-8.36,1.47-12.1-2.3-4.51-8.06-6.91-12.88-5.36-4.43,1.42-7.85,5.59-12.83,5.34-6.11-.3-9.46-8.23-6.53-13.16,5.74-9.65,20.09-11.29,29.33-6.29,6.56,3.55,11.26,10.45,12.37,17.81.56,3.67-.73,7.35.21,11.05,1.88,7.37,10.24,7.12,16.33,6.77,3.52-.2,7.54-.96,9.3-4.01,3.4-5.88-3.78-12.12-5.28-17.43-3.31-11.71,3.49-23.66,4.08-35.34.37-7.17-.97-14.65-5.09-20.53-3.2-4.57-7.83-7.8-13.04-9.84Z"/>
        </g>
        <g>
          <path class="cls-1" d="M85.33,401.13l-.25-.13-.07.28c-.32,1.35-.98,2.46-1.97,3.31-1.27,1.1-2.96,1.66-5.03,1.66-2.55,0-4.49-1.06-5.78-3.15-1.1-1.75-1.65-4.04-1.65-6.8s.58-5.05,1.71-6.86c1.33-2.11,3.3-3.18,5.87-3.18,3.51,0,5.68,1.38,6.62,4.22l.08.25.23-.12.92-.47.17-.09-.07-.18c-.47-1.28-1.24-2.33-2.29-3.14-1.49-1.19-3.33-1.79-5.48-1.79-3.16,0-5.56,1.17-7.16,3.46-1.38,2.02-2.08,4.68-2.08,7.9s.68,5.84,2.02,7.78c1.57,2.28,3.94,3.44,7.04,3.44,2.41,0,4.39-.66,5.88-1.98,1.11-.99,1.87-2.24,2.25-3.72l.04-.17-.16-.08-.86-.44Z"/>
          <path class="cls-1" d="M121.47,391.19c0-2.24-.74-3.83-2.2-4.74-1.14-.69-2.91-1.04-5.29-1.04h-7.28v21.69h1.45v-10.05h6.19c1.44,0,2.49.17,3.15.51.83.42,1.33,1.23,1.54,2.47.02.14.03.39.04.72,0,.34.01.8.01,1.37v4.98h1.6v-.22s-.03-4.05-.03-4.05c0-2.45-.02-2.71-.03-2.78-.18-1.9-1.01-3.13-2.47-3.66,2.21-.91,3.33-2.65,3.33-5.2ZM108.15,386.77h5.84c.6,0,1.13.01,1.58.04.44.03.81.06,1.08.1,2.28.41,3.39,1.84,3.39,4.36,0,2.99-1.81,4.45-5.54,4.45h-6.34v-8.95Z"/>
          <polygon class="cls-1" points="143.07 405.71 143.07 396.49 152.34 396.49 152.56 396.49 152.56 396.27 152.56 395.36 152.56 395.13 152.34 395.13 143.07 395.13 143.07 386.8 154.82 386.8 155.04 386.8 155.04 386.58 155.04 385.63 155.04 385.41 154.82 385.41 141.85 385.41 141.63 385.41 141.63 385.63 141.63 406.88 141.63 407.1 141.85 407.1 155.12 407.1 155.34 407.1 155.34 406.88 155.34 405.94 155.34 405.71 155.12 405.71 143.07 405.71"/>
          <path class="cls-1" d="M182.1,385.56l-.05-.14h-1.43l-.05.14-8.19,21.25-.12.3h1.45l.05-.14,2.72-7.1h9.59l2.69,7.1.05.14h1.45l-.11-.3-8.07-21.25ZM185.56,398.53h-8.55l4.31-11.13,4.23,11.13Z"/>
          <polygon class="cls-1" points="205.65 385.41 205.43 385.41 205.43 385.63 205.43 386.55 205.43 386.77 205.65 386.77 212.04 386.77 212.04 406.88 212.04 407.1 212.27 407.1 213.27 407.1 213.49 407.1 213.49 406.88 213.49 386.77 219.89 386.77 220.11 386.77 220.11 386.55 220.11 385.63 220.11 385.41 219.89 385.41 205.65 385.41"/>
          <polygon class="cls-1" points="239.33 385.41 239.11 385.41 239.11 385.63 239.11 406.88 239.11 407.1 239.33 407.1 240.31 407.1 240.53 407.1 240.53 406.88 240.53 385.63 240.53 385.41 240.31 385.41 239.33 385.41"/>
          <polygon class="cls-1" points="275.03 385.41 275.03 385.41 274 385.41 273.84 385.41 273.79 385.56 267.2 404.75 260.58 385.56 260.53 385.41 260.37 385.41 259.37 385.41 259.06 385.41 259.16 385.71 266.49 406.95 266.54 407.1 266.7 407.1 267.64 407.1 267.8 407.1 267.85 406.95 275.24 385.71 275.34 385.41 275.03 385.41 275.03 385.41"/>
          <polygon class="cls-1" points="295.14 405.71 295.14 396.49 304.4 396.49 304.62 396.49 304.62 396.27 304.62 395.36 304.62 395.13 304.4 395.13 295.14 395.13 295.14 386.8 306.89 386.8 307.11 386.8 307.11 386.58 307.11 385.63 307.11 385.41 306.89 385.41 293.91 385.41 293.69 385.41 293.69 385.63 293.69 406.88 293.69 407.1 293.91 407.1 307.18 407.1 307.4 407.1 307.4 406.88 307.4 405.94 307.4 405.71 307.18 405.71 295.14 405.71"/>
          <path class="cls-1" d="M362.53,396.94c-.85-.55-2.4-1.12-4.72-1.74-.11-.04-.2-.07-.29-.08-.07,0-.09-.02-.09-.02h-.02s-.02-.02-.02-.02c-2.1-.54-3.48-1.1-4.1-1.66-.83-.77-1.23-1.65-1.23-2.7,0-1.48.48-2.58,1.48-3.37.92-.75,2.16-1.13,3.67-1.13,1.63,0,2.99.45,4.02,1.34,1.07.92,1.63,2.21,1.67,3.86v.22h1.4v-.23c-.11-2.04-.81-3.65-2.1-4.77-1.24-1.11-2.9-1.68-4.93-1.68-1.87,0-3.43.48-4.63,1.44-1.31,1-1.97,2.46-1.97,4.34,0,1.5.53,2.74,1.58,3.68.68.62,2.23,1.26,4.73,1.97.2.05.28.08.31.09l.02.02h.06c2.15.6,3.56,1.1,4.19,1.52,1.27.79,1.88,1.94,1.88,3.51s-.59,2.67-1.8,3.54c-1.08.8-2.43,1.2-4.01,1.2-1.8,0-3.25-.53-4.31-1.59-1.06-1.02-1.65-2.45-1.77-4.26v-.21h-1.43v.24c.16,2.22.89,3.97,2.21,5.2,1.29,1.27,3.07,1.92,5.26,1.92,2.07,0,3.79-.51,5.1-1.52,1.45-1.14,2.18-2.75,2.18-4.79,0-1.84-.79-3.29-2.35-4.29Z"/>
          <polygon class="cls-1" points="382.98 385.41 382.75 385.41 382.75 385.63 382.75 386.55 382.75 386.77 382.98 386.77 389.37 386.77 389.37 406.88 389.37 407.1 389.6 407.1 390.6 407.1 390.82 407.1 390.82 406.88 390.82 386.77 397.22 386.77 397.44 386.77 397.44 386.55 397.44 385.63 397.44 385.41 397.22 385.41 382.98 385.41"/>
          <path class="cls-1" d="M430.7,385.41h-.22v13.58c0,2.26-.51,4.03-1.52,5.27-1.09,1.32-2.75,1.99-4.94,1.99-4.34,0-6.46-2.37-6.46-7.25v-13.58h-1.42v14.05c0,2.55.69,4.54,2.04,5.92,1.37,1.44,3.34,2.16,5.83,2.16s4.44-.73,5.83-2.17c1.36-1.42,2.04-3.41,2.04-5.92v-14.05h-1.2Z"/>
          <path class="cls-1" d="M464.69,386.47c-1.45-.7-3.77-1.06-6.93-1.06h-5.1v21.69h5.1c3.07,0,5.4-.35,6.92-1.05,3.2-1.51,4.83-4.8,4.83-9.78s-1.62-8.19-4.82-9.8ZM458,405.77h-3.89v-19h3.89c.86,0,1.62.02,2.26.06.64.04,1.19.1,1.63.17,1.41.27,2.56.79,3.41,1.54,1.81,1.64,2.73,4.24,2.73,7.72,0,4.28-1.28,7.13-3.81,8.46-1.32.69-3.41,1.04-6.22,1.04Z"/>
          <polygon class="cls-1" points="489.95 385.41 489.73 385.41 489.73 385.63 489.73 406.88 489.73 407.1 489.95 407.1 490.92 407.1 491.14 407.1 491.14 406.88 491.14 385.63 491.14 385.41 490.92 385.41 489.95 385.41"/>
          <path class="cls-1" d="M528.36,388.31c-1.67-2.24-4.16-3.37-7.39-3.37s-5.71,1.14-7.36,3.4c-1.5,2.02-2.26,4.69-2.26,7.93s.76,5.93,2.26,7.93c1.69,2.22,4.17,3.34,7.36,3.34s5.74-1.11,7.39-3.31c1.5-1.98,2.26-4.66,2.26-7.96s-.76-5.94-2.26-7.96ZM520.98,406.25c-2.75,0-4.85-1-6.26-2.98-1.25-1.76-1.88-4.12-1.88-6.99s.63-5.23,1.88-6.99c1.43-2,3.53-3.01,6.26-3.01s4.83,1.01,6.26,3.01c1.27,1.77,1.91,4.12,1.91,6.99s-.63,5.25-1.88,6.99c-1.41,1.98-3.52,2.98-6.29,2.98Z"/>
        </g>
      </g>
    </g>
  </g>
</svg>