<?xml version="1.0" encoding="UTF-8"?>
<svg id="Layer_2" data-name="Layer 2" xmlns="http://www.w3.org/2000/svg" viewBox="0 0 600 600">
  <defs>
    <style>
      .cls-1 {
        fill: #000;
      }

      .cls-1, .cls-2, .cls-3 {
        stroke-width: 0px;
      }

      .cls-2 {
        fill: #d63684;
      }

      .cls-3 {
        fill: #fff;
      }
    </style>
  </defs>
  <g id="LOGOS">
    <g>
      <rect class="cls-1" x="0" width="600" height="600" rx="30" ry="30"/>
      <g id="logo_square" data-name="logo square">
        <g>
          <path class="cls-3" d="M438.46,314.68h16.66v-24.91c-.04-35.92-14.08-69.68-39.54-95.06-22.57-22.5-51.73-36.04-83.14-38.84-.71-.06-169.12-.54-169.12-.54v88.02h42.51l.18-45.34h83.94l.12,59.11.02,7.27.28,133.84c-23.83-3.78-44.97-16.11-60.14-33.65-12.03-13.9-20.31-31.07-23.24-49.87h0c-.76-4.92-1.16-9.95-1.16-15.06v-13.72h-42.51v13.72c0,29.86,9.18,58.31,26.19,82.17,1.55,2.17,3.17,4.31,4.85,6.4,3.33,4.15,6.91,8.14,10.73,11.96,23.24,23.16,53.07,37.35,85.28,40.81,5.13.55,10.32.83,15.55.83h149.2l-63.17-102.6-36.21,22.27,23.34,37.94h-46.21l-.18-84.76h105.77ZM332.6,271.99l-.16-73.96h0c37.08,4.86,68.63,31.7,78.4,67.2.61,2.22,1.14,4.48,1.58,6.76h-79.82Z"/>
          <path class="cls-2" d="M320.31,161.53c-.96-1.99-2.01-3.94-3.15-5.84-6.7-11.25-16.36-20.83-28.24-27.96-14.53-8.72-32.16-13.55-50.98-13.95-1.45-.04-2.71,1.01-2.95,2.44-.12.68-2.69,15.73-6.7,39.21,1.97,0,3.95,0,5.95.01,3.03-17.75,5.21-30.54,6.09-35.72,30.35,1.31,55.69,14.47,69.9,35.94,1.78,2.68,3.37,5.49,4.79,8.42,12.05,24.97,8.04,53.66-11.01,78.7-4.19,5.51-8.91,10.26-13.96,14.34-16.67,13.47-37.03,19.57-54.63,21.18-.82-4.68-5.88-20.84-17.35-28.33,3.12-18.23,6.13-35.85,8.89-51.96h-5.95c-2.62,15.34-5.47,32.02-8.43,49.29-.03-.01-.06-.02-.09-.03-9.33-3.09-19.02-1.53-24.68,3.96-4.24,4.11-5.63,9.91-3.84,15.9,2.12,7.09,10.27,12.64,22.57,15.47-.24,1.41-.48,2.81-.72,4.21-5.7,33.26-11.42,66.59-16.32,95-6.64,38.49-11.76,67.97-13.27,76.04-.3,1.59.75,3.12,2.34,3.42,1.59.29,3.12-.75,3.42-2.34,1.44-7.7,6.16-34.84,12.36-70.71,3.8-22.04,8.15-47.37,12.63-73.51h0c1.76-10.27,3.54-20.66,5.32-31.02,5.74.86,11.88,1.17,18.22.91.5,3.25.97,6.56,1.44,9.8,2.22,15.62,4.52,31.77,10.32,44.52,6.83,14.98,17.54,23,32.75,24.51,1.7.17,3.4.25,5.11.25,3.36,0,6.74-.33,10.14-.98v-5.98c-4.96,1.07-9.85,1.36-14.68.88-29.17-2.89-33.58-33.97-37.85-64.02-.45-3.1-.89-6.26-1.37-9.39,18.24-1.75,37.62-8.16,53.7-19.8,6.94-5.03,13.25-11.03,18.6-18.06,10.42-13.7,16.62-28.35,18.44-43.56,1.7-14.22-.66-28.47-6.81-41.24ZM207.55,276.83c-9.87-2.33-16.49-6.47-17.95-11.37-1.18-3.94-.38-7.41,2.31-10.01,2.64-2.56,6.6-3.9,11.02-3.9,2.48,0,5.11.42,7.73,1.29.32.11.63.22.94.34-1.34,7.8-2.69,15.72-4.05,23.65ZM213.3,277.91c1.24-7.21,2.47-14.38,3.68-21.49,7.76,6.44,11.65,18.05,12.57,22.26-5.94.22-11.45-.08-16.25-.77ZM500.42,271.11c-1.6-.28-3.12.78-3.4,2.37-.62,3.47-3.45,15.91-13.76,30.45-6.92,9.76-15.91,16.31-25.33,18.44-8.47,1.93-14.65-1.21-19.47-7.69-6.57-8.81-10.62-23.81-14.5-40.59-1.27-5.47-2.46-10.63-3.76-14.95-.33-1.1-1.27-1.9-2.4-2.06-1.13-.16-2.25.35-2.87,1.31-1.36,2.11-2.72,4.39-4.08,6.83-1.2,2.14-2.38,4.39-3.58,6.76-5.99,11.88-11.97,26.54-17.83,42.69-3.81,10.49-7.56,21.6-11.23,33-3.54,10.99-10,31.74-10.3,32.72.22-1.08,3.89-19.81,6.01-30.08,2.5-12.1,4.99-24.18,7.34-35.64,3.29-16,6.33-30.78,8.76-42.69,3.25-15.85,5.45-26.63,5.82-28.45.29-1.44-.53-2.88-1.93-3.36-1.39-.47-2.92.16-3.57,1.48-5.31,10.83-10.65,20.95-15.97,30.32-9.43,16.56-18.85,30.82-28.24,42.69-4.48,5.67-8.95,10.79-13.41,15.36l.02,8.23c.62-.59,1.24-1.19,1.86-1.8,6.29-6.2,12.62-13.47,18.95-21.79,9.18-12.06,18.37-26.31,27.54-42.69,1.58-2.81,3.15-5.68,4.72-8.61-.54,2.67-1.14,5.55-1.76,8.61-2.46,11.98-5.48,26.75-8.77,42.69-2.64,12.81-5.43,26.38-8.21,39.86-1.32,6.37-2.63,12.74-3.93,18.98-1.86,8.95-3.67,17.68-5.39,25.92h10.73c1.14-3.85,2.29-7.73,3.46-11.62,4.49-15.04,9.18-30.26,13.97-44.87,3.21-9.78,6.47-19.28,9.76-28.27,6.83-18.65,13.79-35.12,20.69-47.29.63,2.54,1.25,5.24,1.89,8.02,2.89,12.47,6.16,26.59,11.95,37.22.39.71.78,1.39,1.18,2.06,6.99,11.51,16.35,16.01,27.84,13.4,10.83-2.46,21.06-9.83,28.81-20.76,11.01-15.53,14.07-29.04,14.75-32.8.28-1.59-.78-3.12-2.37-3.4ZM345.27,457.64c-.42,1.55.49,3.14,2.03,3.58.26.08.54.12.8.12,1.26,0,2.42-.82,2.81-2.09,1.65-5.44,3.38-11.29,5.18-17.42h-7.27c-1.79,8.32-3.04,13.96-3.54,15.81Z"/>
        </g>
      </g>
    </g>
  </g>
</svg>