<?xml version="1.0" encoding="UTF-8"?>
<svg id="Layer_2" data-name="Layer 2" xmlns="http://www.w3.org/2000/svg" viewBox="0 0 144.28 44">
  <defs>
    <style>
      .cls-1 {
        fill: #181818;
      }

      .cls-1, .cls-2 {
        stroke-width: 0px;
      }

      .cls-2 {
        fill: #e1782a;
      }
    </style>
  </defs>
  <g id="Layer_1-2" data-name="Layer 1">
    <g id="logo">
      <path id="kotva" class="cls-2" d="M71.42,4.4V.02h-11.39v4.38h1.31v4.38h-.88v4.38h.88v13.14h8.76v-13.14h.88v-4.38h-.88v-4.38h1.31ZM63.09,24.11v-10.94h1.75v10.94h-1.75ZM68.35,24.11h-1.75v-10.94h1.75v10.94Z"/>
      <path class="cls-1" d="M96.39,17.55c-2.42,0-4.38-1.96-4.38-4.38h0c0-2.42,1.96-4.38,4.38-4.38h4.38V.02h-8.76v4.38c0,2.42-1.96,4.38-4.38,4.38h0c-2.42,0-4.38-1.96-4.38-4.38V.02h-8.76v26.29h8.76v-4.38c0-2.42,1.96-4.38,4.38-4.38h0c2.42,0,4.38,1.96,4.38,4.38v4.38h8.76v-8.76h-4.38Z"/>
      <g>
        <path class="cls-1" d="M144.28,7.86c0,.56-.12,1.05-.35,1.47-.23.42-.54.77-.92,1.06-.38.28-.82.5-1.31.65-.49.15-1,.23-1.52.24-.52,0-1.03-.05-1.53-.17-.5-.12-.95-.32-1.36-.58-.4-.26-.74-.6-1-1-.26-.4-.41-.87-.45-1.41l2.35-.19c0,.24.09.44.25.61.15.17.34.3.57.39.23.09.48.15.75.18.27.02.54.02.81-.02.4-.05.72-.18.95-.39.24-.21.37-.45.4-.7s-.06-.49-.27-.72-.56-.37-1.06-.44c-.45-.08-.89-.13-1.33-.16-.44-.03-.86-.11-1.27-.24-.73-.2-1.3-.57-1.7-1.11-.4-.54-.61-1.17-.61-1.88,0-.56.12-1.05.35-1.47.23-.43.54-.78.92-1.07.38-.28.82-.5,1.32-.65.5-.15,1-.23,1.52-.25.52-.01,1.03.04,1.53.17.5.13.96.33,1.36.59.41.26.74.59,1.01.99.26.4.41.86.45,1.4l-2.37.22c-.01-.2-.07-.37-.18-.53-.11-.15-.25-.28-.42-.39-.17-.1-.37-.18-.58-.23-.21-.05-.43-.07-.66-.07-.34,0-.64.05-.9.16-.26.1-.48.24-.64.39-.16.16-.27.34-.31.53-.04.19-.02.38.07.55.09.17.26.33.51.46.25.13.59.22,1.01.26.19.02.37.03.54.03s.34.01.51.03c.51.06.97.17,1.4.34.43.16.81.38,1.13.66.32.27.57.6.75.98.18.38.27.82.27,1.32Z"/>
        <path class="cls-1" d="M140.8,20.76l3.11,5.54h-2.59l-1.5-2.73-.46-.85-.51-.91h-.52v4.48h-2.49v-11.16h2.49v5.41l2.99-5.41h2.58l-3.1,5.62Z"/>
      </g>
      <path class="cls-1" d="M13.14.02C5.89.02,0,5.91,0,13.17v13.14h8.76v-13.14c0-2.42,1.96-4.38,4.38-4.38s4.38,1.96,4.38,4.38v13.14h8.76v-13.14C26.29,5.91,20.4.02,13.14.02Z"/>
      <path class="cls-1" d="M56.96,13.17C56.96,5.91,51.07.02,43.82.02h-13.14v8.76h13.14c2.42,0,4.38,1.96,4.38,4.38s-1.96,4.38-4.38,4.38h-13.14v8.76h13.14c7.26,0,13.14-5.89,13.14-13.14Z"/>
      <g id="vrták">
        <path class="cls-2" d="M114.65,15.58l-5.31,5.31c-.85-.98-1.54-2.11-2.03-3.34h-2.15v-3.5h8.85c.11.56.33,1.08.64,1.54Z"/>
        <path class="cls-2" d="M117.43,17.46v8.85h-3.51v-2.15c-1.23-.49-2.36-1.18-3.34-2.03l5.31-5.31c.46.3.98.52,1.54.64Z"/>
        <path class="cls-2" d="M109.34,5.45l5.31,5.3c-.3.46-.52.98-.64,1.54h-8.85v-3.5h2.15c.49-1.23,1.18-2.35,2.03-3.34Z"/>
        <path class="cls-2" d="M117.42.02v8.85c-.56.11-1.08.33-1.54.64l-5.31-5.31c.99-.85,2.11-1.54,3.34-2.03V.02h3.5Z"/>
        <path class="cls-2" d="M126.02,4.2l-5.31,5.31c-.46-.3-.98-.52-1.54-.64V.02h3.5v2.15c1.23.49,2.36,1.18,3.34,2.03Z"/>
        <path class="cls-2" d="M131.45,8.78v3.51h-8.85c-.11-.56-.33-1.08-.64-1.54l5.31-5.31c.85.98,1.54,2.11,2.03,3.34h2.15Z"/>
        <path class="cls-2" d="M120.72,16.82l5.31,5.31c-.98.85-2.11,1.54-3.34,2.03v2.15h-3.51v-8.85c.56-.11,1.08-.33,1.54-.64Z"/>
        <path class="cls-2" d="M131.45,14.04v3.51h-2.15c-.49,1.23-1.18,2.36-2.03,3.34l-5.31-5.31c.3-.46.52-.98.64-1.54h8.85Z"/>
        <circle class="cls-1" cx="118.3" cy="13.17" r="3.07"/>
      </g>
      <g>
        <g>
          <polygon class="cls-2" points="3.29 31.44 .12 31.44 .07 31.44 0 31.44 0 31.51 0 31.56 0 31.96 0 32 0 32.08 .07 32.08 .12 32.08 1.36 32.08 1.36 35.48 1.36 35.53 1.36 35.6 1.43 35.6 1.48 35.6 1.94 35.6 1.98 35.6 2.06 35.6 2.06 35.53 2.06 35.48 2.06 32.08 3.29 32.08 3.33 32.08 3.41 32.08 3.41 32 3.41 31.96 3.41 31.56 3.41 31.51 3.41 31.44 3.33 31.44 3.29 31.44"/>
          <path class="cls-2" d="M11.59,31.44h-.58v3c-.01.06-.04.12-.09.18-.06.07-.14.13-.23.19-.09.06-.2.1-.32.13-.12.03-.25.05-.38.05-.14,0-.28-.02-.4-.05-.13-.03-.24-.08-.33-.14-.09-.06-.17-.12-.23-.19-.05-.06-.08-.12-.1-.19v-2.99h-.71v3.02c.01.18.07.34.18.48.1.14.23.26.39.37.16.1.34.19.55.25.21.06.43.09.66.09s.44-.03.64-.09c.2-.06.38-.14.54-.25.16-.11.28-.23.38-.38.1-.15.15-.31.16-.47v-2.9s0-.04,0-.04v-.07h-.12Z"/>
          <polygon class="cls-2" points="19.56 31.44 19.09 31.44 19.05 31.44 18.98 31.44 18.98 31.51 18.98 31.56 18.98 34.2 17.2 31.49 17.19 31.47 17.17 31.44 17.13 31.44 17.11 31.44 16.7 31.44 16.65 31.44 16.58 31.44 16.58 31.51 16.58 31.56 16.58 35.48 16.58 35.53 16.58 35.6 16.65 35.6 16.7 35.6 17.15 35.6 17.2 35.6 17.27 35.6 17.27 35.53 17.27 35.48 17.27 32.83 19.04 35.54 19.05 35.56 19.08 35.6 19.12 35.6 19.14 35.6 19.56 35.6 19.6 35.6 19.67 35.6 19.67 35.53 19.67 35.48 19.67 31.56 19.67 31.51 19.67 31.44 19.6 31.44 19.56 31.44"/>
          <polygon class="cls-2" points="27.52 31.44 27.06 31.44 27.01 31.44 26.94 31.44 26.94 31.51 26.94 31.56 26.94 34.2 25.17 31.49 25.15 31.47 25.13 31.44 25.09 31.44 25.07 31.44 24.66 31.44 24.62 31.44 24.54 31.44 24.54 31.51 24.54 31.56 24.54 35.48 24.54 35.53 24.54 35.6 24.62 35.6 24.66 35.6 25.11 35.6 25.16 35.6 25.23 35.6 25.23 35.53 25.23 35.48 25.23 32.83 27 35.54 27.02 35.56 27.04 35.6 27.08 35.6 27.1 35.6 27.52 35.6 27.56 35.6 27.63 35.6 27.63 35.53 27.63 35.48 27.63 31.56 27.63 31.51 27.63 31.44 27.56 31.44 27.52 31.44"/>
          <polygon class="cls-2" points="35.2 31.44 32.6 31.44 32.56 31.44 32.49 31.44 32.49 31.51 32.49 31.56 32.49 35.48 32.49 35.53 32.49 35.6 32.56 35.6 32.6 35.6 35.2 35.6 35.25 35.6 35.32 35.6 35.32 35.53 35.32 35.48 35.32 35.07 35.32 35.02 35.32 34.95 35.25 34.95 35.2 34.95 33.17 34.95 33.17 33.72 34.89 33.72 34.93 33.72 35 33.72 35 33.65 35 33.61 35 33.19 35 33.15 35 33.08 34.93 33.08 34.89 33.08 33.17 33.08 33.17 32.08 35.2 32.08 35.25 32.08 35.32 32.08 35.32 32 35.32 31.96 35.32 31.56 35.32 31.51 35.32 31.44 35.25 31.44 35.2 31.44"/>
          <polygon class="cls-2" points="42.72 34.95 40.8 34.95 40.8 31.56 40.8 31.51 40.8 31.44 40.73 31.44 40.69 31.44 40.23 31.44 40.19 31.44 40.12 31.44 40.12 31.51 40.12 31.56 40.12 35.48 40.12 35.53 40.12 35.6 40.19 35.6 40.23 35.6 42.72 35.6 42.76 35.6 42.83 35.6 42.83 35.53 42.83 35.48 42.83 35.07 42.83 35.02 42.83 34.95 42.76 34.95 42.72 34.95"/>
          <polygon class="cls-2" points="48.13 31.44 47.67 31.44 47.63 31.44 47.55 31.44 47.55 31.51 47.55 31.56 47.55 35.48 47.55 35.53 47.55 35.6 47.63 35.6 47.67 35.6 48.13 35.6 48.17 35.6 48.25 35.6 48.25 35.53 48.25 35.48 48.25 31.56 48.25 31.51 48.25 31.44 48.17 31.44 48.13 31.44"/>
          <polygon class="cls-2" points="55.99 31.44 55.53 31.44 55.49 31.44 55.42 31.44 55.42 31.51 55.42 31.56 55.42 34.2 53.64 31.49 53.63 31.47 53.61 31.44 53.57 31.44 53.54 31.44 53.13 31.44 53.09 31.44 53.02 31.44 53.02 31.51 53.02 31.56 53.02 35.48 53.02 35.53 53.02 35.6 53.09 35.6 53.13 35.6 53.59 35.6 53.63 35.6 53.7 35.6 53.7 35.53 53.7 35.48 53.7 32.83 55.48 35.54 55.49 35.56 55.51 35.6 55.55 35.6 55.58 35.6 55.99 35.6 56.04 35.6 56.11 35.6 56.11 35.53 56.11 35.48 56.11 31.56 56.11 31.51 56.11 31.44 56.04 31.44 55.99 31.44"/>
          <path class="cls-2" d="M64.49,32.06c-.21-.2-.45-.36-.71-.47-.26-.11-.53-.17-.81-.17s-.57.06-.83.17c-.25.11-.48.27-.67.46-.19.19-.34.42-.45.67-.11.26-.17.53-.17.82s.06.56.17.82c.11.25.26.48.45.67.19.19.42.34.67.45.26.11.53.17.83.17s.55-.05.79-.15c.25-.1.47-.25.67-.43h.01s.02-.02.02-.02v-.02s0-.01,0-.01v-.06s.01,0,.01,0h0v-1.6h-1.83v.64h1.14v.76c-.11.08-.22.14-.36.19-.15.06-.3.09-.46.09-.2,0-.38-.04-.56-.11-.17-.08-.32-.18-.45-.32-.13-.14-.23-.29-.31-.47-.08-.18-.11-.37-.11-.57s.04-.4.11-.57c.08-.18.18-.34.31-.47.13-.13.28-.24.45-.31.17-.07.36-.11.56-.11.18,0,.37.04.54.12.18.08.34.19.49.33l.03.03.05.05.05-.04.03-.03.32-.29.04-.03.06-.05-.06-.05-.03-.03Z"/>
        </g>
        <path class="cls-2" d="M79.19,33.65l-.5-.09h-.04s-.06-.02-.06-.02l-.02.06v.04c-.04.12-.08.21-.11.29-.01.03-.02.06-.04.08-.02-.02-.04-.04-.05-.06-.05-.06-.11-.13-.17-.19-.08-.09-.16-.17-.23-.26-.04-.05-.09-.1-.13-.16.23-.12.41-.26.53-.4.14-.17.22-.36.22-.56,0-.12-.03-.24-.08-.36-.05-.11-.13-.21-.23-.3-.1-.08-.21-.15-.34-.19-.13-.05-.28-.07-.43-.07-.17,0-.32.03-.46.08-.14.05-.26.12-.36.21-.1.09-.18.19-.23.3-.06.12-.08.24-.08.36,0,.06,0,.12.02.18.01.06.04.13.07.2.04.07.09.15.16.24.04.06.1.12.16.18-.27.13-.49.29-.65.47-.19.21-.29.44-.29.69,0,.17.04.32.11.47.07.15.17.28.3.39.13.11.28.2.46.26.17.06.36.1.57.1h.03c.24,0,.46-.05.66-.13.18-.08.36-.2.52-.34.07.08.15.16.24.23.09.07.22.16.4.27l.07.04.11.06v-.73l-.03-.02h-.02c-.06-.06-.11-.1-.14-.13-.03-.03-.06-.05-.09-.08-.02-.02-.04-.05-.06-.07l-.04-.05c.04-.08.13-.24.18-.35.06-.14.13-.3.19-.47l.02-.05.03-.08-.08-.02h-.05ZM77.79,34.38c.07.08.14.17.22.26-.03.04-.07.07-.11.1-.06.05-.13.1-.2.13-.07.04-.15.07-.22.09-.07.02-.15.03-.22.03-.1,0-.19-.02-.28-.06-.08-.04-.16-.09-.22-.15-.06-.06-.11-.13-.14-.21-.03-.07-.05-.14-.05-.22,0-.11.05-.22.14-.33.09-.11.25-.22.47-.34.05.05.09.11.13.15.06.06.12.13.19.21.09.1.19.21.28.32ZM77.76,32.65c-.04.05-.13.13-.33.24l-.19-.19c-.11-.11-.16-.22-.17-.33,0-.08.04-.15.11-.22.08-.07.17-.1.28-.1.12,0,.21.03.28.1.07.07.1.15.1.24s-.03.18-.09.26Z"/>
        <g>
          <path class="cls-2" d="M93.1,32.06c-.15-.19-.33-.34-.53-.45-.2-.11-.43-.17-.66-.17h0s0,0,0,0h-1.76v4.16h1.77c.24,0,.46-.07.66-.18.2-.11.38-.26.52-.45.15-.19.26-.41.35-.66.08-.25.13-.51.13-.8s-.04-.55-.13-.8c-.08-.25-.2-.47-.35-.65ZM91.61,34.94c-.1,0-.21,0-.31,0-.1,0-.19,0-.29,0h-.17v-2.86h1.06c.13,0,.25.04.37.11.12.07.22.17.31.3.09.13.16.28.22.45.05.17.08.36.08.56s-.03.39-.08.56c-.05.17-.13.32-.22.45-.09.13-.19.23-.31.3-.11.07-.23.11-.36.11h0c-.1,0-.2,0-.3,0Z"/>
          <path class="cls-2" d="M101.36,35.4c-.08-.08-.16-.16-.24-.24l-.27-.27c-.09-.09-.18-.18-.27-.27-.09-.09-.17-.18-.25-.26-.14-.14-.28-.28-.41-.42-.07-.07-.14-.14-.21-.21h.09c.19,0,.37-.03.54-.09.17-.06.32-.14.44-.24.13-.1.23-.23.3-.36.08-.14.11-.3.11-.46s-.04-.31-.11-.45c-.07-.14-.18-.26-.3-.36-.13-.1-.27-.18-.44-.23-.17-.06-.35-.09-.54-.09h-1.41v4.16h.69v-1.55l1.51,1.52h.01s.02.03.02.03h.93l-.12-.12-.07-.07ZM100.31,32.92c-.06.05-.14.09-.23.11-.09.03-.18.04-.28.04h-.72v-1.01h.7c.1,0,.2.01.29.04.09.03.17.07.23.12.06.05.11.1.15.16.03.06.05.12.05.18,0,.07-.02.13-.05.19-.04.06-.09.12-.15.16Z"/>
          <polygon class="cls-2" points="106.54 31.44 106.08 31.44 106.04 31.44 105.97 31.44 105.97 31.51 105.97 31.56 105.97 35.48 105.97 35.53 105.97 35.6 106.04 35.6 106.08 35.6 106.54 35.6 106.59 35.6 106.66 35.6 106.66 35.53 106.66 35.48 106.66 31.56 106.66 31.51 106.66 31.44 106.59 31.44 106.54 31.44"/>
          <polygon class="cls-2" points="114.15 31.44 111.55 31.44 111.51 31.44 111.44 31.44 111.44 31.51 111.44 31.56 111.44 35.48 111.44 35.53 111.44 35.6 111.51 35.6 111.55 35.6 112.01 35.6 112.05 35.6 112.12 35.6 112.12 35.53 112.12 35.48 112.12 33.72 113.84 33.72 113.88 33.72 113.95 33.72 113.95 33.65 113.95 33.61 113.95 33.19 113.95 33.15 113.95 33.08 113.88 33.08 113.84 33.08 112.12 33.08 112.12 32.07 114.15 32.07 114.19 32.07 114.27 32.07 114.27 32 114.27 31.95 114.27 31.56 114.27 31.51 114.27 31.44 114.19 31.44 114.15 31.44"/>
          <polygon class="cls-2" points="122.33 31.44 119.16 31.44 119.12 31.44 119.04 31.44 119.04 31.51 119.04 31.56 119.04 31.96 119.04 32 119.04 32.08 119.12 32.08 119.16 32.08 120.41 32.08 120.41 35.48 120.41 35.53 120.41 35.6 120.48 35.6 120.52 35.6 120.98 35.6 121.03 35.6 121.1 35.6 121.1 35.53 121.1 35.48 121.1 32.08 122.33 32.08 122.38 32.08 122.45 32.08 122.45 32 122.45 31.96 122.45 31.56 122.45 31.51 122.45 31.44 122.38 31.44 122.33 31.44"/>
          <polygon class="cls-2" points="127.84 31.44 127.38 31.44 127.33 31.44 127.26 31.44 127.26 31.51 127.26 31.56 127.26 35.48 127.26 35.53 127.26 35.6 127.33 35.6 127.38 35.6 127.84 35.6 127.88 35.6 127.95 35.6 127.95 35.53 127.95 35.48 127.95 31.56 127.95 31.51 127.95 31.44 127.88 31.44 127.84 31.44"/>
          <polygon class="cls-2" points="135.7 31.44 135.24 31.44 135.19 31.44 135.12 31.44 135.12 31.51 135.12 31.56 135.12 34.2 133.35 31.49 133.33 31.47 133.31 31.44 133.27 31.44 133.25 31.44 132.84 31.44 132.8 31.44 132.72 31.44 132.72 31.51 132.72 31.56 132.72 35.48 132.72 35.53 132.72 35.6 132.8 35.6 132.84 35.6 133.29 35.6 133.34 35.6 133.41 35.6 133.41 35.53 133.41 35.48 133.41 32.83 135.18 35.54 135.2 35.56 135.22 35.6 135.26 35.6 135.28 35.6 135.7 35.6 135.74 35.6 135.81 35.6 135.81 35.53 135.81 35.48 135.81 31.56 135.81 31.51 135.81 31.44 135.74 31.44 135.7 31.44"/>
          <path class="cls-2" d="M144.23,32.1l-.03-.03c-.21-.2-.45-.36-.71-.47-.26-.11-.53-.17-.81-.17s-.57.06-.83.17c-.25.11-.48.27-.67.46-.19.19-.34.42-.45.67-.11.26-.17.53-.17.82s.06.56.17.82c.11.25.26.48.45.67.19.19.42.34.67.45.26.11.53.17.83.17s.55-.05.79-.15c.25-.1.47-.25.67-.43h.01s.02-.02.02-.02v-.02s0-.01,0-.01v-.06s.01,0,.01,0h0v-1.6h-1.83v.64h1.14v.76c-.11.08-.22.14-.36.19-.15.06-.3.09-.46.09-.2,0-.38-.04-.56-.11-.17-.08-.32-.18-.45-.32-.13-.14-.23-.29-.31-.47-.08-.18-.11-.37-.11-.57s.04-.4.11-.57c.08-.18.18-.34.31-.47.13-.13.28-.24.45-.31.17-.07.36-.11.56-.11.18,0,.37.04.54.12.18.08.34.19.49.33l.03.03.05.05.05-.04.03-.03.32-.29.04-.03.06-.05-.06-.05Z"/>
        </g>
      </g>
      <g>
        <path class="cls-1" d="M2.96,43.23c-.17-.18-.35-.37-.53-.55-.18-.19-.36-.37-.53-.55-.15-.15-.29-.3-.43-.45l1.53-1.61.19-.2h-.93l-.03.04c-.28.3-.57.61-.87.91-.23.24-.46.47-.68.71v-1.66H0v4.08h.68v-1.45s.07-.07.09-.1c.04-.04.07-.09.12-.13.03-.03.07-.07.1-.11,0,0,.01-.01.02-.02l1.68,1.76.03.04h.92l-.19-.2c-.16-.17-.33-.34-.5-.53Z"/>
        <path class="cls-1" d="M9.84,40.45c-.18-.18-.4-.33-.65-.44-.25-.11-.53-.16-.82-.16s-.56.05-.81.16c-.25.11-.47.26-.66.44-.18.19-.33.41-.44.65-.11.25-.16.52-.16.81s.06.57.17.83c.11.25.26.48.45.66.19.19.41.33.66.44.25.11.52.16.79.16s.55-.05.79-.15c.24-.1.46-.24.65-.43.2-.19.36-.42.46-.67.11-.26.16-.54.16-.84,0-.28-.05-.56-.16-.81-.1-.25-.25-.47-.43-.66ZM9.75,41.91c0,.2-.03.39-.11.56-.07.17-.17.33-.29.46-.13.13-.27.23-.44.31-.17.07-.35.11-.55.11s-.37-.04-.54-.11c-.17-.07-.31-.18-.44-.31-.12-.13-.22-.29-.3-.46-.07-.18-.11-.36-.11-.56s.04-.39.11-.56c.07-.17.17-.32.3-.45.13-.13.27-.23.44-.3.17-.07.35-.11.53-.11s.36.03.52.1c.16.06.31.16.43.28.14.13.25.28.33.46.08.18.12.38.12.59Z"/>
        <polygon class="cls-1" points="13.5 39.87 13.39 39.87 13.39 39.99 13.39 40.38 13.39 40.5 13.5 40.5 14.72 40.5 14.72 43.84 14.72 43.95 14.84 43.95 15.29 43.95 15.41 43.95 15.41 43.84 15.41 40.5 16.62 40.5 16.73 40.5 16.73 40.38 16.73 39.99 16.73 39.87 16.62 39.87 13.5 39.87"/>
        <path class="cls-1" d="M22.87,39.87h-.08l-.03.07c-.12.3-.24.61-.37.92-.13.32-.26.63-.39.93-.09.22-.18.44-.27.66-.05.13-.11.26-.16.39l-1.2-2.91-.03-.07h-.71l.07.16,1.57,3.85.03.07h.55l.03-.07,1.58-3.85.07-.16h-.64Z"/>
        <polygon class="cls-1" points="26.55 39.87 26.44 39.87 26.44 39.99 26.44 43.84 26.44 43.95 26.55 43.95 27 43.95 27.12 43.95 27.12 43.84 27.12 39.99 27.12 39.87 27 39.87 26.55 39.87"/>
        <path class="cls-1" d="M32.08,39.94l-.03-.07h-.5l-.03.07-1.58,3.85-.07.16h.72l.03-.07c.03-.08.07-.17.11-.26l.05-.12.07-.15.21-.5.11-.26.07-.16h1.14l.6,1.45.03.07h.72l-.07-.16-1.58-3.85ZM32.12,41.79h-.63c.03-.08.06-.15.08-.21.04-.1.09-.22.15-.35v-.02s.01-.01.01-.01c.02-.05.04-.11.06-.17l.02.06s.04.09.06.14l.07.16.17.4Z"/>
        <path class="cls-1" d="M37.51,40.9c.12-.13.27-.23.44-.3.17-.07.35-.11.54-.11s.36.04.53.12c.17.08.34.19.48.33l.08.07.08-.07.32-.28.09-.08-.09-.09c-.2-.19-.43-.35-.69-.46-.26-.11-.53-.17-.8-.17s-.56.06-.81.17c-.25.11-.47.26-.66.45-.19.19-.34.41-.44.66-.11.25-.16.51-.16.79s.06.55.17.81c.11.25.27.47.45.66.19.19.41.34.66.45.25.11.51.17.79.17s.54-.06.79-.17c.25-.11.48-.27.69-.46l.09-.09-.09-.08-.31-.28-.08-.07-.08.07c-.15.14-.31.24-.48.32-.17.08-.34.11-.52.11-.2,0-.38-.04-.55-.12-.17-.08-.31-.18-.44-.31-.12-.13-.22-.28-.29-.46-.07-.17-.11-.36-.11-.56s.04-.39.11-.56c.07-.17.17-.32.3-.45Z"/>
        <path class="cls-1" d="M44.94,39.94l-.03-.07h-.5l-.03.07-1.58,3.85-.07.16h.71l.03-.07c.03-.08.07-.17.11-.26l.09-.2.03-.07c.07-.17.14-.33.21-.5l.05-.12.12-.3h1.14l.6,1.45.03.07h.72l-.07-.16-1.58-3.85ZM44.98,41.79h-.63l.08-.21c.04-.1.09-.22.15-.35v-.02s0,0,0,0c.02-.05.04-.11.06-.17l.02.06c.02.06.04.1.06.14l.07.16.17.4Z"/>
        <path class="cls-1" d="M55.74,39.94l-.03-.07h-.5l-.03.07-1.58,3.85-.07.16h.71l.03-.07c.03-.08.07-.17.11-.26l.09-.2.03-.07c.07-.17.14-.33.21-.5l.05-.12.12-.3h1.14l.6,1.45.03.07h.72l-.07-.16-1.58-3.85ZM55.78,41.79h-.63l.08-.21c.04-.1.09-.22.15-.35v-.02s0,0,0,0c.02-.05.04-.11.06-.17l.02.06c.02.06.04.1.06.14l.07.16.17.4Z"/>
        <path class="cls-1" d="M66.89,39.87h-.08l-.03.07c-.12.3-.24.61-.37.92-.13.32-.26.63-.39.93-.09.22-.18.44-.27.66-.05.13-.11.26-.16.39l-1.2-2.91-.03-.07h-.71l.07.16,1.57,3.85.03.07h.55l.03-.07,1.58-3.85.07-.16h-.64Z"/>
        <path class="cls-1" d="M73.14,43.53l-.28-.28c-.09-.09-.18-.18-.26-.27-.09-.09-.17-.17-.25-.26-.14-.14-.27-.28-.41-.41-.07-.07-.13-.14-.2-.2h.09c.19,0,.36-.03.53-.08.16-.06.31-.14.43-.24.13-.1.23-.22.3-.36.07-.14.11-.29.11-.45s-.04-.31-.11-.45c-.07-.14-.17-.25-.3-.35-.12-.1-.27-.17-.43-.23-.16-.06-.34-.08-.53-.08h-1.39v4.08h.68v-1.52l1.47,1.49.03.03h.92l-.2-.2-.22-.22ZM72.11,41.43c-.08.03-.18.04-.28.04h-.7v-.98h.69c.1,0,.19.01.28.04.09.03.16.07.23.11.06.05.11.1.15.16.03.06.05.11.05.18,0,.07-.02.12-.05.18-.04.06-.08.11-.14.16-.06.05-.13.08-.22.11Z"/>
        <polygon class="cls-1" points="76.25 39.87 76.14 39.87 76.14 39.99 76.14 40.38 76.14 40.5 76.25 40.5 77.47 40.5 77.47 43.84 77.47 43.95 77.59 43.95 78.04 43.95 78.16 43.95 78.16 43.84 78.16 40.5 79.37 40.5 79.48 40.5 79.48 40.38 79.48 39.99 79.48 39.87 79.37 39.87 76.25 39.87"/>
        <polygon class="cls-1" points="84.95 39.87 84.84 39.87 84.84 39.99 84.84 42.57 83.1 39.92 83.07 39.87 83 39.87 82.6 39.87 82.49 39.87 82.49 39.99 82.49 43.84 82.49 43.95 82.6 43.95 83.05 43.95 83.16 43.95 83.16 43.84 83.16 41.24 84.9 43.9 84.93 43.95 85 43.95 85.41 43.95 85.52 43.95 85.52 43.84 85.52 39.99 85.52 39.87 85.41 39.87 84.95 39.87"/>
        <polygon class="cls-1" points="90.66 39.57 90.7 39.57 90.73 39.55 91.61 38.92 91.9 38.71 91.54 38.71 90.83 38.71 90.78 38.71 90.74 38.75 90.22 39.38 90.06 39.57 90.3 39.57 90.66 39.57"/>
        <path class="cls-1" d="M90.58,39.94l-.03-.07h-.5l-.03.07-1.58,3.85-.07.16h.71l.03-.07c.03-.08.07-.17.11-.26l.09-.2.03-.07c.07-.17.14-.33.21-.5l.05-.12.12-.3h1.14l.6,1.45.03.07h.72l-.07-.16-1.58-3.85ZM90.62,41.79h-.63l.08-.21c.04-.1.09-.22.15-.35v-.02s0,0,0,0c.02-.05.04-.11.06-.17l.02.06c.02.06.04.1.06.14l.07.16.17.4Z"/>
        <polygon class="cls-1" points="99.93 39.87 99.81 39.87 99.81 39.99 99.81 40.38 99.81 40.5 99.93 40.5 101.15 40.5 101.15 43.84 101.15 43.95 101.27 43.95 101.72 43.95 101.83 43.95 101.83 43.84 101.83 40.5 103.04 40.5 103.16 40.5 103.16 40.38 103.16 39.99 103.16 39.87 103.04 39.87 99.93 39.87"/>
        <polygon class="cls-1" points="106.26 39.87 106.15 39.87 106.15 39.99 106.15 43.84 106.15 43.95 106.26 43.95 108.81 43.95 108.93 43.95 108.93 43.84 108.93 43.43 108.93 43.31 108.81 43.31 106.82 43.31 106.82 42.11 108.5 42.11 108.62 42.11 108.62 42 108.62 41.59 108.62 41.48 108.5 41.48 106.82 41.48 106.82 40.5 108.81 40.5 108.93 40.5 108.93 40.38 108.93 39.99 108.93 39.87 108.81 39.87 106.26 39.87"/>
        <path class="cls-1" d="M112.92,40.9c.13-.13.27-.23.44-.3.17-.07.35-.11.54-.11s.36.04.53.12c.17.08.34.19.48.33l.08.07.08-.07.32-.28.09-.08-.09-.09c-.2-.19-.43-.35-.68-.46-.26-.11-.53-.17-.8-.17s-.56.06-.81.17c-.25.11-.47.26-.66.45-.19.19-.34.41-.44.66-.11.25-.16.51-.16.79s.06.55.17.81c.11.25.27.48.45.66.19.19.41.34.66.45.25.11.51.17.79.17s.54-.06.79-.17c.25-.11.48-.27.69-.46l.09-.09-.09-.08-.31-.28-.08-.07-.08.07c-.15.14-.31.24-.48.32-.17.08-.34.11-.52.11-.2,0-.38-.04-.55-.12-.17-.08-.32-.18-.44-.31-.12-.13-.22-.28-.29-.46-.07-.17-.11-.36-.11-.56s.04-.39.11-.56c.07-.17.17-.32.3-.45Z"/>
        <polygon class="cls-1" points="120.96 39.87 120.85 39.87 120.85 39.99 120.85 41.48 119.03 41.48 119.03 39.99 119.03 39.87 118.92 39.87 118.47 39.87 118.35 39.87 118.35 39.99 118.35 43.84 118.35 43.95 118.47 43.95 118.92 43.95 119.03 43.95 119.03 43.84 119.03 42.11 120.85 42.11 120.85 43.84 120.85 43.95 120.96 43.95 121.41 43.95 121.52 43.95 121.52 43.84 121.52 39.99 121.52 39.87 121.41 39.87 120.96 39.87"/>
        <polygon class="cls-1" points="127.02 39.87 126.91 39.87 126.91 39.99 126.91 42.57 125.17 39.92 125.13 39.87 125.07 39.87 124.67 39.87 124.55 39.87 124.55 39.99 124.55 43.84 124.55 43.95 124.67 43.95 125.11 43.95 125.23 43.95 125.23 43.84 125.23 41.24 126.97 43.9 127 43.95 127.06 43.95 127.47 43.95 127.59 43.95 127.59 43.84 127.59 39.99 127.59 39.87 127.47 39.87 127.02 39.87"/>
        <polygon class="cls-1" points="130.73 39.87 130.62 39.87 130.62 39.99 130.62 43.84 130.62 43.95 130.73 43.95 131.19 43.95 131.3 43.95 131.3 43.84 131.3 39.99 131.3 39.87 131.19 39.87 130.73 39.87"/>
        <path class="cls-1" d="M137.19,43.23c-.17-.18-.35-.37-.53-.55-.18-.19-.36-.37-.53-.55-.15-.15-.29-.3-.42-.45l1.53-1.61.19-.2h-.93l-.03.04c-.28.3-.57.61-.87.91-.23.24-.46.47-.68.71v-1.66h-.68v4.08h.68v-1.45s.07-.07.1-.1c.04-.04.07-.09.12-.13.03-.03.07-.07.1-.11,0,0,.01-.01.02-.02l1.68,1.76.03.04h.92l-.19-.2c-.16-.17-.33-.34-.5-.53Z"/>
        <path class="cls-1" d="M144.21,43.79l-1.58-3.85-.03-.07h-.5l-.03.07-1.58,3.85-.07.16h.71l.03-.07c.03-.08.07-.17.11-.26l.09-.2.03-.07c.07-.17.14-.33.21-.5l.05-.12.12-.3h1.14l.6,1.45.03.07h.72l-.07-.16ZM142.67,41.79h-.63l.08-.21c.04-.1.09-.22.15-.35v-.02s0,0,0,0c.02-.05.04-.11.06-.17l.02.06c.02.06.04.1.06.14l.07.16.17.4Z"/>
      </g>
    </g>
  </g>
</svg>