<?xml version="1.0" encoding="UTF-8"?>
<svg id="Layer_2" data-name="Layer 2" xmlns="http://www.w3.org/2000/svg" viewBox="0 0 436.62 334.99">
  <defs>
    <style>
      .cls-1 {
        fill: #213f1c;
      }

      .cls-1, .cls-2 {
        stroke-width: 0px;
      }

      .cls-2 {
        fill: #edaf24;
      }
    </style>
  </defs>
  <g id="VILLA_GARDEN" data-name="VILLA GARDEN">
    <g id="farba">
      <g>
        <path class="cls-2" d="M31.45,312.59l-9.04,22.08h3.18l1.97-5h9.8l2,5h3.25l-9-22.08h-2.16ZM28.62,327.06l3.88-9.67,3.85,9.67h-7.73Z"/>
        <path class="cls-2" d="M76.4,312.59h-8.21v22.08h2.99v-8.59h5.22c4.04,0,7.13-2.67,7.13-6.74s-3.09-6.74-7.13-6.74ZM76.21,323.47h-5.03v-8.27h5.03c2.51,0,4.3,1.59,4.3,4.14s-1.78,4.14-4.3,4.14Z"/>
        <path class="cls-2" d="M115.05,312.59l-9.04,22.08h3.18l1.97-5h9.8l2,5h3.25l-9-22.08h-2.16ZM112.22,327.06l3.88-9.67,3.85,9.67h-7.73Z"/>
        <path class="cls-2" d="M166.82,318.82c0-3.6-2.7-6.24-6.9-6.24h-8.11v22.08h2.99v-9.61h1.94l7.79,9.61h3.79l-7.92-9.64c3.91-.16,6.43-2.58,6.43-6.2ZM154.79,322.55v-7.35h5.03c2.55,0,4.01,1.59,4.01,3.69,0,2.26-1.46,3.66-4.04,3.66h-5Z"/>
        <polygon class="cls-2" points="190.83 315.32 198.34 315.32 198.34 334.67 201.33 334.67 201.33 315.32 208.81 315.32 208.81 312.59 190.83 312.59 190.83 315.32"/>
        <polygon class="cls-2" points="245.39 326.81 236.74 312.59 234.64 312.59 234.64 334.67 237.63 334.67 237.63 319.14 244.34 330.15 246.44 330.15 253.13 319.14 253.13 334.67 256.12 334.67 256.12 312.59 254.02 312.59 245.39 326.81"/>
        <polygon class="cls-2" points="286.59 324.68 297.25 324.68 297.25 322.07 286.59 322.07 286.59 315.32 298.14 315.32 298.14 312.59 283.6 312.59 283.6 334.67 298.3 334.67 298.3 331.93 286.59 331.93 286.59 324.68"/>
        <polygon class="cls-2" points="339.02 328.97 326.74 312.59 324.64 312.59 324.64 334.67 327.63 334.67 327.63 318.28 339.91 334.67 342.01 334.67 342.01 312.59 339.02 312.59 339.02 328.97"/>
        <polygon class="cls-2" points="367.84 315.32 375.35 315.32 375.35 334.67 378.34 334.67 378.34 315.32 385.82 315.32 385.82 312.59 367.84 312.59 367.84 315.32"/>
        <path class="cls-2" d="M413.11,318.03c0-1.88,1.5-2.96,3.88-2.96,1.97,0,3.4.76,4.71,2.29l2.04-2.04c-1.46-1.81-3.79-3.05-6.68-3.05-3.94,0-6.94,2.23-6.94,5.95,0,7.89,10.75,5.06,10.75,10.75,0,2-1.75,3.21-4.36,3.21s-4.39-1.02-5.79-2.96l-2.04,2.04c1.88,2.42,4.23,3.72,7.73,3.72,4.58,0,7.48-2.32,7.48-6.24,0-8.18-10.79-5.54-10.79-10.72Z"/>
      </g>
      <g>
        <path class="cls-1" d="M34.54,267.14c-.92.43-1.76.81-2.52,1.15-.76.34-1.51.6-2.24.78-.98.24-1.96.43-2.93.55-.98.12-2.08.18-3.3.18-6.54,0-12.09-2.49-16.67-7.47-4.58-4.98-6.87-11.01-6.87-18.09,0-8.49,2.73-15.59,8.2-21.3,5.47-5.71,12.23-8.57,20.29-8.57,5.98,0,11.39,1.71,16.22,5.13,4.82,3.42,8.64,8.28,11.45,14.57,1.22,2.63,2.23,5.51,3.02,8.66.79,3.15,1.5,6.79,2.11,10.95.24-.06.41-.11.5-.14.09-.03.17-.08.23-.14.18-.06.44-.15.78-.27.33-.12,1.18-.4,2.52-.82,3.6-1.28,6.52-2.34,8.75-3.16,2.23-.82,4.14-1.57,5.73-2.24.67-.37,1.3-.7,1.88-1.01.58-.3,1.18-.64,1.79-1.01.85-.49,1.72-1.05,2.61-1.69.88-.64,1.91-1.39,3.07-2.24-.24-2.02-.98-3.88-2.2-5.59-1.22-1.71-2.87-3.24-4.95-4.58-.31-.18-.63-.38-.96-.6-.34-.21-.66-.41-.96-.6-1.77-.92-3.68-1.63-5.73-2.15-2.05-.52-4.9-.99-8.57-1.42-.24-.06-.47-.11-.69-.14-.21-.03-.44-.05-.69-.05.18-.18.37-.35.55-.5.18-.15.34-.29.46-.41.3-.24.6-.5.87-.78s.53-.56.78-.87c.18-.31.4-.61.64-.92.24-.31.49-.64.73-1.01.49,0,.93.02,1.33.05.4.03.81.05,1.24.05,1.1.06,2.3.11,3.62.14,1.31.03,3.16.05,5.54.05,1.47,0,3.14-.01,5.04-.05,1.89-.03,3.85-.05,5.86-.05.98,0,1.97-.01,2.98-.05,1.01-.03,1.97-.05,2.89-.05h1.37c.43,0,.82-.03,1.19-.09h2.84c.79-.06,1.62-.11,2.47-.14.85-.03,1.92-.11,3.21-.23-1.34,3.11-3.22,6.22-5.63,9.3-2.41,3.08-5.27,6.06-8.57,8.93,0,.43-.05.86-.14,1.28-.09.43-.17.86-.23,1.28-.67,2.93-2.52,6.17-5.54,9.71-3.02,3.54-8.14,8.64-15.34,15.3-2.02,1.89-3.68,3.45-4.99,4.67-1.31,1.22-2.49,2.38-3.53,3.48-.12.12-.24.24-.37.37-.12.12-.24.27-.37.46-.98.98-1.99,2.05-3.02,3.21-1.04,1.16-2.32,2.56-3.85,4.21.06-.79.12-1.56.18-2.29.06-.73.12-1.47.18-2.2,0-.85.01-1.72.05-2.61.03-.88.05-1.88.05-2.98,0-2.02-.03-3.86-.09-5.54-.06-1.68-.15-3.31-.27-4.9-.06-.67-.12-1.34-.18-2.02-.06-.67-.15-1.37-.27-2.11-5.01,1.89-8.83,4.25-11.45,7.05-2.63,2.81-3.94,5.89-3.94,9.25,0,.37.01.73.05,1.1.03.37.08.73.14,1.1.12.61.3,1.22.55,1.83.24.61.58,1.31,1.01,2.11-1.53-.12-2.7-.64-3.53-1.56-.82-.92-1.24-2.14-1.24-3.66,0-.85.11-1.72.32-2.61.21-.88.53-1.76.96-2.61,1.28-2.75,3.4-5.41,6.37-7.97,2.96-2.57,6.49-4.76,10.58-6.6-.67-5.8-1.73-10.78-3.16-14.93-1.44-4.15-3.38-7.85-5.82-11.09-2.93-3.79-6.32-6.72-10.17-8.8-3.85-2.08-7.88-3.11-12.09-3.11-6.41,0-11.73,2.31-15.94,6.92-4.21,4.61-6.32,10.43-6.32,17.45s2.46,12.84,7.37,17.64c4.92,4.8,10.95,7.19,18.09,7.19.55,0,1.05-.01,1.51-.05.46-.03.9-.08,1.33-.14.55-.06,1.11-.15,1.69-.27.58-.12,1.21-.27,1.88-.46l.27.82ZM72.37,264.49c4.58-4.34,8.02-7.85,10.31-10.54,2.29-2.69,3.95-5.19,4.99-7.51.18-.49.37-.98.55-1.47.18-.49.33-.98.46-1.47-1.04.92-2.02,1.71-2.93,2.38-.92.67-1.83,1.31-2.75,1.92-.49.37-1.01.72-1.56,1.05-.55.34-1.1.66-1.65.96-1.53.79-3.1,1.54-4.72,2.24-1.62.7-3.25,1.33-4.9,1.88l-2.66.73-2.57.82-2.57.82c-.12.06-.24.12-.37.18-.06,0-.14.02-.23.05-.09.03-.17.05-.23.05,0,.37.01.73.05,1.1.03.37.05.73.05,1.1.06.86.11,1.76.14,2.7.03.95.05,2.09.05,3.44,0,1.59-.02,2.96-.05,4.12-.03,1.16-.08,2.29-.14,3.39,0,.43-.02.86-.05,1.28-.03.43-.08.86-.14,1.28.49-.49.92-.93,1.28-1.33.37-.4.73-.75,1.1-1.05,0-.06.03-.12.09-.18.37-.3.72-.63,1.05-.96.33-.33.72-.72,1.15-1.15.12-.12.26-.24.41-.37.15-.12.29-.27.41-.46.12-.12.26-.24.41-.37.15-.12.29-.24.41-.37l1.56-1.47,1.47-1.37,1.56-1.47ZM89.78,224.91c-2.14.06-3.56.09-4.26.09h-1.69c-.18.06-.37.09-.55.09h-.82c3.6,1.47,6.32,3.18,8.15,5.13,1.83,1.96,2.87,4.25,3.11,6.87,2.02-1.83,3.71-3.72,5.08-5.68,1.37-1.95,2.61-4.18,3.71-6.69-.31,0-.54.02-.69.05-.15.03-.29.05-.41.05h-3.21c-1.96.06-3.88.09-5.77.09h-2.66Z"/>
        <path class="cls-1" d="M106.45,244.7c0,.97-.2,2.21-.6,3.7-.4,1.49-.99,3.31-1.79,5.44-.37.91-.81,2-1.33,3.24-.52,1.25-1.15,2.67-1.88,4.25l-3.3,7.4c-.98,2.19-1.66,3.85-2.06,4.98-.4,1.13-.63,1.94-.69,2.42,0,.37.15.67.46.91.3.24.67.37,1.1.37.24,0,.64-.09,1.19-.27.55-.18,1.13-.4,1.74-.64l.55,1.28c-.06.06-.12.11-.18.14-.06.03-.12.05-.18.05-.55.31-1.19.63-1.92.96s-1.83.81-3.3,1.42c-.98.43-1.76.76-2.34,1.01-.58.24-1.15.46-1.69.64-.12.06-.24.11-.37.14-.12.03-.24.08-.37.14-.12.06-.24.09-.37.09s-.27.03-.46.09c.06-.61.12-1.23.18-1.87.06-.64.12-1.26.18-1.87.3-1.83.9-3.85,1.79-6.08.88-2.22,2.27-5.4,4.17-9.55,1.89-4.14,3.17-7.06,3.85-8.77.67-1.71,1.04-2.89,1.1-3.56,0-.37-.11-.68-.32-.96-.21-.27-.5-.41-.87-.41-.24,0-.78.12-1.6.37-.82.24-1.73.58-2.7,1.01l-.37-1.47c1.16-.43,2.14-.79,2.93-1.1.79-.3,1.53-.58,2.2-.82.06-.06.14-.11.23-.14.09-.03.17-.05.23-.05.92-.37,1.88-.76,2.89-1.19,1.01-.43,2.3-1.01,3.89-1.74v.46ZM110.53,233.29c.4.4.6.87.6,1.42,0,.79-.31,1.51-.92,2.15-.61.64-1.31.96-2.11.96-.55,0-1.04-.2-1.47-.6-.43-.4-.64-.87-.64-1.42,0-.85.3-1.59.92-2.2s1.31-.92,2.11-.92c.61,0,1.11.2,1.51.6Z"/>
        <path class="cls-1" d="M118.18,225.74c2.69-1.04,4.75-1.83,6.18-2.38,1.43-.55,2.67-1.07,3.71-1.56.12-.06.24-.12.37-.18.12-.06.24-.12.37-.18.18-.06.37-.14.55-.23.18-.09.37-.2.55-.32,0,2.14-.54,4.78-1.6,7.92-1.07,3.15-2.95,7.8-5.63,13.97-2.26,5.2-4.31,10.07-6.14,14.61s-3.36,8.42-4.58,11.66c-.67,1.71-1.18,3.17-1.51,4.36-.34,1.19-.5,2.1-.5,2.71s.15,1.09.46,1.42c.3.34.67.51,1.1.51h.27c.49-.06,1.05-.3,1.69-.73.64-.43,1.69-1.22,3.16-2.38l.82,1.19c-.49.43-.98.84-1.47,1.24-.49.4-.98.78-1.47,1.15-1.53,1.16-2.99,2.11-4.4,2.84-1.41.73-2.47,1.1-3.21,1.1-.79,0-1.44-.33-1.92-1.01-.49-.67-.73-1.59-.73-2.75,0-1.41.29-3.12.87-5.14.58-2.02,1.66-5.08,3.25-9.19.06-.12.12-.26.18-.41.06-.15.12-.29.18-.41v-.09c.3-.67.64-1.45,1.01-2.34s.95-2.31,1.74-4.27c.37-.98.7-1.81,1.01-2.48.3-.67.58-1.32.82-1.93.37-.86.76-1.82,1.19-2.89.43-1.07,1.04-2.59,1.83-4.55l1.47-3.39,1.37-3.39c1.4-3.42,2.4-5.92,2.98-7.51.58-1.59.87-2.66.87-3.21,0-.37-.12-.66-.37-.87-.24-.21-.58-.32-1.01-.32h-.27c-.12,0-.31.03-.55.09-.24.06-.73.21-1.47.46-.06,0-.12.02-.18.05-.06.03-.12.05-.18.05s-.12.02-.18.05c-.06.03-.12.05-.18.05l-.46-1.28Z"/>
        <path class="cls-1" d="M134.03,225.74c2.69-1.04,4.75-1.83,6.18-2.38,1.43-.55,2.67-1.07,3.71-1.56.12-.06.24-.12.37-.18.12-.06.24-.12.37-.18.18-.06.37-.14.55-.23.18-.09.37-.2.55-.32,0,2.14-.54,4.78-1.6,7.92-1.07,3.15-2.95,7.8-5.63,13.97-2.26,5.2-4.31,10.07-6.14,14.61s-3.36,8.42-4.58,11.66c-.67,1.71-1.18,3.17-1.51,4.36-.34,1.19-.5,2.1-.5,2.71s.15,1.09.46,1.42c.3.34.67.51,1.1.51h.27c.49-.06,1.05-.3,1.69-.73.64-.43,1.69-1.22,3.16-2.38l.82,1.19c-.49.43-.98.84-1.47,1.24-.49.4-.98.78-1.47,1.15-1.53,1.16-2.99,2.11-4.4,2.84-1.41.73-2.47,1.1-3.21,1.1-.79,0-1.44-.33-1.92-1.01-.49-.67-.73-1.59-.73-2.75,0-1.41.29-3.12.87-5.14.58-2.02,1.66-5.08,3.25-9.19.06-.12.12-.26.18-.41.06-.15.12-.29.18-.41v-.09c.3-.67.64-1.45,1.01-2.34s.95-2.31,1.74-4.27c.37-.98.7-1.81,1.01-2.48.3-.67.58-1.32.82-1.93.37-.86.76-1.82,1.19-2.89.43-1.07,1.04-2.59,1.83-4.55l1.47-3.39,1.37-3.39c1.4-3.42,2.4-5.92,2.98-7.51.58-1.59.87-2.66.87-3.21,0-.37-.12-.66-.37-.87-.24-.21-.58-.32-1.01-.32h-.27c-.12,0-.31.03-.55.09-.24.06-.73.21-1.47.46-.06,0-.12.02-.18.05-.06.03-.12.05-.18.05s-.12.02-.18.05c-.06.03-.12.05-.18.05l-.46-1.28Z"/>
        <path class="cls-1" d="M168.12,276.76c-1.53,1.16-3.41,2.2-5.63,3.11-2.23.92-4.66,1.71-7.28,2.38.12-1.47.63-3.51,1.51-6.14.88-2.63,2.15-5.74,3.8-9.34-1.04,1.28-2.11,2.49-3.21,3.62-1.1,1.13-2.23,2.21-3.39,3.25-2.87,2.69-5.65,4.83-8.34,6.41-2.69,1.59-4.89,2.38-6.6,2.38-.98,0-1.73-.35-2.24-1.05-.52-.7-.78-1.69-.78-2.98,0-1.03.11-2.1.32-3.2.21-1.1.5-2.16.87-3.2,2.08-5.6,6.21-10.87,12.41-15.8,6.2-4.93,12.81-8.22,19.83-9.87,1.34-.3,2.69-.55,4.03-.73,1.34-.18,2.69-.27,4.03-.27.49,0,.85.09,1.1.27.24.18.37.46.37.82,0,.18-.09.55-.27,1.1-.18.55-.43,1.1-.73,1.65,0,.12-.03.23-.09.32-.06.09-.12.2-.18.32-.79-.12-1.56-.23-2.29-.32s-1.44-.17-2.11-.23h-1.47c-4.15,0-7.86.62-11.13,1.87-3.27,1.25-6.43,3.24-9.48,5.98-.24.18-.49.38-.73.59-.24.21-.49.44-.73.68-1.53,1.46-2.86,2.97-3.99,4.52-1.13,1.55-2.09,3.12-2.89,4.7-.61,1.28-1.07,2.56-1.37,3.84-.31,1.28-.46,2.53-.46,3.74,0,1.1.24,1.96.73,2.6.49.64,1.13.96,1.92.96.98,0,2.23-.55,3.76-1.65,1.53-1.1,3.08-2.5,4.67-4.21,1.28-1.34,2.52-2.81,3.71-4.4,1.19-1.59,2.24-3.21,3.16-4.86.55-.98,1.05-1.91,1.51-2.79.46-.88.87-1.75,1.24-2.61.43-1.1.81-2.21,1.15-3.34.33-1.13.66-2.34.96-3.62.67.43,1.16.96,1.47,1.6.3.64.46,1.54.46,2.7,0,1.47-.35,3.01-1.05,4.63-.7,1.62-1.82,3.38-3.34,5.27.3,0,.6-.01.87-.05.27-.03.53-.08.78-.14.43-.06.92-.17,1.47-.32.55-.15,1.28-.38,2.2-.69-.06.12-.11.23-.14.32-.03.09-.08.2-.14.32-.12.31-.29.69-.5,1.15-.21.46-.6,1.39-1.15,2.79-1.16,2.63-1.89,4.38-2.2,5.27-.31.89-.46,1.57-.46,2.06,0,.31.12.6.37.87.24.27.52.38.82.32.43-.06.93-.23,1.51-.5.58-.27,1.42-.72,2.52-1.33l.82,1.19Z"/>
        <path class="cls-1" d="M291.78,239.39c-4.09,19.85-11.99,35.9-23.68,48.14-11.7,12.24-24.93,18.37-39.71,18.37-10.26,0-18.73-3.18-25.42-9.53-6.69-6.35-10.03-14.41-10.03-24.19,0-7.63,2.24-13.79,6.73-18.46,4.49-4.67,10.37-7.01,17.64-7.01,3.66,0,7.01.66,10.03,1.97,3.02,1.31,6,3.47,8.93,6.46.73.73,1.47,1.54,2.2,2.43.73.89,1.5,1.85,2.29,2.89.24.37.44.63.6.78.15.15.26.29.32.41h.09c.18.31.5.82.96,1.56s1.6,2.51,3.44,5.31l5.68,8.79.46.73.46.64.46.73c.73,1.16,1.33,2.02,1.79,2.57.46.55.87.95,1.24,1.19.24.12.47.21.69.27.21.06.47.09.78.09.49,0,1.05-.11,1.69-.32.64-.21,1.39-.54,2.24-.96l.73,1.47-.27.09c-.12,0-.27.03-.46.09-1.47.61-2.55,1.07-3.25,1.37-.7.31-1.33.58-1.88.82l-.09.09h-.09c-.43.24-.92.49-1.47.73-.55.24-1.31.61-2.29,1.1-.37-.49-.69-.95-.96-1.37-.27-.43-.57-.86-.87-1.28-.06-.06-.09-.12-.09-.18-.31-.43-.61-.87-.92-1.33-.31-.46-.64-.93-1.01-1.42-.49-.85-.98-1.66-1.47-2.43-.49-.76-.98-1.51-1.47-2.24l-2.56-4.03-1.19-2.02c-2.81-4.46-5.42-8.17-7.83-11.13-2.41-2.96-4.81-5.33-7.19-7.1-2.02-1.47-4.05-2.53-6.09-3.21-2.05-.67-4.23-1.01-6.55-1.01-5.37,0-9.76,1.79-13.15,5.36s-5.08,8.2-5.08,13.88c0,9.53,3.48,17.53,10.44,24,6.96,6.47,15.6,9.71,25.93,9.71,8.98,0,17.16-2.6,24.55-7.79,7.39-5.19,13.59-12.67,18.6-22.44.79-1.53,1.54-3.08,2.24-4.67.7-1.59,1.39-3.21,2.06-4.86,1.59-4.03,2.89-7.97,3.89-11.82,1.01-3.85,1.54-7.05,1.6-9.62h-8.25c.18.18.35.34.5.46.15.12.29.27.41.46.49.61.84,1.24,1.05,1.88.21.64.32,1.45.32,2.43,0,1.34-.21,2.66-.64,3.94-.43,1.28-1.07,2.57-1.92,3.85-.67.92-1.47,1.86-2.38,2.84-.92.98-1.99,1.96-3.21,2.93-1.83,1.47-3.57,2.69-5.22,3.66-1.65.98-3.27,1.71-4.86,2.2-.98.31-1.96.54-2.93.69-.98.15-1.99.23-3.02.23-4.28,0-7.76-1.34-10.44-4.03-2.69-2.69-4.03-6.17-4.03-10.44,0-8.92,3.74-16.64,11.22-23.18,7.48-6.53,16.29-9.8,26.43-9.8h1.19c.55.06,1.08.11,1.6.14.52.03,1.08.08,1.69.14l-3.02,10.63h-1.65c.18-.85.31-1.48.37-1.88.06-.4.12-.75.18-1.05v-.55c0-1.22-.54-2.09-1.6-2.61-1.07-.52-2.86-.78-5.36-.78-2.08,0-4.08.2-6,.6-1.92.4-3.77.99-5.54,1.79-4.28,1.96-7.73,5.12-10.35,9.48-2.63,4.37-3.94,9.18-3.94,14.43,0,4.09,1.16,7.37,3.48,9.85,2.32,2.47,5.41,3.71,9.25,3.71,4.34,0,8.08-1.51,11.22-4.53,3.15-3.02,4.72-6.55,4.72-10.58,0-1.59-.46-2.98-1.37-4.17-.92-1.19-2.17-1.94-3.76-2.24-.18-.06-.35-.11-.5-.14-.15-.03-.29-.05-.41-.05-.55-.12-1.13-.2-1.74-.23-.61-.03-1.47-.05-2.57-.05v-1.65h27.39Z"/>
        <path class="cls-1" d="M315.23,276.76c-1.53,1.16-3.41,2.2-5.63,3.11-2.23.92-4.66,1.71-7.28,2.38.12-1.47.63-3.51,1.51-6.14.88-2.63,2.15-5.74,3.8-9.34-1.04,1.28-2.11,2.49-3.21,3.62-1.1,1.13-2.23,2.21-3.39,3.25-2.87,2.69-5.65,4.83-8.34,6.41-2.69,1.59-4.89,2.38-6.6,2.38-.98,0-1.73-.35-2.24-1.05-.52-.7-.78-1.69-.78-2.98,0-1.03.11-2.1.32-3.2.21-1.1.5-2.16.87-3.2,2.08-5.6,6.21-10.87,12.41-15.8,6.2-4.93,12.81-8.22,19.83-9.87,1.34-.3,2.69-.55,4.03-.73,1.34-.18,2.69-.27,4.03-.27.49,0,.85.09,1.1.27.24.18.37.46.37.82,0,.18-.09.55-.27,1.1-.18.55-.43,1.1-.73,1.65,0,.12-.03.23-.09.32-.06.09-.12.2-.18.32-.79-.12-1.56-.23-2.29-.32s-1.44-.17-2.11-.23h-1.47c-4.15,0-7.86.62-11.13,1.87-3.27,1.25-6.43,3.24-9.48,5.98-.24.18-.49.38-.73.59-.24.21-.49.44-.73.68-1.53,1.46-2.86,2.97-3.99,4.52-1.13,1.55-2.09,3.12-2.89,4.7-.61,1.28-1.07,2.56-1.37,3.84-.31,1.28-.46,2.53-.46,3.74,0,1.1.24,1.96.73,2.6.49.64,1.13.96,1.92.96.98,0,2.23-.55,3.76-1.65,1.53-1.1,3.08-2.5,4.67-4.21,1.28-1.34,2.52-2.81,3.71-4.4,1.19-1.59,2.24-3.21,3.16-4.86.55-.98,1.05-1.91,1.51-2.79.46-.88.87-1.75,1.24-2.61.43-1.1.81-2.21,1.14-3.34.34-1.13.66-2.34.96-3.62.67.43,1.16.96,1.47,1.6.3.64.46,1.54.46,2.7,0,1.47-.35,3.01-1.05,4.63-.7,1.62-1.82,3.38-3.34,5.27.3,0,.6-.01.87-.05.27-.03.53-.08.78-.14.43-.06.92-.17,1.47-.32.55-.15,1.28-.38,2.2-.69-.06.12-.11.23-.14.32-.03.09-.08.2-.14.32-.12.31-.29.69-.5,1.15-.21.46-.6,1.39-1.15,2.79-1.16,2.63-1.89,4.38-2.2,5.27-.31.89-.46,1.57-.46,2.06,0,.31.12.6.37.87.24.27.52.38.82.32.43-.06.93-.23,1.51-.5.58-.27,1.42-.72,2.52-1.33l.82,1.19Z"/>
        <path class="cls-1" d="M349.95,249.92c-.37-.06-.69-.12-.96-.18-.27-.06-.57-.09-.87-.09-.18-.06-.37-.09-.55-.09h-.64c-1.89,0-3.88.8-5.95,2.39-2.08,1.59-4.18,4.01-6.32,7.26-.12.24-.26.47-.41.69-.15.21-.29.45-.41.69-.43.68-.84,1.38-1.24,2.11-.4.74-.78,1.5-1.15,2.3-.86,1.72-1.71,3.81-2.57,6.3-.86,2.48-1.92,5.71-3.21,9.69-.61.12-1.19.26-1.74.41-.55.15-1.1.29-1.65.41-.37.12-.73.24-1.1.37-.37.12-.7.21-1.01.27l.09-.37c.06-.18.11-.32.14-.41.03-.09.08-.17.14-.23,0-.12.08-.37.23-.73.15-.37.53-1.38,1.15-3.03,1.16-3,1.95-5.08,2.38-6.24.43-1.16.79-2.14,1.1-2.94v-.18c.18-.43.38-.93.6-1.52.21-.58.47-1.36.78-2.34.61-1.84,1.15-3.49,1.6-4.96.46-1.47.9-2.79,1.33-3.95.12-.49.23-.96.32-1.42s.14-.87.14-1.24-.12-.69-.37-.96c-.24-.27-.52-.41-.82-.41-.24,0-.63.09-1.15.28-.52.18-1.15.49-1.88.92l-.64-1.38c.67-.31,1.3-.61,1.88-.92.58-.31,1.15-.61,1.69-.92.85-.43,1.65-.87,2.38-1.33.73-.46,1.47-.93,2.2-1.42.49-.37.99-.72,1.51-1.06.52-.34,1.05-.72,1.6-1.15.06.18.11.34.14.46.03.12.05.24.05.37v.64c0,1.22-.24,2.73-.73,4.53-.49,1.8-1.28,4.14-2.38,7.01,4.15-4.58,7.45-7.85,9.89-9.8,2.44-1.95,4.43-2.93,5.95-2.93h.46c.12,0,.24.03.37.09.18,0,.37.05.55.14.18.09.4.2.64.32l-1.56,4.58Z"/>
        <path class="cls-1" d="M370.29,226.47c2.2-.79,4.15-1.54,5.86-2.24,1.71-.7,3.3-1.42,4.76-2.15.31-.18.64-.35,1.01-.5.37-.15.7-.32,1.01-.5v.23c0,.09-.03.17-.09.23-.06.79-.21,1.65-.46,2.57-.24.92-.67,2.17-1.28,3.76-.24.67-.57,1.54-.96,2.61-.4,1.07-.87,2.31-1.42,3.71l-1.19,2.75-1.1,2.84-1.1,2.75-.37,1.1-.46,1.1-.46,1.01c1.04.43,1.77.95,2.2,1.56.43.61.67,1.56.73,2.84-.37-.12-.81-.23-1.33-.32-.52-.09-1.05-.2-1.6-.32-.24,0-.47-.01-.69-.05-.21-.03-.44-.05-.69-.05-.06.12-.09.21-.09.27-.67,1.77-2.02,5.22-4.03,10.35l-1.92,4.86c-1.59,4.03-2.66,6.84-3.21,8.43-.55,1.59-.82,2.66-.82,3.21,0,.37.12.67.37.92.24.24.52.37.82.37.49,0,1.04-.14,1.65-.41.61-.27,1.43-.72,2.47-1.33.06-.06.12-.11.18-.14.06-.03.15-.08.27-.14l.82,1.1c-1.53,1.04-3.21,1.97-5.04,2.79-1.83.82-4,1.63-6.5,2.43-.37.06-.7.14-1.01.23-.31.09-.64.17-1.01.23.31-1.1.56-2.05.78-2.84.21-.79.41-1.53.6-2.2.12-.24.21-.47.27-.69.06-.21.12-.44.18-.69.37-1.04.79-2.15,1.28-3.34.49-1.19,1.16-2.85,2.02-4.99.31-.85.63-1.66.96-2.43.33-.76.63-1.51.87-2.24l1.65-4.31,1.74-4.4,1.65-4.31c0-.06.05-.18.14-.37.09-.18.2-.4.32-.64h-.82c-6.41.49-12.37,3.11-17.86,7.88-5.5,4.76-8.61,9.96-9.34,15.57,0,.31-.02.63-.05.96-.03.34-.05.69-.05,1.05,0,1.16.24,2.08.73,2.75.49.67,1.16,1.01,2.02,1.01,1.04,0,2.23-.41,3.57-1.24,1.34-.82,2.72-1.94,4.12-3.34s2.67-2.92,3.99-4.72c1.31-1.8,2.49-3.71,3.53-5.73.18-.43.38-.82.6-1.19.21-.37.41-.76.6-1.19.49-1.04.93-2.12,1.33-3.25.4-1.13.81-2.37,1.24-3.71.18.37.32.7.41,1.01.09.31.17.58.23.82,0,.24.01.49.05.73.03.24.05.49.05.73,0,1.77-.49,3.71-1.47,5.82-.98,2.11-2.35,4.26-4.12,6.46-.92,1.1-1.91,2.18-2.98,3.25-1.07,1.07-2.21,2.12-3.44,3.16-.37.31-.79.64-1.28,1.01-.49.37-.98.73-1.47,1.1-.37.24-.72.49-1.05.73-.34.24-.69.46-1.05.64-.37.24-.72.49-1.05.73-.34.24-.69.46-1.05.64-.92.55-1.74.96-2.47,1.24s-1.44.41-2.11.41h-.73c-1.1,0-1.92-.37-2.47-1.1-.55-.73-.82-1.77-.82-3.11,0-1.59.32-3.34.96-5.27.64-1.92,1.57-3.86,2.79-5.82.85-1.47,1.85-2.92,2.98-4.35,1.13-1.43,2.37-2.79,3.71-4.08,3.6-3.6,7.41-6.47,11.41-8.61,4-2.14,8.23-3.6,12.69-4.4.43-1.1.72-1.83.87-2.2.15-.37.29-.7.41-1.01.06-.24.17-.53.32-.87.15-.33.38-.93.69-1.79,1.59-4.15,2.58-6.76,2.98-7.83.4-1.07.63-1.82.69-2.24v-.82c0-.55-.17-.98-.5-1.28-.34-.31-.81-.46-1.42-.46h-.5c-.15,0-.32.03-.5.09-.18.06-.41.14-.69.23s-.57.2-.87.32l-.55-1.37Z"/>
        <path class="cls-1" d="M397.36,263.48c.09.24.14.46.14.64.06.12.09.25.09.37v.37c0,1.04-.32,2.21-.96,3.53-.64,1.31-1.54,2.67-2.7,4.08-.49.55-.99,1.09-1.51,1.6s-1.08,1.02-1.69,1.51c-2.69,2.44-5.22,4.28-7.6,5.5-2.38,1.22-4.46,1.83-6.23,1.83-1.59,0-2.86-.52-3.8-1.56-.95-1.04-1.42-2.47-1.42-4.31,0-1.4.15-2.85.46-4.35.31-1.5.73-3.01,1.28-4.53,1.1-2.99,2.63-5.91,4.58-8.75,1.95-2.84,4.21-5.33,6.78-7.47.92-.73,1.86-1.43,2.84-2.11.98-.67,1.95-1.28,2.93-1.83,1.77-.92,3.48-1.65,5.13-2.2,1.65-.55,3.15-.82,4.49-.82,1.1,0,1.95.21,2.57.64.61.43.92,1.07.92,1.92,0,.61-.18,1.33-.55,2.15-.37.82-.89,1.66-1.56,2.52-.61.79-1.33,1.57-2.15,2.34-.82.76-1.69,1.45-2.61,2.06-.67.43-1.42.86-2.24,1.28-.82.43-1.66.79-2.52,1.1-1.16.49-2.28.89-3.34,1.19-1.07.31-1.94.46-2.61.46-.73,0-1.33-.18-1.79-.55-.46-.37-.84-.95-1.15-1.74.67.06,1.21.11,1.6.14.4.03.78.05,1.15.05h.82c2.75-.12,5.3-.96,7.65-2.52,2.35-1.56,3.65-3.25,3.89-5.08v-.46c0-.67-.24-1.19-.73-1.56-.49-.37-1.16-.55-2.02-.55s-1.76.17-2.7.5c-.95.34-1.88.81-2.79,1.42-.98.61-1.94,1.36-2.89,2.24-.95.89-1.85,1.88-2.7,2.98-1.04,1.34-1.99,2.75-2.84,4.21-.86,1.47-1.59,2.96-2.2,4.49-.79,1.83-1.41,3.65-1.83,5.45-.43,1.8-.64,3.47-.64,4.99s.33,2.6,1.01,3.39c.67.79,1.62,1.19,2.84,1.19.79,0,1.6-.14,2.43-.41.82-.27,1.66-.66,2.52-1.15,2.14-1.28,4.2-3.24,6.18-5.86,1.98-2.63,3.68-5.68,5.08-9.16.18.31.32.58.41.82Z"/>
        <path class="cls-1" d="M429.56,277.13c-1.89,1.34-3.85,2.44-5.86,3.3-2.02.86-4.31,1.53-6.87,2.02,0-.18.01-.38.05-.6.03-.21.08-.44.14-.69.24-1.28.61-2.66,1.1-4.12.49-1.47,1.19-3.33,2.11-5.59.67-1.71,1.47-3.5,2.38-5.36.92-1.86,1.89-3.83,2.93-5.91l1.01-1.83.92-1.92,1.01-1.83c.55-1.1.93-1.91,1.15-2.43.21-.52.32-.93.32-1.24,0-.37-.09-.66-.27-.87-.18-.21-.43-.32-.73-.32-.73,0-1.99.66-3.76,1.97-1.77,1.31-3.66,2.95-5.68,4.9-.79.79-1.59,1.62-2.38,2.47-.79.86-1.56,1.71-2.29,2.57-2.26,2.63-4.34,5.53-6.23,8.7-1.89,3.18-3.63,6.57-5.22,10.17-.12,0-.24.02-.37.05-.12.03-.24.08-.37.14-.67.18-1.41.41-2.2.69-.79.27-1.77.66-2.93,1.15.12-.12.23-.29.32-.5.09-.21.17-.41.23-.6.12-.3.26-.63.41-.96.15-.33.29-.66.41-.96.98-2.14,2.02-4.5,3.11-7.1,1.1-2.6,2.5-5.97,4.21-10.12,1.47-3.6,2.44-6.14,2.93-7.6.49-1.47.73-2.6.73-3.39,0-.49-.11-.87-.32-1.15-.21-.27-.54-.41-.96-.41h-.27c-.24,0-.57.06-.96.18-.4.12-1.12.34-2.15.64l-.27-1.47c.3-.06.6-.14.87-.23.27-.09.53-.17.78-.23,1.1-.37,2.14-.7,3.11-1.01.98-.31,1.95-.67,2.93-1.1.67-.24,1.36-.52,2.06-.82.7-.3,1.42-.61,2.15-.92.06.18.09.34.09.46v.37c0,1.28-.58,3.54-1.74,6.78-1.16,3.24-2.75,7.05-4.76,11.45,5.44-6.11,10.18-10.76,14.25-13.97,4.06-3.21,7.31-4.81,9.76-4.81.67,0,1.21.2,1.6.6.4.4.6.93.6,1.6,0,.98-.35,2.31-1.05,3.99-.7,1.68-2.31,4.93-4.81,9.76-.37.73-.79,1.56-1.28,2.47-.49.92-.95,1.86-1.37,2.84-.06.12-.12.23-.18.32-.06.09-.12.2-.18.32-.49,1.04-.99,2.08-1.51,3.11-.52,1.04-.96,1.99-1.33,2.84-.43.79-.73,1.48-.92,2.06-.18.58-.27,1.02-.27,1.33,0,.37.11.67.32.92.21.24.5.37.87.37.24,0,.6-.08,1.05-.23.46-.15.93-.32,1.42-.5.24-.12.49-.26.73-.41.24-.15.49-.32.73-.5l.73,1.19Z"/>
      </g>
      <g>
        <g>
          <path class="cls-1" d="M219.68,76.46c-.79-4.75-1.17-9.47-1.12-14.04.04-3.68.39-7.41.73-11.02.11-1.19.23-2.42.33-3.63.42-4.91.69-10.7-.45-16.36-.05-.27-.28-.39-.49-.39-.15,0-.29.06-.37.17-.06.07-.12.19-.09.37,1.22,6.51.51,13.19-.18,19.64-.34,3.19-.69,6.5-.81,9.74-.34,9.59.93,19.02,3.76,28.03,1.61,5.11,3.72,10.07,6.29,14.75.11.2.26.3.44.3.14,0,.29-.06.47-.14l.08-.03.07-.03c.25-.1.52-.21.6-.44.04-.12.03-.24-.05-.38-4.56-8.26-7.66-17.19-9.23-26.53Z"/>
          <path class="cls-1" d="M226.29,121.37s-.04,0-.06,0c-.14,0-.28.03-.41.06l-.09.02c-.18.04-3.93,1.7-4.62,2.08-.94.51-1.9,1.1-2.83,1.74-1.83,1.26-3.6,2.73-5.25,4.38-3.08,3.06-5.89,6.82-8.37,11.19-3.39,5.98-5.92,12.47-8.38,18.75-1.3,3.32-2.64,6.75-4.08,10.06-1.03,2.36-2.26,5.09-3.73,7.62-1.51,2.59-3.15,4.98-4.88,7.08-.11.13-.13.3-.06.46.07.15.22.25.38.25.08,0,.19-.02.29-.14,1.56-1.84,3.05-3.88,4.42-6.06,1.52-2.41,2.76-4.56,3.79-6.59,2.26-4.43,4.15-9.11,5.97-13.64l.14-.36c3.47-8.64,7.41-18.43,14.3-25.95,1.78-1.95,3.64-3.63,5.52-5.01,1.01-.74,2.06-1.42,3.12-2.02.91-.52,3.64-1.86,4.66-2.36.17-.08.27-.13.33-.17h0c.33-.11.53-.37.52-.68-.02-.39-.3-.67-.69-.7Z"/>
          <path class="cls-1" d="M271.39,126.65c11.71,3.33,20.79,5.21,29.44,6.11,2.79.29,5.59.46,8.33.49.19,0,.38,0,.57,0,2.61,0,5.14-.2,7.94-.45.32-.03.48-.31.47-.57-.01-.27-.21-.47-.46-.47-.01,0-.02,0-.04,0-1.02.07-2.13.1-3.39.1-1.16,0-2.35-.03-3.49-.06h-.58c-2.42-.07-4.93-.22-7.46-.46-4.73-.46-9.53-1.2-14.65-2.28-10.74-2.25-21.11-5.43-28.94-7.96-2.39-.77-5.01-1.63-7.98-2.62-1.33-.44-2.66-.89-3.98-1.34-.25-.09-.5-.17-.76-.26-1.09-.37-2.21-.76-3.35-1.02-.05-.01-.1-.02-.15-.02-.39,0-.68.34-.75.65-.07.32.07.6.37.74,1.73.78,3.56,1.38,5.34,1.95.58.19,1.18.38,1.77.58,2.71.91,5.08,1.7,7.25,2.4,5.58,1.82,10.19,3.24,14.5,4.46Z"/>
          <path class="cls-1" d="M263.41,137.96c-1.31-1.35-2.38-2.43-3.36-3.4-.89-.88-1.82-1.72-2.73-2.54-.28-.26-.56-.51-.84-.77-.6-.54-1.55-1.39-2.15-1.91-.09-.07-.17-.11-.26-.11-.15,0-.27.1-.34.27-.11.28-.06.71.21.94,4.46,3.99,8.83,8.35,12.99,12.97,4.68,5.19,8.42,9.92,11.45,14.48,1.06,1.59,1.8,2.84,2.41,4.04.62,1.22,1.21,2.74.32,3.65-.31.32-.76.48-1.34.48-.71,0-1.4-.24-1.75-.38-1.1-.45-2.23-1.19-3.34-2.2-1.82-1.66-3.29-3.7-4.72-5.68-.22-.3-.43-.6-.64-.89-1.61-2.21-3.25-4.46-4.84-6.63l-.03-.04-1.08-1.47c-.43-.59-.87-1.18-1.3-1.77-3.12-4.21-6.34-8.55-7.93-13.63-.25-.8-.43-1.47-.56-2.1-.03-.14-.16-.22-.36-.22-.06,0-.25,0-.35.12-.05.05-.07.11-.06.18.6,5.78,4.13,10.59,7.54,15.25.27.37.54.73.8,1.09.63.86,1.26,1.73,1.89,2.59h.01c1.43,1.97,2.9,4,4.36,5.99.37.51.74,1.02,1.11,1.53,1.41,1.96,2.86,3.98,4.57,5.72,1.11,1.13,2.2,1.99,3.35,2.63,1.22.68,2.24,1,3.21,1,.16,0,.32,0,.48-.03,1.33-.16,2.31-1.05,2.49-2.27.21-1.41-.52-2.79-1.17-4l-.07-.14c-1.37-2.59-3.18-4.99-4.94-7.3-.2-.27-.4-.53-.6-.79-2.12-2.82-4.07-5.28-5.94-7.51-2.12-2.52-4.3-4.93-6.47-7.17Z"/>
          <path class="cls-1" d="M207.14,118.92s0,0,0,0c.03-.05.04-.1.06-.16.05-.24-.05-.46-.26-.55-1.31-.58-2.78-.87-4.36-.87-1.64,0-3.41.3-5.43.93-2.67.83-5.53,2.07-8.74,3.79-5.53,2.96-10.55,6.74-14.93,11.24-2.32,2.39-4.35,4.82-6.03,7.24-1.12,1.61-1.33,2.98-.61,4.07.4.6.94.91,1.62.91.84,0,1.68-.47,2.24-.87,4.11-2.92,7.74-5.92,11.59-9.09,1.59-1.31,3.23-2.66,4.9-4,5.08-4.08,11.16-8.54,17.69-10.73.78-.26,1.6-.5,2.43-.72.34-.09.46-.39.43-.64-.03-.27-.25-.55-.58-.55ZM189.93,127.85c-3.12,2.33-6.15,4.89-9.07,7.37-2.18,1.85-4.43,3.75-6.71,5.55-1.64,1.29-2.91,2.24-4.14,3.07-.48.33-.99.63-1.47.63-.21,0-.4-.06-.56-.19-.48-.38-.55-1.1-.41-1.65.18-.68.61-1.28,1.03-1.85l.06-.09c.46-.64.94-1.27,1.4-1.86.92-1.17,1.88-2.3,2.86-3.36,4.06-4.41,8.74-8.19,13.91-11.22,2.6-1.53,5.31-2.85,8.03-3.93,2.33-.92,5.08-1.87,7.81-1.87.55,0,1.1.04,1.62.12.69.1,1.38.29,2.06.55-5.22,1.5-10.45,4.28-16.43,8.74Z"/>
          <path class="cls-1" d="M342.09,131.21c-1.51-1.09-3.35-1.99-5.62-2.77-2.99-1.03-6.14-1.59-9.18-2.14-1-.18-2.03-.37-3.04-.57-2.5-.49-4.39-.98-6.14-1.57-1.9-.65-3.94-1.51-6.22-2.66-1.84-.92-3.71-1.95-5.51-2.95-4.89-2.69-9.94-5.48-15.45-6.71,5.41-.21,11.73-.64,18.12-2.04l.22-.05c.91-.2,1.85-.4,2.76-.68.64-.19,1.56-.54,2.1-1.32.39-.57.52-1.2.4-1.88-.21-1.14-1.11-2.11-1.88-2.64-.77-.52-1.63-.92-2.46-1.31l-.19-.09c-.91-.42-1.86-.83-2.83-1.2-.43-.17-.89-.34-1.41-.52,2.72-1.5,4.9-3.78,7-5.99l.17-.18c.84-.88,1.49-1.54,2.12-2.15.8-.74,1.48-1.35,2.14-1.91,1.13-.92,2.36-1.82,3.76-2.74,1.88-1.24,3.87-2.41,5.8-3.54,4.09-2.41,8.33-4.89,11.83-8.26,1.45-1.39,2.89-2.92,3.13-4.89.19-1.54-.09-2.64-.92-3.54-.76-.84-2.94-.88-4.37-.9-.15,0-.29,0-.42,0-.36,0-.74-.01-1.15-.01-.95,0-1.92.03-2.78.05l-4.18.11-4.15.11c-1.41.04-2.81.07-4.22.11-4,.1-8.12.2-12.18.34-4.79.17-10.46.44-16.23,1.24-5,.69-9.98,1.8-14.79,3.29-3.6,1.12-7.89,2.76-11.82,4.52,4.33-4.32,8.14-9.05,11.33-14.07l.32-.5c.77-1.2,1.56-2.44,2.19-3.73.32-.48.8-1.21,1.25-1.97l.16-.27c.5-.82,1.01-1.68,1.31-2.59.57-1.74-.3-3.49-2.11-4.26-.63-.27-1.34-.4-2.15-.4-1.18,0-2.41.28-3.5.53l-.35.08c-1.95.44-3.87,1.02-5.72,1.72-3.73,1.4-7.24,3.25-10.43,5.51-3.03,2.14-5.98,4.84-8.77,8.03-2.39,2.74-4.66,5.81-6.92,9.4.02-1.13-.14-3.71-1.42-8.04-.61-2.07-1.47-4.49-2.31-6.83-1.24-3.48-2.42-6.78-2.57-8.4-.14-1.49-.25-3.01-.36-4.48-.12-1.72-.25-3.5-.44-5.25-.31-2.96-.8-5.67-1.5-8.3-1.33-4.99-3.45-9.8-6.29-14.29-2.85-4.5-6.28-8.45-10.2-11.72-2.18-1.82-4.29-3.3-6.44-4.52C208.51.81,206.89,0,205.24,0c-.27,0-.54.02-.8.07-.74.13-1.35.32-1.84,1.43-.47,1.07.24,2.98.59,3.9l.05.13c.28.75.56,1.5.85,2.25.63,1.67,1.29,3.4,1.88,5.12,1.89,5.58,3.02,10.51,3.43,15.06v.11c.01.22.02.45.03.67.01.74,0,1.5-.03,2.27-.06,1.35-.19,2.77-.4,4.35-.36,2.63-.92,5.46-1.74,8.64-.42,1.63-.86,3.29-1.29,4.89-1.09,4.07-2.23,8.27-2.99,12.48-.58,3.19-.86,6.15-.85,9.05-4.04-4.96-8.5-9.1-13.25-12.3-1.52-1.03-3.1-1.97-4.68-2.81-.78-.41-1.63-.85-2.52-1.23-.8-.35-1.45-.51-2.04-.51-.27,0-.54.04-.78.11-2.01.59-2.25,2.82-1.8,4.7.38,1.62.9,3.33,1.65,5.39,2.45,6.81,6.13,13.33,10.93,19.39.16.2.33.41.49.61-3.41.33-6.98.92-10.93,1.83-4.61,1.06-9.22,2.41-13.68,3.72-1.46.43-2.97.87-4.45,1.3-5.85,1.68-12.14,3.33-18.52,4.09-2.45.29-4.85.44-7.14.44-.76,0-1.51-.02-2.25-.05-3.12-.13-6.13-.65-9.45-1.27-2.77-.51-5.6-.78-8.17-.78-2.41,0-4.53.24-6.14.7-1.38.39-2.95.84-3.96,2.1-.87,1.09-.81,2.73-.39,3.8.84,2.12,2.91,3.47,6.35,4.13.07.01,7.25,1.42,8.71,1.82,2.84.78,5.66,1.74,8.38,2.88,2.31.96,4.65,2.11,6.96,3.4.58.4,1.11.77,1.61,1.12,3.57,2.53,7.14,4.83,10.9,7.05,4.52,2.66,8.61,4.26,12.52,4.92.18.03.36.06.56.1,1.38.24,3.25.57,5.95.57,2.94,0,6.24-.37,10.09-1.14-9.31,7.36-14.39,14.99-15.54,23.29-.18,1.28-.4,2.87.11,4.26.47,1.3,1.49,2.2,2.66,2.36.21.03.42.04.61.04,1.91,0,2.92-1.33,4.2-3.01.44-.58.94-1.24,1.53-1.9,2.34-2.65,8.95-7.65,13.86-10.86-4.79,6.74-5.71,15.17-6.61,23.33-.14,1.3-.29,2.65-.45,3.96-.38,3.05-.84,5.81-1.42,8.42-.62,2.8-1.38,5.57-2.1,8.16l-.38,1.38c-1.34,4.81-2.73,9.79-3.45,14.82-.5,3.51-.66,6.39-.51,9.07.1,1.7.51,2.95,1.3,3.94.66.82,1.95,1.78,3.45,1.78.26,0,.52-.03.78-.09,3.29-.75,5.06-5.79,6.48-9.83.19-.55.38-1.09.57-1.59.45-1.24,1.17-2.37,1.86-3.47.38-.6.77-1.22,1.12-1.86,1.02-1.7,2.14-3.37,3.33-4.96.73-.98,1.5-1.95,2.36-2.98,3.06-3.5,6.55-6.7,9.92-9.8,2.84-2.61,5.78-5.32,8.46-8.19.07-.07.14-.15.21-.23h.01s.11-.14.11-.14c2.9-2.68,5.46-5.18,7.34-8.51-.5,7.61.64,15.42,3.3,22.61.68,1.84,1.45,3.63,2.29,5.31.43.87.9,1.73,1.38,2.58.06.11.13.22.19.33l.02.03c.39.69.79,1.41,1.28,2.04.36.48.96,1.05,1.74,1.05.1,0,.2,0,.3-.03.68-.13,1.24-.65,1.71-1.61.8-1.61,1.51-3.39,2.15-5.44,1.1-3.49,1.89-7.3,2.4-11.64.2-1.69.37-3.39.52-5.03,1.4,2.13,5.57,7.63,16.07,16.6,4.35,3.72,10.19,9.22,12.72,12.51,1.42,1.85,3.29,4.89,4.79,7.32,1.27,2.07,2.28,3.7,2.64,4.01.57.49,1.06.71,1.55.71.24,0,.47-.05.71-.16,2.04-.94,2.86-3.69,3.4-5.51.13-.44.25-.82.36-1.13.79-2.12,1.22-4.03,1.31-5.86.09-1.95-.26-3.89-1.05-5.75-.69-1.62-1.64-3.13-2.56-4.6l-.23-.37c-4.09-6.53-6.98-13.8-8.57-21.61-.78-3.8-1.26-7.83-1.44-11.98,1.78,2.45,3.51,4.62,5.28,6.6,2.46,2.77,5.2,5.58,8.54,7.42,1.74.95,3.55,1.56,5.37,1.8.59.08,1.18.12,1.74.12,1.43,0,2.7-.24,3.77-.72.93-.41,1.45-1.17,1.42-2.09-.02-.76-.27-1.52-.5-2.25-.06-.18-.12-.36-.17-.53-.55-1.8-1.19-3.6-1.92-5.35-2.43-5.84-5.9-11.31-10.31-16.27,1.27.41,2.48.79,3.97,1.11,2.93.83,5.77,1.41,8.42,1.72,1.97.23,4.02.35,6.07.35,2.6,0,5.3-.19,8-.56,2.06-.28,4.24-.67,6.68-1.19,1.44-.27,2.86-.58,4.21-.91,1.27-.31,2.61-.67,4.22-1.12,3.27-.84,6.59-1.71,9.81-2.54h.03s3.27-.86,3.27-.86l3.55-.92,3.55-.92c.73-.19,4.44-1.21,5.3-2.58,1.33-2.12-.65-4.36-2.03-5.35ZM275.12,73.08c4.7-1.55,9.55-2.73,14.42-3.5,5.74-.91,11.53-1.23,15.94-1.41,3.84-.15,7.75-.26,11.52-.36,1.55-.04,3.1-.08,4.65-.13l9.16-.26c.55-.02,1.11-.03,1.66-.05.93-.03,1.89-.06,2.83-.08.15,0,.34-.01.56-.02.36-.02.82-.04,1.29-.04,2.1,0,3.19.47,3.33,1.42.47,3.15-1.29,4.31-3.16,5.53-.53.35-1.08.71-1.59,1.12-2.59,2.1-5.37,3.92-8.22,5.76-.37.24-.74.48-1.11.71h-.02c-2.45,1.58-4.98,3.21-7.36,4.97-2.51,1.85-4.75,3.89-7.35,6.38-2.39,2.29-4.99,4.66-8.21,6.27-.71-.22-1.31-.39-1.87-.53-.56-.15-1.15-.29-1.85-.44,5.02-2.92,9.36-5.87,13.95-8.98,1.67-1.13,3.39-2.3,5.19-3.5,3.91-2.6,7.33-4.94,10.45-7.15.31-.22.63-.44.94-.67h.02c1.37-.97,2.78-1.97,4.1-3.03.81-.66,1.69-1.75,1.73-2.83.02-.58-.21-1.1-.67-1.53-.48-.44-1.13-.66-2.07-.71-.16,0-.33-.01-.51-.01-.56,0-1.13.04-1.68.08-.29.02-.58.04-.87.05l-3.26.16-3.26.16-3.26.16h-.03c-3.22.16-6.55.32-9.83.47l-1.47.07c-8.02.36-16.32.74-24.43,1.88-7.54,1.06-14.98,3.08-20.81,4.8,4.78-2.3,8.43-3.86,11.14-4.75ZM231.22,31.85c1.29,4.63,1.66,9.47,2.02,14.14.08,1.03.16,2.09.25,3.14.25,2.88,1.81,7.3,3.31,11.57,1.44,4.1,2.81,7.96,2.88,10.08.11,3.23-.27,4.61-.49,5.44-.03.12-.06.23-.09.33-3.78-6.89-6.93-19.73-7.4-27.04-.1-1.56-.18-3.14-.26-4.67-.3-5.88-.62-11.96-2.05-17.8-.13-.52-.27-1.05-.42-1.58.9,2.1,1.66,4.23,2.25,6.37ZM207.49,49.61c.46-1.65.89-3.22,1.3-4.77.97-3.72,1.54-6.93,1.77-9.96.09,4.34-.33,8.47-.73,11.69-.26,2.05-.55,4.14-.87,6.34-.78,5.45-1.59,11.08-1.7,16.31-.07,3.5-.04,6.33.1,8.42-.87-1.35-1.83-2.73-2.84-4.1-.25-.34-.5-.68-.75-1.01.02-.05.03-.11.03-.18-.54-7.42,1.62-15.2,3.71-22.72ZM171.48,123.68c-1.69.18-3.32.28-4.83.28s-2.94-.1-4.19-.29c-2.72-.42-5.37-1.14-7.9-2.13-2.28-.89-4.67-2.14-7.54-3.93-1.3-.81-2.59-1.67-3.85-2.5-1.08-.71-2.19-1.45-3.3-2.15-1.12-.71-2.29-1.41-3.48-2.07-2.27-1.56-5.25-2.7-8.12-3.81-.95-.37-1.85-.71-2.7-1.07-2.22-.92-8.26-2.71-9.73-2.71-.02,0-.05,0-.07,0-1.16-.22-2.34-.41-3.48-.6l-.2-.03c-1.27-.2-2.74-.48-3.97-1.19-1.13-.65-1.93-1.54-2.27-2.5-.33-.95-.39-1.63.27-2.47.42-.54,1.07-1.03,1.24-1.09,2.07-1,4.48-1.48,7.36-1.48s5.47.46,7.28.8c.48.09.97.19,1.45.28,2.55.5,5.18,1.01,7.82,1.24,1.43.13,2.91.19,4.41.19,1.59,0,3.26-.07,4.95-.22,6.83-.58,13.46-2.24,18.47-3.62,2.28-.63,4.6-1.3,6.83-1.95,3.66-1.07,7.45-2.17,11.21-3.1,5.38-1.33,9.85-2.1,14.07-2.43.78.92,1.6,1.84,2.45,2.75-2.07.03-4.26.32-6.51.85-3.99.95-7.8,2.58-11.48,4.16-1.07.46-2.17.93-3.25,1.38-2.93,1.21-5.35,2.05-7.62,2.64-2.51.66-5.21,1.13-8.02,1.42-2.39.24-4.86.36-7.56.36s-5.54-.12-8.83-.36c-3.02-.22-6.08-.53-9.03-.82-2.63-.26-5.35-.53-8.03-.75-1.58-.13-2.91-.22-4.25-.28-.27-.01-.49-.02-.7-.02-.77,0-1.89.07-2.82.66-.95.61-1.47,1.52-1.4,2.43.06.8.54,1.54,1.39,2.14.88.61,1.94.94,2.67,1.13.95.25,1.93.5,2.87.74.44.11.87.22,1.3.33l2.63.68c1.91.49,3.81.98,5.72,1.47l11.15,2.86,5.54,1.42c1.38.35,2.77.71,4.15,1.07l.27.07c4,1.03,8.15,2.09,12.24,3.13,5.5,1.39,10.89,2.66,16.35,2.93,1,.05,4.84.1,7.47.1.04,0,.09,0,.13,0-2.46,1.09-4.92,2.5-7.51,4.3-1.93.5-8.18,1.61-9.05,1.76ZM170.5,207.24v-.1c-.1-2.35.09-4.89.59-8,.79-4.94,2.18-9.84,3.52-14.57l.28-.98c1.41-4.99,2.85-10.33,3.63-15.88.25-1.78.46-3.59.66-5.34.42-3.69.86-7.51,1.69-11.19,1.34-5.95,3.62-10.91,6.61-14.35,1.18-.7,2.41-1.39,3.65-2.04-1.95,1.9-3.62,4.23-4.99,6.92-2.2,4.34-3.63,9.39-4.52,15.89-.32,2.35-.57,4.75-.81,7.07-.43,4.18-.88,8.51-1.77,12.69-.78,3.64-2.03,7.21-3.24,10.66-.92,2.62-1.87,5.33-2.61,8.07-1,3.7-1.49,6.77-1.54,9.66-.03,1.8.1,3.36.39,4.78.09.42.21.81.37,1.14-1.78-1.33-1.86-3.48-1.9-4.42ZM204.56,173.33s0,0,0,0h0s0,0,0,0ZM208.29,169.79c-1.26,1.17-2.56,2.35-3.82,3.49-2.08,1.89-4.23,3.85-6.3,5.83-1.75,1.68-3.32,3.25-4.77,4.78,2.8-4.31,5.69-7.72,9.3-11.97.36-.42.72-.85,1.09-1.28l.53-.63c5.04-5.95,10.26-12.1,13.58-19.33.16-.34.32-.69.48-1.04.74-1.63,1.56-3.43,2.53-5.13-1.65,3.93-2.83,8.1-3.5,12.4-1.85,3.92-5.27,8.74-9.13,12.9ZM266.63,178c1.32,3.67,2.96,7.2,4.89,10.48.43.73.9,1.47,1.35,2.18,1.59,2.51,3.24,5.1,3.62,8.1.56,4.46-1.88,10.44-2.59,11.65-.69,1.17-1.59,1.71-2.13,1.71-.1,0-.19-.02-.27-.05-.25-.11-.48-.27-.7-.49,3.85-2.26,4.7-6.84,4.25-10.1-.65-4.78-3.6-8.81-6.56-12.53l-.45-.57c-1.38-1.73-2.82-3.53-3.98-5.45-1.19-1.98-2.08-4.19-2.62-6.56-.98-4.25-.9-8.71-.83-13.02l.02-1.01c.06-3.87.12-7.86-.84-11.98.72,1.11,1.44,2.19,2.16,3.24.17.24.33.48.5.72l.09.13c.15,8.25,1.61,16.62,4.1,23.55ZM278.9,149.33c2.15,2.81,4.04,5.85,5.64,9.05,1.59,3.18,2.87,6.54,3.81,9.98.02.07.04.13.06.2.1.33.2.67.17.99-.03.33-.23.54-.7.73-.67.27-1.51.45-2.47.52-.26.02-.52.03-.78.03-1.46,0-2.97-.29-4.49-.87-3.44-1.3-6.24-3.91-8.52-6.3-2.41-2.52-4.75-5.34-7.13-8.64-1.9-2.63-3.8-5.49-6.16-9.27-.41-.65-.81-1.3-1.22-1.95l-.05-.08c-.57-.91-1.14-1.82-1.71-2.73l-.13-.21c-.94-1.52-1.92-3.09-2.43-4.82-.3-1.02-.55-2.49-.36-3.38.02-.1-.73.07-.79.3-.46,1.82.25,3.76,1.08,5.59.63,1.39,1.44,2.72,2.21,4.01.23.39.46.76.68,1.14.6,1.01,1.2,2,1.83,3.04-.01.08,0,.17.04.28,1.94,5.28,1.86,10.93,1.78,16.4-.05,3.68-.1,7.49.46,11.18.36,2.38,1,4.59,1.88,6.56,1.09,2.43,2.66,4.56,3.9,6.14.64.81,1.3,1.61,1.94,2.38.88,1.06,1.79,2.16,2.63,3.28,1.31,1.75,2.76,3.84,3.56,6.15,1.41,4.07.72,9.47-3.34,11.95-.2-.3-.38-.66-.57-1.1-.75-1.75-1.5-3.46-2.48-5.08-1.29-2.14-2.88-4.27-4.85-6.49-.98-1.38-2.25-2.64-3.47-3.86-.45-.45-.91-.91-1.35-1.37-2.5-2.61-5.38-5.12-8.17-7.55-2.86-2.49-5.55-4.84-7.7-7.15-3.55-3.83-6.49-8.05-7.33-9.29.08-1.33.14-2.63.18-3.85.18-6.12.07-15.23-2.89-23.72-.31-.88-1.07-2.75-1.07-2.75,0,0-1.31.42-1.21.66,2.63,6.18,3.86,13.33,3.88,22.48,0,3.7-.13,7.54-.4,11.42-.29,4.22-.82,7.92-1.61,11.3-.44,1.88-1,3.72-1.66,5.47-.35.92-.71,1.8-1.09,2.62-.05.11-.1.23-.15.36-.02.06-.05.12-.08.18-1.07-1.22-1.95-2.6-2.66-3.79-.84-1.4-1.57-2.94-2.17-4.56-1.17-3.17-1.86-6.68-2.1-10.71-.25-4.12-.08-8.23.11-11.72.27-4.74.76-8.29,1.58-11.53,1.05-4.1,3.06-8.3,5.37-11.22.14-.18-.98-.44-1.18-.18-4.01,5.09-6.18,11.83-6.83,21.23-.5,7.28-.83,15.69,1.71,23.41.63,1.92,1.42,3.71,2.35,5.33.47.82,1.01,1.63,1.61,2.41.55.72,1.16,1.33,1.81,1.98l.04.04c-.23.39-.45.62-.7.71-.06.02-.13.04-.19.04-.51,0-.95-.76-1.24-1.26-.05-.09-.09-.16-.13-.23-.47-.77-.94-1.57-1.37-2.37-.91-1.67-1.74-3.4-2.46-5.14-2.88-6.89-4.3-14.43-4.12-21.81.18-7.52,4.72-20.94,5.36-22.04.64-1.11,1.69-2.33,2.29-2.8.17-.13-.75-.89-.86-.81-3.27,2.32-5.22,6.34-6.94,10.27-1.66,3.8-3.63,7.29-6.01,10.67-2.55,3.61-5.42,7.06-8.21,10.39-2.43,2.91-4.94,5.92-7.22,9.02l-.56.75c-2.04,2.77-3.52,4.77-4.92,7.68l-.14.16c-.1.12-.2.23-.3.35-2.36,2.66-4.24,5.21-5.74,7.79-1.13,1.81-2.07,3.55-2.89,5.31-.54,1.17-.99,2.4-1.41,3.58-.42,1.18-.86,2.39-1.4,3.55-.16.34-1.58,3.34-3.12,4.45h0c-.24.13-.59.2-.95.2-.49,0-.9-.12-1.12-.33-.48-.47-.68-1.2-.8-1.85-.27-1.42-.38-2.96-.34-4.7.07-2.85.62-5.9,1.67-9.33.74-2.41,1.63-4.81,2.49-7.13,1.28-3.45,2.61-7.01,3.45-10.68,1.03-4.49,1.49-9.14,1.94-13.64.17-1.68.34-3.41.54-5.11.53-4.56,1.46-10.48,3.87-15.86,2.16-4.82,5.03-8.46,8.54-10.83,2.1-.98,4.3-1.89,6.51-2.72.38-.14.78-.28,1.18-.42,2.85-1.01,6.09-2.15,7.26-5.2.06-.17-1.01-.66-1.1-.47-1.25,2.61-3.95,3.57-6.57,4.5-.31.11-.62.22-.92.33-2.9,1.06-5.76,2.28-8.49,3.62-5.5,2.7-10.76,6-15.64,9.82-2.94,2.3-5.42,4.57-7.6,6.94-.61.49-1.13,1.11-1.63,1.7-.14.16-.28.33-.42.49-.59.68-1.5,1.59-2.62,1.68-.05,0-.1,0-.14,0-1,0-1.7-.86-1.97-1.7-.37-1.19-.17-2.56-.02-3.66.6-4.28,2.51-8.69,5.51-12.75,2.51-3.4,5.87-6.69,10.27-10.05,4.41-3.37,8.47-5.69,12.43-7.07,3.04-1.07,6.09-1.61,9.06-1.61,2.53,0,4.95.4,7.18,1.19.08.03.81-1.24.41-1.38-2.34-.83-4.88-1.25-7.53-1.25-2.67,0-5.39.42-8.11,1.24-.44.13-.89.28-1.4.46-.22,0-.44,0-.67,0-5.58,0-16.39-.97-21.45-2.17-3.71-.88-7.47-1.86-11.1-2.8-1.64-.42-3.27-.85-4.9-1.26l-.53-.13c-10.45-2.67-21.27-5.42-31.92-8.13-.2-.05-.4-.1-.61-.15-.87-.21-1.76-.43-2.56-.81-.99-.48-1.51-1.02-1.59-1.63-.12-.93.77-1.67,1.7-1.91.45-.12.97-.18,1.58-.18.56,0,1.14.05,1.7.09.26.02.51.04.76.06,3.61.23,7.26.6,10.8.96,1.89.19,3.83.39,5.73.56,4.56.41,8.29.61,11.74.61,7.63,0,14.12-.99,19.85-3.02,2.32-.82,4.62-1.8,6.85-2.75,2.45-1.04,4.98-2.12,7.54-2.99,3.86-1.31,7.29-1.95,10.48-1.95.24,0,.5,0,.77.01.82.85,1.65,1.66,2.44,2.42,3.14,2.97,6.01,5.32,8.75,7.18.71.48,1.45.97,2.27,1.49.09.06.75-.72.56-.86-6.44-4.55-11.71-9.23-16.12-14.32-4.85-5.59-8.68-11.65-11.38-18.01-.68-1.61-1.31-3.29-1.87-4.99-.11-.34-.21-.68-.32-1.01-.03-.86-.03-2.01.18-2.67.2-.62.5-1.26,1.19-1.26.04,0,.08,0,.13,0,.75.07,1.37.66,1.92,1.18.61.58,6.82,6.93,9.35,9.67,5.04,5.47,9.92,10.85,14.21,16.62,2.3,3.1,4.56,7.43,4.1,11.59-.02.2,1.32-.08,1.37-.51.39-3.28-.76-6.78-3.52-10.69-2.26-3.2-4.86-6.21-7.37-9.12l-.05-.06c-5.11-5.92-17.54-18.45-18.29-19.01-.58-.43-1.15-.65-1.68-.65-.21,0-.42.03-.61.1-.93.32-1.47,1.11-1.63,2.33-.17-.63-.31-1.32-.24-1.99.07-.66.45-1.47,1.29-1.57.08,0,.16-.01.25-.01.72,0,1.47.37,2.13.69l.22.11c1.54.74,3.07,1.59,4.56,2.51,5.6,3.49,10.8,8.26,15.44,14.19,2.09,2.67,4.08,5.6,5.91,8.71,1.87,3.17,3.83,6.96,4.21,11.01.09.92.08,1.89-.03,2.87-.02.19,1.29.5,1.33.09.39-3.61-.53-7.41-2.88-11.95-.58-1.13-1.23-2.28-1.93-3.44-.07-3.72-.21-16.13.91-21.23,1.38-6.31,2.28-14.78,2.29-21.56,0-3.75-.38-7.14-1.29-11.34-.42-2.85-1.15-5.95-2.17-9.22-.18-.57-.36-1.16-.54-1.75-.68-2.21-1.37-4.5-2.23-6.59-.05-.13-.18-.37-.36-.69-.71-1.3-2.18-4.02-1.6-5.27.33-.72,1-1.14,1.79-1.14.16,0,.31.02.47.05,1.17.24,2.17.55,3.25,1.24,2.06,1.31,4.11,2.84,6.08,4.56,3.32,2.89,6.27,6.17,8.75,9.75,4.28,6.65,5.45,14.71,5.99,20.99.22,2.53.35,5.1.48,7.59.26,5,.54,10.18,1.49,15.2.79,4.2,4.52,13.81,6.57,17.47-1.26,2.41-2.2,4.65-2.85,6.85-.29.99-.5,1.8-.69,2.82-.02.12.8.02.84-.16.74-3.54,2.08-6.6,4.33-10.51,2.05-3.56,4.24-6.82,6.53-9.7,5.08-6.39,11.03-11.19,17.69-14.26,3.6-1.66,7.27-2.81,10.93-3.43.27-.05.54-.08.81-.1-5.84,2.42-11.59,5.98-17.07,10.59-5.36,4.51-10.38,10.04-14.94,16.45-2.42,3.4-4.64,6.9-6.77,10.69-.12.21,1.08.73,1.19.52,3.56-6.2,7.43-11.62,12.51-17.64,5.05-5.99,10.22-10.68,15.78-14.35,3.32-2.19,9.97-6.09,11.43-6.09.03,0,.05,0,.07,0,.8.25,1.34.73,1.61,1.43.34.89-.18,1.84-.59,2.61-.45.83-.98,1.71-1.61,2.69-2.04,3.16-4.32,6.41-6.98,9.93-2.76,3.65-5.25,6.48-7.86,8.9-5.88,5.47-13.06,9.09-19.91,12.34-.88.42-1.28.61-2.17,1.02-.27.13.92,1.04,1.02.99,5.42-2.55,10.18-4.79,15.36-8.25,6.66-2.05,15.4-4.61,23.96-6.24,8.04-1.53,16.13-2,25.11-2.41,6.82-.32,13.74-.61,20.44-.89l5.05-.21c.14,0,.29-.01.43-.02.27-.02.55-.03.83-.03.46,0,.83.05,1.14.15.33.11.56.31.67.58.11.29.07.63-.12.97-.39.71-1.07,1.2-1.72,1.68l-.23.17c-.82.61-1.66,1.23-2.5,1.84-1.95,1.42-4.92,3.32-7.8,5.15-1.97,1.25-3.82,2.44-5.2,3.37-1.75,1.19-3.29,2.26-4.78,3.29-4.16,2.88-7.74,5.37-12.98,8.44-.61.36-1.24.72-1.87,1.09-3.17-.57-6.42-.86-9.65-.86-2.68,0-5.39.2-8.06.58-7.26,1.05-14.34,3.57-20.47,7.29-.74.45-1.31.81-2.07,1.32-.24.16.62,1.1.73,1.02,5.8-3.92,12.04-6.44,19.1-7.86,3.54-.71,7.17-1.07,10.77-1.07,3.41,0,6.8.32,10.09.96,3.75.72,7.36,1.84,10.7,3.31.85.37,1.75.78,2.62,1.26.71.39,1.48.9,1.8,1.71.28.7.12,1.36-.42,1.79-.07-1.44-1.14-2.61-2.07-3.18-.82-.51-1.77-.81-2.6-1.06-.92-.27-1.89-.53-2.89-.77-3.75-.91-7.63-1.5-11.55-1.76-1.47-.1-2.97-.14-4.44-.14-6.4,0-12.75.89-18.86,2.65-4.62,1.33-8.47,2.82-11.98,4.74-.25.14.41,1.21.5,1.17,3.89-1.93,7.03-3.22,10.23-4.24,3.51-1.12,7.16-1.95,10.85-2.49,3.21-.46,6.48-.7,9.71-.7,4.28,0,8.53.41,12.65,1.22,2.4.47,4.33.95,6.07,1.5.87.28,3.7,1.35,3.61,3.48-.5.19-1.05.32-1.53.43-.17.04-.33.07-.49.11-7.92,1.91-16.29,2.25-24.18,2.43-1.3.03-2.59.05-3.89.08-6.73.12-13.69.25-20.44,1.32-.9.14-1.8.32-2.67.49,0,0-.08,1.07-.04,1.07,7.95-1.34,16.17-1.52,24.11-1.68l1.22-.03h.08s.06,0,.06,0c8.09.81,16.63,5.14,23.99,9.14,3.43,1.86,7.52,3.92,11.89,5.09,2.25.6,4.56,1.02,6.8,1.43,1.69.31,3.43.63,5.13,1.02,1.66.38,3.11.8,4.45,1.28.04.1.12.25.23.43.39.69,1.05,1.86.7,2.74-.24.61-1.61,1.17-2.72,1.47-.71.19-1.44.35-2.15.5-.4.09-.8.17-1.2.27-1.9.44-3.79.88-5.68,1.33l-1.39.33c-5.28,1.24-9.72,2.28-14.23,3.35l-2.22.53-4.77,1.13c-2.3.55-4.68,1.11-7.05,1.47-1.68.25-3.23.37-4.74.37-.7,0-1.4-.03-2.07-.08-2.1-.17-4.24-.59-6.56-1.3-4.65-1.41-10.2-4.17-15.03-6.69-.63-.55-1.18-1.02-1.7-1.45-3.48-2.9-6.35-4.76-9.3-6.03-.85-.37-1.71-.68-2.54-.94-.07-.02-.79,1.25-.39,1.37,6.82,2.09,12.15,7.14,17.32,12.03l.09.08c3.37,3.19,5.77,5.78,7.79,8.43ZM342.74,136.25c-.53.57-1.35.79-2.08.98h-.05c-1.13.32-2.25.61-3.3.88-.81.13-1.48.26-2.1.39-1.91.41-3.92.92-6.34,1.59-1.77.49-3.56,1.02-5.29,1.53-.77.23-1.55.46-2.32.68l-.66.17-.74.19-.06.02c-3.02.79-6.15,1.62-9.25,2.31-4.77.91-9.55,1.37-14.2,1.37-2.23,0-4.46-.11-6.65-.31-4.77-.45-9.58-1.41-14.31-2.83-.26-.27-.52-.54-.79-.81-1.11-1.12-2.25-2.23-3.4-3.31,2.93,1.49,6.33,3.12,9.82,4.3,2.3.78,4.55,1.31,6.67,1.59,1.13.15,2.3.22,3.48.22s2.5-.08,3.79-.24c3.81-.47,7.62-1.42,11.3-2.33,1.03-.26,2.09-.52,3.13-.77,4.36-1.04,9.05-2.17,14.77-3.55l.91-.22h.04c2.44-.6,4.87-1.19,7.3-1.78.26-.06.53-.12.81-.18.73-.15,1.91-.58,2.86-.92.34-.12.65-.23.89-.32.7-.24,1.18-.69,1.39-1.3.28-.86.02-2-.72-3.16.04.02.08.03.12.05.93.38,1.84.83,2.69,1.33.9.53,1.75,1.07,2.27,1.88.48.75.67,1.83,0,2.55Z"/>
          <path class="cls-1" d="M216.7,111.02c.99.15,1.99.35,2.96.54.56.11,1.12.22,1.68.32.05,0,.09.01.14.01.39,0,.65-.31.69-.61.05-.34-.14-.62-.48-.72-2.76-.81-5.7-1.15-8.25-1.4-2.55-.25-5.3-.39-8.38-.42-.39,0-.77,0-1.16,0-3.5,0-7.06.13-10.5.26-1.68.06-3.42.13-5.13.17-1.65.05-3.32.07-4.96.07-9.74,0-19.28-.83-28.35-2.47-6.7-1.21-12.68-2.63-18.28-4.35-.04-.01-.09-.02-.13-.02-.21,0-.38.15-.41.37-.03.19.05.41.3.49,5.94,1.88,11.26,3.29,16.25,4.29,5.42,1.09,10.97,1.9,16.5,2.42,4.63.43,9.4.65,14.19.65.84,0,1.69,0,2.53-.02,2.5-.04,5.04-.13,7.5-.21,3.05-.1,6.19-.21,9.29-.23.29,0,.58,0,.87,0,3.14,0,5.91.1,8.46.31,1.67.14,3.21.32,4.68.54Z"/>
          <path class="cls-1" d="M240.02,139.13c-1.03-5.07-1.78-10.32-2.31-16.06-.04-.4-.38-.61-.69-.61-.18,0-.35.07-.46.19-.11.12-.16.27-.15.45.66,9.34,2.44,18.95,5.29,28.58,2.89,9.77,6.6,18.76,11.04,26.72,2.35,4.22,5.16,8.62,8.83,13.82.08.11.19.17.32.17.15,0,.3-.09.37-.22.06-.12.05-.26-.03-.37-2.46-3.54-4.82-7.48-7.44-12.38-2.4-4.49-4.43-8.7-6.22-12.88-3.77-8.8-6.64-18.02-8.55-27.42Z"/>
          <path class="cls-1" d="M240.01,105.71c.17,0,.33-.06.46-.17,2.08-1.67,4.12-3.28,6.29-4.78,2.13-1.47,4.4-2.9,6.74-4.23,4.42-2.52,9.26-4.81,14.37-6.82,4.79-1.88,9.92-3.55,15.67-5.11,5.71-1.55,11.53-2.9,17.31-4.03,5.21-1.02,10.55-1.88,15.71-2.72l1.84-.3,2.19-.35c.2-.03.33-.19.31-.39-.02-.2-.18-.4-.42-.4-.02,0-.04,0-.07,0-5.68.86-11.73,1.78-17.78,2.86-5.42.96-11.57,2.05-17.56,3.55-5.82,1.45-11.1,3.07-16.13,4.96-5.24,1.96-10.15,4.18-14.59,6.61-4.82,2.63-9.32,5.62-13.36,8.87-.55.44-1.04.86-1.52,1.28-.22.2-.29.45-.19.71.11.28.41.48.71.48Z"/>
        </g>
        <g>
          <path class="cls-2" d="M231.26,126.57c-.88-.42-1.91-.64-2.96-.64-1.95,0-3.87.72-5.26,1.97-2.1,1.89-2.8,5.32-1.68,8.14.6,1.51,1.74,2.79,3.21,3.6.72.4,1.86.93,3.39.93.81,0,1.66-.15,2.54-.45,2.72-.92,4.67-3.39,4.97-6.29.29-2.82-1.56-6.02-4.21-7.27ZM229.74,138.82c-.52.07-1,.11-1.44.11-1.28,0-1.92-.31-2.34-.51-.05-.02-.09-.04-.13-.06-1.06-.49-1.91-1.22-2.47-2.13-1.21-1.95-1.07-4.68.34-6.49,1.04-1.34,2.73-2.14,4.52-2.14.51,0,1.02.07,1.5.2,2.23.62,3.96,2.77,4.12,5.12.17,2.54-2.25,5.63-4.09,5.9Z"/>
          <path class="cls-2" d="M247.85,119.93c-.15-.01-.3-.02-.45-.02-2.97,0-6.02,1.96-7.08,4.57-1.18,2.9-.31,5.99,2.45,8.72,1.04,1.03,2.58,1.59,4.32,1.59,1.64,0,3.28-.5,4.51-1.37,2.55-1.82,3.75-5.17,2.91-8.16-.82-2.93-3.56-5.12-6.67-5.33ZM251.55,131.6c-.97.97-2.36,1.59-3.81,1.68-.14,0-.27.01-.41.01-1,0-1.98-.25-3.07-.77-.03-.04-.07-.08-.11-.11-2.02-1.36-3.15-4.16-2.63-6.53.53-2.45,2.82-4.46,5.33-4.68.16-.01.32-.02.47-.02,2.31,0,4.54,1.44,5.55,3.59,1.02,2.17.47,5.04-1.32,6.82Z"/>
          <path class="cls-2" d="M258.41,106.56c-1.29-1.72-3.54-2.79-5.88-2.79-.61,0-1.21.08-1.78.23-2.65.7-4.73,3.25-5.06,6.21-.17,1.48.23,3.1,1.1,4.43.9,1.38,2.33,2.47,3.74,2.84.87.23,1.67.34,2.43.34,1.96,0,3.64-.74,4.99-2.21,2.51-2.72,2.2-6.74.47-9.05ZM257.81,113.24c-.86,1.89-3.03,3.21-5.27,3.21-.52,0-1.03-.07-1.51-.22-1.48-.45-1.93-1.02-2.67-1.97-.71-.91-1.13-1.99-1.2-3.05-.15-2.23,1.15-4.41,3.23-5.42.68-.33,1.46-.5,2.27-.5,1.44,0,2.86.53,3.89,1.47,1.73,1.57,2.26,4.29,1.26,6.49Z"/>
          <path class="cls-2" d="M236.08,101.08c.3.05.61.08.93.08,1.18,0,2.45-.38,3.59-1.06,2.66-1.6,4.1-4.95,3.42-7.97-.14-.62-.72-2.75-2.21-3.99-.72-.6-2.96-1.84-5.3-1.84-.14,0-.27,0-.4.01-2.13.14-4.14,1.61-4.78,2.3-1.63,1.75-2.09,3.93-1.97,5.38.14,1.79,1.08,6.08,6.73,7.08ZM231.22,91.93c.65-2.34,2.86-4.05,5.38-4.17.09,0,.17,0,.26,0,2.34,0,4.6,1.57,5.51,3.81.91,2.25.21,5.01-1.7,6.7-1.01.89-2.36,1.38-3.81,1.38v.05s0,0,0,0v-.05c-.81,0-1.51-.12-2.13-.37-3.21-1.27-4.11-5.15-3.5-7.35Z"/>
          <path class="cls-2" d="M213.47,111.9c-1.93,0-3.78.7-5.09,1.91-.95.88-1.59,2.07-1.86,3.44-.52,2.37.18,5.01,1.76,6.58,1.25,1.24,3.09,1.95,5.04,1.95s3.94-.75,5.24-2.06c2.58-2.6,2.53-7.2-.11-9.86-1.24-1.24-3.06-1.96-4.99-1.96ZM218.06,121.62c-.99,1.69-2.88,2.73-4.93,2.73-1,0-1.96-.26-2.78-.75-1.32-.79-2.17-2.34-2.33-4.26-.14-1.65.44-3.37,1.55-4.6.59-.66,1.82-1.36,3.5-1.36,1.08,0,2.22.3,3.38.88,1.33.67,1.92,1.84,2.17,2.71.45,1.52.24,3.3-.55,4.65Z"/>
          <path class="cls-2" d="M208.51,103.89s1.01,3.12,4.95,4.5c.6.21,1.25.32,1.95.32.8,0,1.65-.15,2.46-.42,2.74-.93,4.76-3.59,5.02-6.63.25-2.93-1.53-5.99-4.24-7.29-1.03-.49-2.13-.74-3.26-.74-2.03,0-3.93.8-5.36,2.25-2.01,2.05-2.56,4.86-1.55,7.91.01.04.02.07.03.1ZM210.39,97.83c1.05-1.66,2.96-2.69,4.99-2.69.69,0,1.37.12,2.01.36,2.26.84,3.9,3.02,3.99,5.31.09,2.36-1.22,4.63-3.26,5.67-.76.39-1.66.59-2.59.59-.41,0-.82-.04-1.22-.12-.61-.12-1.31-.3-1.88-.69-2.91-1.97-3.49-6.15-2.04-8.42Z"/>
          <path class="cls-2" d="M235.54,102.15c-.89-.26-1.84-.38-2.83-.38-3.95,0-7.91,2.07-9.87,5.15-1.58,2.48-2.05,5.9-1.29,9.36,1.03,4.72,5.76,8.41,10.77,8.41.3,0,.59-.01.89-.04,3.02-.28,5.71-1.39,7.39-3.05,1.89-1.87,3.34-4.92,3.62-7.59.53-5.11-3.28-10.32-8.67-11.86ZM240.63,118.56c-1.25,1.77-3.31,3.12-5.65,3.72-.84.22-1.7.32-2.55.32-1.39,0-2.72-.29-3.95-.85-2.03-.93-3.74-2.5-4.82-4.42-.24-.44-.46-.91-.64-1.39-.07-.26-.12-.47-.17-.67-.47-2.18-.29-4.43.5-6.36,1.46-3.57,5.26-5.97,9.45-5.97.25,0,.51,0,.76.03,4.64.34,8.55,4.26,8.89,8.93.18,2.4-.47,4.76-1.82,6.66Z"/>
        </g>
      </g>
    </g>
  </g>
</svg>